SplineFontDB: 3.0
FontName: SpurceSans-Bold
FullName: Spurce Sans Bold
FamilyName: Spurce Sans
Weight: Bold
Copyright: Copyright 2020 Nicholas Auler, with font name 'Spurce'.\n\nBased on Source Sans, Copyright 2010, 2012, 2014 Adobe Systems Incorporated (http://www.adobe.com/), with Reserved Font Name `Source'.
UComments: "This font is still in beta. If you find any issues, contact me at nicholas.auler@gmail.com+AAoA"
Version: 0.6
ItalicAngle: 0
UnderlinePosition: -100
UnderlineWidth: 50
Ascent: 750
Descent: 250
InvalidEm: 0
sfntRevision: 0x0000999a
LayerCount: 2
Layer: 0 1 "Back" 1
Layer: 1 1 "Fore" 0
XUID: [1021 316 771282308 4264]
StyleMap: 0x0020
FSType: 0
OS2Version: 3
OS2_WeightWidthSlopeOnly: 0
OS2_UseTypoMetrics: 0
CreationTime: 1441032307
ModificationTime: 1588186024
PfmFamily: 33
TTFWeight: 700
TTFWidth: 5
LineGap: 0
VLineGap: 0
Panose: 2 11 7 3 3 4 3 2 2 4
OS2TypoAscent: 750
OS2TypoAOffset: 0
OS2TypoDescent: -250
OS2TypoDOffset: 0
OS2TypoLinegap: 0
OS2WinAscent: 984
OS2WinAOffset: 0
OS2WinDescent: 273
OS2WinDOffset: 0
HheadAscent: 984
HheadAOffset: 0
HheadDescent: -273
HheadDOffset: 0
OS2SubXSize: 650
OS2SubYSize: 600
OS2SubXOff: 0
OS2SubYOff: 75
OS2SupXSize: 650
OS2SupYSize: 600
OS2SupXOff: 0
OS2SupYOff: 350
OS2StrikeYSize: 50
OS2StrikeYPos: 297
OS2CapHeight: 660
OS2XHeight: 496
OS2Vendor: 'ADBO'
OS2CodePages: 2000019f.00000000
OS2UnicodeRanges: 600002f7.02000001.00000000.00000000
Lookup: 1 0 0 "'aalt' Access All Alternates lookup 0" { "'aalt' Access All Alternates lookup 0 subtable"  } ['aalt' ('DFLT' <'dflt' > 'cyrl' <'SRB ' 'dflt' > 'grek' <'dflt' > 'latn' <'AZE ' 'CRT ' 'NSM ' 'SKS ' 'TRK ' 'dflt' > ) ]
Lookup: 3 0 0 "'aalt' Access All Alternates lookup 1" { "'aalt' Access All Alternates lookup 1 subtable"  } ['aalt' ('DFLT' <'dflt' > 'cyrl' <'SRB ' 'dflt' > 'grek' <'dflt' > 'latn' <'AZE ' 'CRT ' 'NSM ' 'SKS ' 'TRK ' 'dflt' > ) ]

StartChar: .notdef
Encoding: 1114112 -1 0
Width: 690
Flags: W
LayerCount: 2
Fore
SplineSet
80 0 m 1,0,-1
 80 660 l 1,1,-1
 610 660 l 1,2,-1
 610 0 l 1,3,-1
 80 0 l 1,0,-1
263 91 m 1,4,-1
 427 91 l 1,5,-1
 388 168 l 1,6,-1
 347 266 l 1,7,-1
 343 266 l 1,8,-1
 302 168 l 1,9,-1
 263 91 l 1,4,-1
343 414 m 1,10,-1
 347 414 l 1,11,-1
 389 509 l 1,12,-1
 421 568 l 1,13,-1
 269 568 l 1,14,-1
 300 509 l 1,15,-1
 343 414 l 1,10,-1
178 155 m 1,16,-1
 273 340 l 1,17,-1
 178 526 l 1,18,-1
 178 155 l 1,16,-1
511 155 m 1,19,-1
 511 526 l 1,20,-1
 417 340 l 1,21,-1
 511 155 l 1,19,-1
EndSplineSet
Validated: 1
EndChar

StartChar: A
Encoding: 65 65 2
Width: 573
GlyphClass: 2
Flags: W
AnchorPoint: "Anchor-8" 479 0 basechar 0
AnchorPoint: "Anchor-4" 283 -22 basechar 0
AnchorPoint: "Anchor-1" 283 674 basechar 0
LayerCount: 2
Fore
SplineSet
230 330 m 2,0,-1
 214 270 l 1,1,-1
 353 270 l 1,2,-1
 338 330 l 2,3,4
 324 379 324 379 311 434 c 128,-1,5
 298 489 298 489 285 540 c 1,6,-1
 281 540 l 1,7,8
 269 488 269 488 256.5 433.5 c 128,-1,9
 244 379 244 379 230 330 c 2,0,-1
-6 0 m 1,10,-1
 198 652 l 1,11,-1
 375 652 l 1,12,-1
 579 0 l 1,13,-1
 423 0 l 1,14,-1
 383 155 l 1,15,-1
 184 155 l 1,16,-1
 144 0 l 1,17,-1
 -6 0 l 1,10,-1
EndSplineSet
Validated: 1
Substitution2: "'sups' Superscript lookup 27 subtable" A.sups
Substitution2: "'c2sc' Capitals to Small Capitals lookup 17 subtable" A.sc
AlternateSubs2: "'aalt' Access All Alternates lookup 1 subtable" A.sc A.sups
EndChar

StartChar: B
Encoding: 66 66 3
Width: 605
GlyphClass: 2
Flags: W
AnchorPoint: "Anchor-4" 315 -22 basechar 0
AnchorPoint: "Anchor-1" 300 674 basechar 0
LayerCount: 2
Fore
SplineSet
77 0 m 1,0,-1
 77 652 l 1,1,-1
 300 652 l 2,2,3
 351 652 351 652 394.5 644.5 c 128,-1,4
 438 637 438 637 470.5 618 c 128,-1,5
 503 599 503 599 521.5 568 c 128,-1,6
 540 537 540 537 540 490 c 0,7,8
 540 468 540 468 534 446 c 128,-1,9
 528 424 528 424 517 405 c 128,-1,10
 506 386 506 386 490.5 371 c 128,-1,11
 475 356 475 356 455 349 c 1,12,-1
 455 345 l 1,13,14
 480 339 480 339 501 326.5 c 128,-1,15
 522 314 522 314 538 295 c 128,-1,16
 554 276 554 276 563 250.5 c 128,-1,17
 572 225 572 225 572 192 c 0,18,19
 572 142 572 142 552.5 106 c 128,-1,20
 533 70 533 70 498.5 46.5 c 128,-1,21
 464 23 464 23 418 11.5 c 128,-1,22
 372 0 372 0 319 0 c 2,23,-1
 77 0 l 1,0,-1
224 391 m 1,24,-1
 293 391 l 2,25,26
 347 391 347 391 371.5 412 c 128,-1,27
 396 433 396 433 396 468 c 0,28,29
 396 506 396 506 371 522 c 128,-1,30
 346 538 346 538 294 538 c 2,31,-1
 224 538 l 1,32,-1
 224 391 l 1,24,-1
224 114 m 1,33,-1
 307 114 l 2,34,35
 428 114 428 114 428 202 c 0,36,37
 428 245 428 245 398 263.5 c 128,-1,38
 368 282 368 282 307 282 c 2,39,-1
 224 282 l 1,40,-1
 224 114 l 1,33,-1
EndSplineSet
Validated: 1
Substitution2: "'sups' Superscript lookup 27 subtable" B.sups
Substitution2: "'c2sc' Capitals to Small Capitals lookup 17 subtable" B.sc
AlternateSubs2: "'aalt' Access All Alternates lookup 1 subtable" B.sc B.sups
EndChar

StartChar: C
Encoding: 67 67 4
Width: 582
GlyphClass: 2
Flags: W
AnchorPoint: "Anchor-4" 350 -22 basechar 0
AnchorPoint: "Anchor-3" 350 0 basechar 0
AnchorPoint: "Anchor-1" 343 674 basechar 0
LayerCount: 2
Fore
SplineSet
349 -12 m 0,0,1
 287 -12 287 -12 232 9.5 c 128,-1,2
 177 31 177 31 135.5 73 c 128,-1,3
 94 115 94 115 70 177.5 c 128,-1,4
 46 240 46 240 46 322 c 0,5,6
 46 403 46 403 71 466.5 c 128,-1,7
 96 530 96 530 138 574 c 128,-1,8
 180 618 180 618 236 641 c 128,-1,9
 292 664 292 664 354 664 c 0,10,11
 417 664 417 664 467 638.5 c 128,-1,12
 517 613 517 613 550 579 c 1,13,-1
 472 485 l 1,14,15
 447 508 447 508 419.5 522.5 c 128,-1,16
 392 537 392 537 357 537 c 0,17,18
 324 537 324 537 294.5 522.5 c 128,-1,19
 265 508 265 508 243.5 481 c 128,-1,20
 222 454 222 454 209.5 415 c 128,-1,21
 197 376 197 376 197 327 c 0,22,23
 197 226 197 226 240 170.5 c 128,-1,24
 283 115 283 115 355 115 c 0,25,26
 395 115 395 115 426.5 132.5 c 128,-1,27
 458 150 458 150 482 176 c 1,28,-1
 560 84 l 1,29,30
 478 -12 478 -12 349 -12 c 0,0,1
EndSplineSet
Validated: 1
Substitution2: "'sups' Superscript lookup 27 subtable" C.sups
Substitution2: "'c2sc' Capitals to Small Capitals lookup 17 subtable" C.sc
AlternateSubs2: "'aalt' Access All Alternates lookup 1 subtable" C.sc C.sups
EndChar

StartChar: D
Encoding: 68 68 5
Width: 635
GlyphClass: 2
Flags: W
AnchorPoint: "Anchor-4" 313 -22 basechar 0
AnchorPoint: "Anchor-1" 318 674 basechar 0
LayerCount: 2
Fore
SplineSet
77 0 m 1,0,-1
 77 652 l 1,1,-1
 261 652 l 2,2,3
 336 652 336 652 396 633 c 128,-1,4
 456 614 456 614 499 574.5 c 128,-1,5
 542 535 542 535 565 474 c 128,-1,6
 588 413 588 413 588 329 c 256,7,8
 588 245 588 245 565 183 c 128,-1,9
 542 121 542 121 500 80.5 c 128,-1,10
 458 40 458 40 399.5 20 c 128,-1,11
 341 0 341 0 269 0 c 2,12,-1
 77 0 l 1,0,-1
224 119 m 1,13,-1
 252 119 l 2,14,15
 294 119 294 119 328 130 c 128,-1,16
 362 141 362 141 386 165.5 c 128,-1,17
 410 190 410 190 423.5 230 c 128,-1,18
 437 270 437 270 437 329 c 0,19,20
 437 387 437 387 423.5 426.5 c 128,-1,21
 410 466 410 466 386 489.5 c 128,-1,22
 362 513 362 513 328 523 c 128,-1,23
 294 533 294 533 252 533 c 2,24,-1
 224 533 l 1,25,-1
 224 119 l 1,13,-1
EndSplineSet
Validated: 1
Substitution2: "'sups' Superscript lookup 27 subtable" D.sups
Substitution2: "'c2sc' Capitals to Small Capitals lookup 17 subtable" D.sc
AlternateSubs2: "'aalt' Access All Alternates lookup 1 subtable" D.sc D.sups
EndChar

StartChar: E
Encoding: 69 69 6
Width: 548
GlyphClass: 2
Flags: W
AnchorPoint: "Anchor-8" 394 0 basechar 0
AnchorPoint: "Anchor-4" 295 -22 basechar 0
AnchorPoint: "Anchor-1" 289 674 basechar 0
LayerCount: 2
Fore
SplineSet
77 0 m 1,0,-1
 77 652 l 1,1,-1
 485 652 l 1,2,-1
 485 528 l 1,3,-1
 224 528 l 1,4,-1
 224 397 l 1,5,-1
 446 397 l 1,6,-1
 446 274 l 1,7,-1
 224 274 l 1,8,-1
 224 124 l 1,9,-1
 495 124 l 1,10,-1
 495 0 l 1,11,-1
 77 0 l 1,0,-1
EndSplineSet
Validated: 1
Substitution2: "'sups' Superscript lookup 27 subtable" E.sups
Substitution2: "'c2sc' Capitals to Small Capitals lookup 17 subtable" E.sc
AlternateSubs2: "'aalt' Access All Alternates lookup 1 subtable" E.sc E.sups
EndChar

StartChar: F
Encoding: 70 70 7
Width: 524
GlyphClass: 2
Flags: W
AnchorPoint: "Anchor-4" 159 -22 basechar 0
AnchorPoint: "Anchor-1" 289 674 basechar 0
LayerCount: 2
Fore
SplineSet
77 0 m 1,0,-1
 77 652 l 1,1,-1
 488 652 l 1,2,-1
 488 528 l 1,3,-1
 224 528 l 1,4,-1
 224 377 l 1,5,-1
 450 377 l 1,6,-1
 450 253 l 1,7,-1
 224 253 l 1,8,-1
 224 0 l 1,9,-1
 77 0 l 1,0,-1
EndSplineSet
Validated: 1
Substitution2: "'sups' Superscript lookup 27 subtable" F.sups
Substitution2: "'c2sc' Capitals to Small Capitals lookup 17 subtable" F.sc
AlternateSubs2: "'aalt' Access All Alternates lookup 1 subtable" F.sc F.sups
EndChar

StartChar: G
Encoding: 71 71 8
Width: 638
GlyphClass: 2
Flags: W
AnchorPoint: "Anchor-4" 362 -22 basechar 0
AnchorPoint: "Anchor-1" 367 674 basechar 0
LayerCount: 2
Fore
SplineSet
365 -12 m 0,0,1
 298 -12 298 -12 239.5 9.5 c 128,-1,2
 181 31 181 31 138 73 c 128,-1,3
 95 115 95 115 70.5 177.5 c 128,-1,4
 46 240 46 240 46 322 c 0,5,6
 46 403 46 403 71 466.5 c 128,-1,7
 96 530 96 530 139.5 574 c 128,-1,8
 183 618 183 618 241 641 c 128,-1,9
 299 664 299 664 364 664 c 0,10,11
 435 664 435 664 486 638 c 128,-1,12
 537 612 537 612 569 579 c 1,13,-1
 492 485 l 1,14,15
 467 507 467 507 439 522 c 128,-1,16
 411 537 411 537 369 537 c 0,17,18
 331 537 331 537 299.5 522.5 c 128,-1,19
 268 508 268 508 245 481 c 128,-1,20
 222 454 222 454 209.5 415 c 128,-1,21
 197 376 197 376 197 327 c 0,22,23
 197 226 197 226 242.5 170.5 c 128,-1,24
 288 115 288 115 380 115 c 0,25,26
 400 115 400 115 419 120 c 128,-1,27
 438 125 438 125 450 135 c 1,28,-1
 450 247 l 1,29,-1
 342 247 l 1,30,-1
 342 367 l 1,31,-1
 580 367 l 1,32,-1
 580 67 l 1,33,34
 546 34 546 34 490 11 c 128,-1,35
 434 -12 434 -12 365 -12 c 0,0,1
EndSplineSet
Validated: 1
Substitution2: "'sups' Superscript lookup 27 subtable" G.sups
Substitution2: "'c2sc' Capitals to Small Capitals lookup 17 subtable" G.sc
AlternateSubs2: "'aalt' Access All Alternates lookup 1 subtable" G.sc G.sups
EndChar

StartChar: H
Encoding: 72 72 9
Width: 674
GlyphClass: 2
Flags: W
AnchorPoint: "Anchor-4" 336 -22 basechar 0
AnchorPoint: "Anchor-1" 336 674 basechar 0
LayerCount: 2
Fore
SplineSet
77 0 m 1,0,-1
 77 652 l 1,1,-1
 224 652 l 1,2,-1
 224 401 l 1,3,-1
 449 401 l 1,4,-1
 449 652 l 1,5,-1
 597 652 l 1,6,-1
 597 0 l 1,7,-1
 449 0 l 1,8,-1
 449 272 l 1,9,-1
 224 272 l 1,10,-1
 224 0 l 1,11,-1
 77 0 l 1,0,-1
EndSplineSet
Validated: 1
Substitution2: "'sups' Superscript lookup 27 subtable" H.sups
Substitution2: "'c2sc' Capitals to Small Capitals lookup 17 subtable" H.sc
AlternateSubs2: "'aalt' Access All Alternates lookup 1 subtable" H.sc H.sups
EndChar

StartChar: I
Encoding: 73 73 10
Width: 396
GlyphClass: 2
Flags: W
AnchorPoint: "Anchor-1" 151 674 basechar 0
AnchorPoint: "Anchor-4" 151 -22 basechar 0
AnchorPoint: "Anchor-8" 131 0 basechar 0
LayerCount: 2
Fore
SplineSet
52 0 m 1,0,-1
 52 124 l 1,1,-1
 124 124 l 1,2,-1
 124 528 l 1,3,-1
 52 528 l 1,4,-1
 52 652 l 1,5,-1
 344 652 l 1,6,-1
 344 528 l 1,7,-1
 271 528 l 1,8,-1
 271 124 l 1,9,-1
 344 124 l 1,10,-1
 344 0 l 1,11,-1
 52 0 l 1,0,-1
EndSplineSet
Validated: 1
Substitution2: "'ss04' Style Set 4 lookup 43 subtable" I.a
Substitution2: "'sups' Superscript lookup 27 subtable" I.sups
Substitution2: "'c2sc' Capitals to Small Capitals lookup 17 subtable" I.sc
AlternateSubs2: "'aalt' Access All Alternates lookup 1 subtable" I.sc I.sups I.a
EndChar

StartChar: J
Encoding: 74 74 11
Width: 509
GlyphClass: 2
Flags: W
AnchorPoint: "Anchor-4" 270 -22 basechar 0
AnchorPoint: "Anchor-1" 359 674 basechar 0
LayerCount: 2
Fore
SplineSet
226 -12 m 0,0,1
 151 -12 151 -12 100.5 17 c 128,-1,2
 50 46 50 46 16 106 c 1,3,-1
 116 180 l 1,4,5
 134 147 134 147 158 131 c 128,-1,6
 182 115 182 115 207 115 c 0,7,8
 247 115 247 115 267.5 139.5 c 128,-1,9
 288 164 288 164 288 229 c 2,10,-1
 288 652 l 1,11,-1
 435 652 l 1,12,-1
 435 217 l 2,13,14
 435 170 435 170 422.5 128 c 128,-1,15
 410 86 410 86 384.5 55 c 128,-1,16
 359 24 359 24 319.5 6 c 128,-1,17
 280 -12 280 -12 226 -12 c 0,0,1
EndSplineSet
Validated: 1
Substitution2: "'sups' Superscript lookup 27 subtable" J.sups
Substitution2: "'c2sc' Capitals to Small Capitals lookup 17 subtable" J.sc
AlternateSubs2: "'aalt' Access All Alternates lookup 1 subtable" J.sc J.sups
EndChar

StartChar: K
Encoding: 75 75 12
Width: 614
GlyphClass: 2
Flags: W
AnchorPoint: "Anchor-4" 332 -22 basechar 0
AnchorPoint: "Anchor-1" 319 674 basechar 0
LayerCount: 2
Fore
SplineSet
77 0 m 1,0,-1
 77 652 l 1,1,-1
 224 652 l 1,2,-1
 224 385 l 1,3,-1
 228 385 l 1,4,-1
 422 652 l 1,5,-1
 584 652 l 1,6,-1
 387 392 l 1,7,-1
 620 0 l 1,8,-1
 459 0 l 1,9,-1
 300 275 l 1,10,-1
 224 175 l 1,11,-1
 224 0 l 1,12,-1
 77 0 l 1,0,-1
EndSplineSet
Validated: 1
Substitution2: "'sups' Superscript lookup 27 subtable" K.sups
Substitution2: "'c2sc' Capitals to Small Capitals lookup 17 subtable" K.sc
AlternateSubs2: "'aalt' Access All Alternates lookup 1 subtable" K.sc K.sups
EndChar

StartChar: L
Encoding: 76 76 13
Width: 518
GlyphClass: 2
Flags: W
AnchorPoint: "Anchor-4" 290 -22 basechar 0
AnchorPoint: "Anchor-1" 154 674 basechar 0
LayerCount: 2
Fore
SplineSet
77 0 m 1,0,-1
 77 652 l 1,1,-1
 224 652 l 1,2,-1
 224 124 l 1,3,-1
 482 124 l 1,4,-1
 482 0 l 1,5,-1
 77 0 l 1,0,-1
EndSplineSet
Validated: 1
Substitution2: "'sups' Superscript lookup 27 subtable" L.sups
Substitution2: "'c2sc' Capitals to Small Capitals lookup 17 subtable" L.sc
AlternateSubs2: "'aalt' Access All Alternates lookup 1 subtable" L.sc L.sups
EndChar

StartChar: M
Encoding: 77 77 14
Width: 762
GlyphClass: 2
Flags: W
AnchorPoint: "Anchor-4" 383 -22 basechar 0
AnchorPoint: "Anchor-1" 381 674 basechar 0
LayerCount: 2
Fore
SplineSet
77 0 m 1,0,-1
 77 652 l 1,1,-1
 238 652 l 1,2,-1
 343 362 l 2,3,4
 353 333 353 333 362 302.5 c 128,-1,5
 371 272 371 272 381 242 c 1,6,-1
 385 242 l 1,7,8
 395 272 395 272 403.5 302.5 c 128,-1,9
 412 333 412 333 422 362 c 2,10,-1
 525 652 l 1,11,-1
 685 652 l 1,12,-1
 685 0 l 1,13,-1
 551 0 l 1,14,-1
 551 239 l 2,15,16
 551 263 551 263 553 292 c 128,-1,17
 555 321 555 321 558 350.5 c 128,-1,18
 561 380 561 380 564 408.5 c 128,-1,19
 567 437 567 437 570 461 c 1,20,-1
 566 461 l 1,21,-1
 513 306 l 1,22,-1
 420 57 l 1,23,-1
 339 57 l 1,24,-1
 246 306 l 1,25,-1
 194 461 l 1,26,-1
 190 461 l 1,27,28
 193 437 193 437 196 408.5 c 128,-1,29
 199 380 199 380 202 350.5 c 128,-1,30
 205 321 205 321 207 292 c 128,-1,31
 209 263 209 263 209 239 c 2,32,-1
 209 0 l 1,33,-1
 77 0 l 1,0,-1
EndSplineSet
Validated: 1
Substitution2: "'sups' Superscript lookup 27 subtable" M.sups
Substitution2: "'c2sc' Capitals to Small Capitals lookup 17 subtable" M.sc
AlternateSubs2: "'aalt' Access All Alternates lookup 1 subtable" M.sc M.sups
EndChar

StartChar: N
Encoding: 78 78 15
Width: 665
GlyphClass: 2
Flags: W
AnchorPoint: "Anchor-4" 344 -22 basechar 0
AnchorPoint: "Anchor-1" 334 674 basechar 0
LayerCount: 2
Fore
SplineSet
77 0 m 1,0,-1
 77 652 l 1,1,-1
 228 652 l 1,2,-1
 398 328 l 1,3,-1
 462 184 l 1,4,-1
 466 184 l 1,5,6
 461 236 461 236 454.5 300 c 128,-1,7
 448 364 448 364 448 422 c 2,8,-1
 448 652 l 1,9,-1
 588 652 l 1,10,-1
 588 0 l 1,11,-1
 437 0 l 1,12,-1
 267 325 l 1,13,-1
 203 467 l 1,14,-1
 199 467 l 1,15,16
 204 413 204 413 210.5 351 c 128,-1,17
 217 289 217 289 217 231 c 2,18,-1
 217 0 l 1,19,-1
 77 0 l 1,0,-1
EndSplineSet
Validated: 1
Substitution2: "'sups' Superscript lookup 27 subtable" N.sups
Substitution2: "'c2sc' Capitals to Small Capitals lookup 17 subtable" N.sc
AlternateSubs2: "'aalt' Access All Alternates lookup 1 subtable" N.sc N.sups
EndChar

StartChar: O
Encoding: 79 79 16
Width: 684
GlyphClass: 2
Flags: W
AnchorPoint: "Anchor-8" 342 0 basechar 0
AnchorPoint: "Anchor-6" 484 642 basechar 0
AnchorPoint: "Anchor-4" 342 -22 basechar 0
AnchorPoint: "Anchor-1" 342 674 basechar 0
LayerCount: 2
Fore
SplineSet
342 -12 m 256,0,1
 276 -12 276 -12 221.5 11.5 c 128,-1,2
 167 35 167 35 128 79 c 128,-1,3
 89 123 89 123 67.5 186 c 128,-1,4
 46 249 46 249 46 329 c 256,5,6
 46 409 46 409 67.5 471.5 c 128,-1,7
 89 534 89 534 128 576.5 c 128,-1,8
 167 619 167 619 221.5 641.5 c 128,-1,9
 276 664 276 664 342 664 c 256,10,11
 408 664 408 664 462.5 641.5 c 128,-1,12
 517 619 517 619 556 576 c 128,-1,13
 595 533 595 533 616.5 470.5 c 128,-1,14
 638 408 638 408 638 329 c 0,15,16
 638 249 638 249 616.5 186 c 128,-1,17
 595 123 595 123 556 79 c 128,-1,18
 517 35 517 35 462.5 11.5 c 128,-1,19
 408 -12 408 -12 342 -12 c 256,0,1
342 115 m 256,20,21
 409 115 409 115 448 172.5 c 128,-1,22
 487 230 487 230 487 329 c 0,23,24
 487 427 487 427 448 482 c 128,-1,25
 409 537 409 537 342 537 c 256,26,27
 275 537 275 537 236 482 c 128,-1,28
 197 427 197 427 197 329 c 0,29,30
 197 230 197 230 236 172.5 c 128,-1,31
 275 115 275 115 342 115 c 256,20,21
EndSplineSet
Validated: 1
Substitution2: "'sups' Superscript lookup 27 subtable" O.sups
Substitution2: "'c2sc' Capitals to Small Capitals lookup 17 subtable" O.sc
AlternateSubs2: "'aalt' Access All Alternates lookup 1 subtable" O.sc O.sups
EndChar

StartChar: P
Encoding: 80 80 17
Width: 596
GlyphClass: 2
Flags: W
AnchorPoint: "Anchor-4" 161 -22 basechar 0
AnchorPoint: "Anchor-1" 316 674 basechar 0
LayerCount: 2
Fore
SplineSet
77 0 m 1,0,-1
 77 652 l 1,1,-1
 301 652 l 2,2,3
 355 652 355 652 402 641.5 c 128,-1,4
 449 631 449 631 484 606.5 c 128,-1,5
 519 582 519 582 539.5 541.5 c 128,-1,6
 560 501 560 501 560 442 c 0,7,8
 560 385 560 385 539.5 343 c 128,-1,9
 519 301 519 301 484 274 c 128,-1,10
 449 247 449 247 403 234 c 128,-1,11
 357 221 357 221 305 221 c 2,12,-1
 224 221 l 1,13,-1
 224 0 l 1,14,-1
 77 0 l 1,0,-1
224 338 m 1,15,-1
 296 338 l 2,16,17
 416 338 416 338 416 442 c 0,18,19
 416 493 416 493 384 514 c 128,-1,20
 352 535 352 535 292 535 c 2,21,-1
 224 535 l 1,22,-1
 224 338 l 1,15,-1
EndSplineSet
Validated: 1
Substitution2: "'sups' Superscript lookup 27 subtable" P.sups
Substitution2: "'c2sc' Capitals to Small Capitals lookup 17 subtable" P.sc
AlternateSubs2: "'aalt' Access All Alternates lookup 1 subtable" P.sc P.sups
EndChar

StartChar: Q
Encoding: 81 81 18
Width: 684
GlyphClass: 2
Flags: W
AnchorPoint: "Anchor-1" 342 674 basechar 0
LayerCount: 2
Fore
SplineSet
342 108 m 256,0,1
 409 108 409 108 448 166 c 128,-1,2
 487 224 487 224 487 329 c 0,3,4
 487 427 487 427 448 482 c 128,-1,5
 409 537 409 537 342 537 c 256,6,7
 275 537 275 537 236 482 c 128,-1,8
 197 427 197 427 197 329 c 0,9,10
 197 224 197 224 236 166 c 128,-1,11
 275 108 275 108 342 108 c 256,0,1
557 -182 m 0,12,13
 505 -182 505 -182 461 -168.5 c 128,-1,14
 417 -155 417 -155 381.5 -131.5 c 128,-1,15
 346 -108 346 -108 319 -75.5 c 128,-1,16
 292 -43 292 -43 275 -5 c 1,17,18
 223 6 223 6 180.5 33.5 c 128,-1,19
 138 61 138 61 108 104 c 128,-1,20
 78 147 78 147 62 203.5 c 128,-1,21
 46 260 46 260 46 329 c 0,22,23
 46 409 46 409 67.5 471.5 c 128,-1,24
 89 534 89 534 128 576.5 c 128,-1,25
 167 619 167 619 221.5 641.5 c 128,-1,26
 276 664 276 664 342 664 c 256,27,28
 408 664 408 664 462.5 641.5 c 128,-1,29
 517 619 517 619 556 576 c 128,-1,30
 595 533 595 533 616.5 470.5 c 128,-1,31
 638 408 638 408 638 329 c 0,32,33
 638 197 638 197 582 112 c 128,-1,34
 526 27 526 27 431 0 c 1,35,36
 454 -35 454 -35 493 -49.5 c 128,-1,37
 532 -64 532 -64 574 -64 c 0,38,39
 595 -64 595 -64 613.5 -61 c 128,-1,40
 632 -58 632 -58 646 -53 c 1,41,-1
 672 -160 l 1,42,43
 654 -169 654 -169 624.5 -175.5 c 128,-1,44
 595 -182 595 -182 557 -182 c 0,12,13
EndSplineSet
Validated: 1
Substitution2: "'sups' Superscript lookup 27 subtable" Q.sups
Substitution2: "'c2sc' Capitals to Small Capitals lookup 17 subtable" Q.sc
AlternateSubs2: "'aalt' Access All Alternates lookup 1 subtable" Q.sc Q.sups
EndChar

StartChar: R
Encoding: 82 82 19
Width: 613
GlyphClass: 2
Flags: W
AnchorPoint: "Anchor-4" 327 -22 basechar 0
AnchorPoint: "Anchor-1" 310 674 basechar 0
LayerCount: 2
Fore
SplineSet
77 0 m 1,0,-1
 77 652 l 1,1,-1
 312 652 l 2,2,3
 364 652 364 652 409.5 642 c 128,-1,4
 455 632 455 632 489 608.5 c 128,-1,5
 523 585 523 585 543 546 c 128,-1,6
 563 507 563 507 563 449 c 0,7,8
 563 377 563 377 531.5 330.5 c 128,-1,9
 500 284 500 284 447 261 c 1,10,-1
 595 0 l 1,11,-1
 430 0 l 1,12,-1
 305 235 l 1,13,-1
 224 235 l 1,14,-1
 224 0 l 1,15,-1
 77 0 l 1,0,-1
224 352 m 1,16,-1
 300 352 l 2,17,18
 358 352 358 352 388.5 376.5 c 128,-1,19
 419 401 419 401 419 449 c 256,20,21
 419 497 419 497 388.5 516 c 128,-1,22
 358 535 358 535 300 535 c 2,23,-1
 224 535 l 1,24,-1
 224 352 l 1,16,-1
EndSplineSet
Validated: 1
Substitution2: "'sups' Superscript lookup 27 subtable" R.sups
Substitution2: "'c2sc' Capitals to Small Capitals lookup 17 subtable" R.sc
AlternateSubs2: "'aalt' Access All Alternates lookup 1 subtable" R.sc R.sups
EndChar

StartChar: S
Encoding: 83 83 20
Width: 556
GlyphClass: 2
Flags: W
AnchorPoint: "Anchor-4" 280 -22 basechar 0
AnchorPoint: "Anchor-3" 280 0 basechar 0
AnchorPoint: "Anchor-1" 291 674 basechar 0
LayerCount: 2
Fore
SplineSet
276 -12 m 0,0,1
 212 -12 212 -12 148.5 11.5 c 128,-1,2
 85 35 85 35 35 82 c 1,3,-1
 119 183 l 1,4,5
 154 153 154 153 196.5 134 c 128,-1,6
 239 115 239 115 280 115 c 0,7,8
 326 115 326 115 348.5 132 c 128,-1,9
 371 149 371 149 371 178 c 0,10,11
 371 193 371 193 364.5 204 c 128,-1,12
 358 215 358 215 345.5 223.5 c 128,-1,13
 333 232 333 232 315.5 239.5 c 128,-1,14
 298 247 298 247 277 256 c 2,15,-1
 192 292 l 2,16,17
 167 302 167 302 143.5 318 c 128,-1,18
 120 334 120 334 101.5 355.5 c 128,-1,19
 83 377 83 377 72 405.5 c 128,-1,20
 61 434 61 434 61 470 c 0,21,22
 61 510 61 510 78 545.5 c 128,-1,23
 95 581 95 581 126 607.5 c 128,-1,24
 157 634 157 634 199.5 649 c 128,-1,25
 242 664 242 664 293 664 c 0,26,27
 350 664 350 664 405.5 642 c 128,-1,28
 461 620 461 620 503 578 c 1,29,-1
 428 485 l 1,30,31
 396 510 396 510 364 523.5 c 128,-1,32
 332 537 332 537 293 537 c 0,33,34
 255 537 255 537 232.5 521.5 c 128,-1,35
 210 506 210 506 210 478 c 0,36,37
 210 463 210 463 217.5 452.5 c 128,-1,38
 225 442 225 442 238.5 433.5 c 128,-1,39
 252 425 252 425 270 417.5 c 128,-1,40
 288 410 288 410 309 401 c 2,41,-1
 393 367 l 2,42,43
 453 343 453 343 487.5 301 c 128,-1,44
 522 259 522 259 522 190 c 0,45,46
 522 149 522 149 505.5 112.5 c 128,-1,47
 489 76 489 76 457.5 48.5 c 128,-1,48
 426 21 426 21 380 4.5 c 128,-1,49
 334 -12 334 -12 276 -12 c 0,0,1
EndSplineSet
Validated: 1
Substitution2: "'sups' Superscript lookup 27 subtable" S.sups
Substitution2: "'c2sc' Capitals to Small Capitals lookup 17 subtable" S.sc
AlternateSubs2: "'aalt' Access All Alternates lookup 1 subtable" S.sc S.sups
EndChar

StartChar: T
Encoding: 84 84 21
Width: 556
GlyphClass: 2
Flags: W
AnchorPoint: "Anchor-4" 278 -22 basechar 0
AnchorPoint: "Anchor-3" 278 0 basechar 0
AnchorPoint: "Anchor-1" 278 674 basechar 0
LayerCount: 2
Fore
SplineSet
204 0 m 1,0,-1
 204 528 l 1,1,-1
 25 528 l 1,2,-1
 25 652 l 1,3,-1
 531 652 l 1,4,-1
 531 528 l 1,5,-1
 352 528 l 1,6,-1
 352 0 l 1,7,-1
 204 0 l 1,0,-1
EndSplineSet
Validated: 1
Substitution2: "'sups' Superscript lookup 27 subtable" T.sups
Substitution2: "'c2sc' Capitals to Small Capitals lookup 17 subtable" T.sc
AlternateSubs2: "'aalt' Access All Alternates lookup 1 subtable" T.sc T.sups
EndChar

StartChar: U
Encoding: 85 85 22
Width: 665
GlyphClass: 2
Flags: W
AnchorPoint: "Anchor-8" 332 0 basechar 0
AnchorPoint: "Anchor-6" 545 662 basechar 0
AnchorPoint: "Anchor-4" 332 -22 basechar 0
AnchorPoint: "Anchor-1" 332 674 basechar 0
LayerCount: 2
Fore
SplineSet
334 -12 m 0,0,1
 207 -12 207 -12 140 63 c 128,-1,2
 73 138 73 138 73 302 c 2,3,-1
 73 652 l 1,4,-1
 221 652 l 1,5,-1
 221 287 l 2,6,7
 221 191 221 191 250 153 c 128,-1,8
 279 115 279 115 334 115 c 256,9,10
 389 115 389 115 419 153 c 128,-1,11
 449 191 449 191 449 287 c 2,12,-1
 449 652 l 1,13,-1
 591 652 l 1,14,-1
 591 302 l 2,15,16
 591 138 591 138 525.5 63 c 128,-1,17
 460 -12 460 -12 334 -12 c 0,0,1
EndSplineSet
Validated: 1
Substitution2: "'sups' Superscript lookup 27 subtable" U.sups
Substitution2: "'c2sc' Capitals to Small Capitals lookup 17 subtable" U.sc
AlternateSubs2: "'aalt' Access All Alternates lookup 1 subtable" U.sc U.sups
EndChar

StartChar: V
Encoding: 86 86 23
Width: 556
GlyphClass: 2
Flags: W
AnchorPoint: "Anchor-4" 275 -22 basechar 0
AnchorPoint: "Anchor-1" 278 674 basechar 0
LayerCount: 2
Fore
SplineSet
190 0 m 1,0,-1
 -7 652 l 1,1,-1
 149 652 l 1,2,-1
 227 348 l 2,3,4
 242 294 242 294 253.5 243.5 c 128,-1,5
 265 193 265 193 280 139 c 1,6,-1
 284 139 l 1,7,8
 298 193 298 193 310 243.5 c 128,-1,9
 322 294 322 294 336 348 c 2,10,-1
 413 652 l 1,11,-1
 563 652 l 1,12,-1
 367 0 l 1,13,-1
 190 0 l 1,0,-1
EndSplineSet
Validated: 1
Substitution2: "'sups' Superscript lookup 27 subtable" V.sups
Substitution2: "'c2sc' Capitals to Small Capitals lookup 17 subtable" V.sc
AlternateSubs2: "'aalt' Access All Alternates lookup 1 subtable" V.sc V.sups
EndChar

StartChar: W
Encoding: 87 87 24
Width: 813
GlyphClass: 2
Flags: W
AnchorPoint: "Anchor-4" 409 -22 basechar 0
AnchorPoint: "Anchor-1" 407 674 basechar 0
LayerCount: 2
Fore
SplineSet
135 0 m 1,0,-1
 14 652 l 1,1,-1
 165 652 l 1,2,-1
 210 347 l 2,3,4
 216 296 216 296 223 244.5 c 128,-1,5
 230 193 230 193 236 141 c 1,6,-1
 240 141 l 1,7,8
 250 193 250 193 259.5 244.5 c 128,-1,9
 269 296 269 296 279 347 c 2,10,-1
 349 652 l 1,11,-1
 474 652 l 1,12,-1
 544 347 l 2,13,14
 554 297 554 297 563.5 245.5 c 128,-1,15
 573 194 573 194 583 141 c 1,16,-1
 587 141 l 1,17,18
 594 194 594 194 600.5 245 c 128,-1,19
 607 296 607 296 614 347 c 2,20,-1
 659 652 l 1,21,-1
 800 652 l 1,22,-1
 684 0 l 1,23,-1
 499 0 l 1,24,-1
 435 296 l 2,25,26
 427 334 427 334 420.5 372.5 c 128,-1,27
 414 411 414 411 409 447 c 1,28,-1
 405 447 l 1,29,30
 399 411 399 411 392.5 372.5 c 128,-1,31
 386 334 386 334 378 296 c 2,32,-1
 317 0 l 1,33,-1
 135 0 l 1,0,-1
EndSplineSet
Validated: 1
Substitution2: "'sups' Superscript lookup 27 subtable" W.sups
Substitution2: "'c2sc' Capitals to Small Capitals lookup 17 subtable" W.sc
AlternateSubs2: "'aalt' Access All Alternates lookup 1 subtable" W.sc W.sups
EndChar

StartChar: X
Encoding: 88 88 25
Width: 567
GlyphClass: 2
Flags: W
AnchorPoint: "Anchor-4" 274 -22 basechar 0
AnchorPoint: "Anchor-1" 284 674 basechar 0
LayerCount: 2
Fore
SplineSet
11 0 m 1,0,-1
 192 335 l 1,1,-1
 22 652 l 1,2,-1
 186 652 l 1,3,-1
 243 529 l 2,4,5
 254 506 254 506 265 480.5 c 128,-1,6
 276 455 276 455 290 424 c 1,7,-1
 294 424 l 1,8,9
 305 455 305 455 315.5 480.5 c 128,-1,10
 326 506 326 506 336 529 c 2,11,-1
 388 652 l 1,12,-1
 545 652 l 1,13,-1
 376 328 l 1,14,-1
 556 0 l 1,15,-1
 392 0 l 1,16,-1
 327 133 l 2,17,18
 315 159 315 159 303.5 184.5 c 128,-1,19
 292 210 292 210 278 240 c 1,20,-1
 274 240 l 1,21,22
 263 210 263 210 252 184.5 c 128,-1,23
 241 159 241 159 230 133 c 2,24,-1
 169 0 l 1,25,-1
 11 0 l 1,0,-1
EndSplineSet
Validated: 1
Substitution2: "'sups' Superscript lookup 27 subtable" X.sups
Substitution2: "'c2sc' Capitals to Small Capitals lookup 17 subtable" X.sc
AlternateSubs2: "'aalt' Access All Alternates lookup 1 subtable" X.sc X.sups
EndChar

StartChar: Y
Encoding: 89 89 26
Width: 525
GlyphClass: 2
Flags: W
AnchorPoint: "Anchor-4" 264 -22 basechar 0
AnchorPoint: "Anchor-1" 262 674 basechar 0
LayerCount: 2
Fore
SplineSet
189 0 m 1,0,-1
 189 232 l 1,1,-1
 -8 652 l 1,2,-1
 150 652 l 1,3,-1
 208 502 l 2,4,5
 222 465 222 465 234.5 430.5 c 128,-1,6
 247 396 247 396 261 358 c 1,7,-1
 265 358 l 1,8,9
 279 396 279 396 292.5 430.5 c 128,-1,10
 306 465 306 465 320 502 c 2,11,-1
 379 652 l 1,12,-1
 533 652 l 1,13,-1
 336 232 l 1,14,-1
 336 0 l 1,15,-1
 189 0 l 1,0,-1
EndSplineSet
Validated: 1
Substitution2: "'sups' Superscript lookup 27 subtable" Y.sups
Substitution2: "'c2sc' Capitals to Small Capitals lookup 17 subtable" Y.sc
AlternateSubs2: "'aalt' Access All Alternates lookup 1 subtable" Y.sc Y.sups
EndChar

StartChar: Z
Encoding: 90 90 27
Width: 541
GlyphClass: 2
Flags: W
AnchorPoint: "Anchor-4" 282 -22 basechar 0
AnchorPoint: "Anchor-1" 283 674 basechar 0
LayerCount: 2
Fore
SplineSet
36 0 m 1,0,-1
 36 89 l 1,1,-1
 324 528 l 1,2,-1
 63 528 l 1,3,-1
 63 652 l 1,4,-1
 505 652 l 1,5,-1
 505 563 l 1,6,-1
 217 124 l 1,7,-1
 508 124 l 1,8,-1
 508 0 l 1,9,-1
 36 0 l 1,0,-1
EndSplineSet
Validated: 1
Substitution2: "'sups' Superscript lookup 27 subtable" Z.sups
Substitution2: "'c2sc' Capitals to Small Capitals lookup 17 subtable" Z.sc
AlternateSubs2: "'aalt' Access All Alternates lookup 1 subtable" Z.sc Z.sups
EndChar

StartChar: a
Encoding: 97 97 28
Width: 573
GlyphClass: 2
Flags: W
LayerCount: 2
Fore
SplineSet
242 -12 m 0,0,1
 196 -12 196 -12 158.5 6 c 128,-1,2
 121 24 121 24 94.5 57.5 c 128,-1,3
 68 91 68 91 53.5 139 c 128,-1,4
 39 187 39 187 39 248 c 128,-1,5
 39 309 39 309 57 357 c 128,-1,6
 75 405 75 405 104.5 438.5 c 128,-1,7
 134 472 134 472 171.5 490 c 128,-1,8
 209 508 209 508 248 508 c 0,9,10
 286 508 286 508 317 493.5 c 128,-1,11
 348 479 348 479 377 447 c 1,12,-1
 381 447 l 1,13,-1
 393 496 l 1,14,-1
 508 496 l 1,15,-1
 508 159 l 1,16,-1
 508 148 l 2,17,18
 508 125 508 125 516.5 116 c 128,-1,19
 525 107 525 107 534 107 c 0,20,21
 539 107 539 107 542.5 107 c 128,-1,22
 546 107 546 107 552 109 c 1,23,-1
 570 0 l 1,24,25
 558 -5 558 -5 539.5 -8.5 c 128,-1,26
 521 -12 521 -12 496 -12 c 0,27,28
 454 -12 454 -12 428 0 c 128,-1,29
 402 12 402 12 386.5 33.5 c 0,30,31
 381.347487249 40.4292412856 381.347487249 40.4292412856 377.142003784 49 c 1,32,-1
 374 49 l 1,33,34
 348 23 348 23 313 5.5 c 128,-1,35
 278 -12 278 -12 242 -12 c 0,0,1
280 108 m 0,36,37
 304 108 304 108 323.5 118 c 128,-1,38
 343 128 343 128 361 153 c 1,39,-1
 361 154 l 1,40,-1
 361 161 l 1,41,-1
 361 356 l 1,42,43
 341 374 341 374 320 381 c 128,-1,44
 299 388 299 388 279 388 c 0,45,46
 244 388 244 388 217 354.5 c 128,-1,47
 190 321 190 321 190 250 c 0,48,49
 190 176 190 176 213.5 142 c 128,-1,50
 237 108 237 108 280 108 c 0,36,37
EndSplineSet
Validated: 1
Substitution2: "'ss02' Style Set 2 lookup 39 subtable" a.a
Substitution2: "'sups' Superscript lookup 26 subtable" a.sups
Substitution2: "'smcp' Lowercase to Small Capitals lookup 20 subtable" A.sc
AlternateSubs2: "'aalt' Access All Alternates lookup 1 subtable" A.sc a.sups a.a
EndChar

StartChar: b
Encoding: 98 98 29
Width: 573
GlyphClass: 2
Flags: W
AnchorPoint: "Anchor-4" 293 -22 basechar 0
AnchorPoint: "Anchor-0" 140 730 basechar 0
LayerCount: 2
Fore
SplineSet
325 -12 m 0,0,1
 292 -12 292 -12 258.5 4.5 c 128,-1,2
 225 21 225 21 196 53 c 1,3,-1
 192 53 l 1,4,-1
 180 0 l 1,5,-1
 65 0 l 1,6,-1
 65 701 l 1,7,-1
 212 701 l 1,8,-1
 212 529 l 1,9,-1
 208 453 l 1,10,11
 237 479 237 479 270.5 493.5 c 128,-1,12
 304 508 304 508 339 508 c 0,13,14
 384 508 384 508 420 490 c 128,-1,15
 456 472 456 472 481.5 439.5 c 128,-1,16
 507 407 507 407 520.5 360.5 c 128,-1,17
 534 314 534 314 534 257 c 0,18,19
 534 193 534 193 516.5 143 c 128,-1,20
 499 93 499 93 469.5 58.5 c 128,-1,21
 440 24 440 24 402.5 6 c 128,-1,22
 365 -12 365 -12 325 -12 c 0,0,1
291 108 m 0,23,24
 329 108 329 108 356 142.5 c 128,-1,25
 383 177 383 177 383 254 c 0,26,27
 383 388 383 388 297 388 c 0,28,29
 253 388 253 388 212 343 c 1,30,-1
 212 140 l 1,31,32
 232 122 232 122 252 115 c 128,-1,33
 272 108 272 108 291 108 c 0,23,24
EndSplineSet
Validated: 1
Substitution2: "'sups' Superscript lookup 26 subtable" b.sups
Substitution2: "'smcp' Lowercase to Small Capitals lookup 20 subtable" B.sc
AlternateSubs2: "'aalt' Access All Alternates lookup 1 subtable" B.sc b.sups
EndChar

StartChar: c
Encoding: 99 99 30
Width: 467
GlyphClass: 2
Flags: W
AnchorPoint: "Anchor-4" 274 -22 basechar 0
AnchorPoint: "Anchor-3" 274 0 basechar 0
AnchorPoint: "Anchor-0" 278 518 basechar 0
LayerCount: 2
Fore
SplineSet
281 -12 m 0,0,1
 229 -12 229 -12 184.5 5.5 c 128,-1,2
 140 23 140 23 107 56 c 128,-1,3
 74 89 74 89 55 137.5 c 128,-1,4
 36 186 36 186 36 248 c 256,5,6
 36 310 36 310 57 358.5 c 128,-1,7
 78 407 78 407 113.5 440 c 128,-1,8
 149 473 149 473 196 490.5 c 128,-1,9
 243 508 243 508 294 508 c 0,10,11
 340 508 340 508 375.5 493 c 128,-1,12
 411 478 411 478 439 455 c 1,13,-1
 370 360 l 1,14,15
 335 389 335 389 303 389 c 0,16,17
 249 389 249 389 218 351 c 128,-1,18
 187 313 187 313 187 248 c 256,19,20
 187 183 187 183 218.5 145 c 128,-1,21
 250 107 250 107 298 107 c 0,22,23
 322 107 322 107 344.5 117.5 c 128,-1,24
 367 128 367 128 387 143 c 1,25,-1
 445 47 l 1,26,27
 408 15 408 15 365 1.5 c 128,-1,28
 322 -12 322 -12 281 -12 c 0,0,1
EndSplineSet
Validated: 1
Substitution2: "'sups' Superscript lookup 26 subtable" c.sups
Substitution2: "'smcp' Lowercase to Small Capitals lookup 20 subtable" C.sc
AlternateSubs2: "'aalt' Access All Alternates lookup 1 subtable" C.sc c.sups
EndChar

StartChar: d
Encoding: 100 100 31
Width: 573
GlyphClass: 2
Flags: W
AnchorPoint: "Anchor-4" 312 -22 basechar 0
AnchorPoint: "Anchor-0" 408 730 basechar 0
LayerCount: 2
Fore
SplineSet
280 108 m 0,0,1
 304 108 304 108 323.5 118 c 128,-1,2
 343 128 343 128 361 153 c 1,3,-1
 361 154 l 1,4,-1
 361 161 l 1,5,-1
 361 356 l 1,6,7
 341 374 341 374 320 381 c 128,-1,8
 299 388 299 388 279 388 c 0,9,10
 244 388 244 388 217 354.5 c 128,-1,11
 190 321 190 321 190 250 c 0,12,13
 190 176 190 176 213.5 142 c 128,-1,14
 237 108 237 108 280 108 c 0,0,1
242 -12 m 0,15,16
 196 -12 196 -12 158.5 6 c 128,-1,17
 121 24 121 24 94.5 57.5 c 128,-1,18
 68 91 68 91 53.5 139 c 128,-1,19
 39 187 39 187 39 248 c 128,-1,20
 39 309 39 309 56.5 357 c 128,-1,21
 74 405 74 405 102.5 438.5 c 128,-1,22
 131 472 131 472 168.5 490 c 128,-1,23
 206 508 206 508 245 508 c 0,24,25
 287 508 287 508 314 494 c 128,-1,26
 341 480 341 480 367 456 c 1,27,-1
 361 532 l 1,28,-1
 361 701 l 1,29,-1
 508 701 l 1,30,-1
 508 159 l 1,31,-1
 508 148 l 2,32,33
 508 125 508 125 516.5 116 c 128,-1,34
 525 107 525 107 534 107 c 0,35,36
 539 107 539 107 542.5 107 c 128,-1,37
 546 107 546 107 552 109 c 1,38,-1
 570 0 l 1,39,40
 558 -5 558 -5 539.5 -8.5 c 128,-1,41
 521 -12 521 -12 496 -12 c 0,42,43
 454 -12 454 -12 428 0 c 128,-1,44
 402 12 402 12 386.5 33.5 c 0,45,46
 381.347487249 40.4292412856 381.347487249 40.4292412856 377.142003784 49 c 1,47,-1
 374 49 l 1,48,49
 348 23 348 23 313 5.5 c 128,-1,50
 278 -12 278 -12 242 -12 c 0,15,16
EndSplineSet
Validated: 1
Substitution2: "'sups' Superscript lookup 26 subtable" d.sups
Substitution2: "'smcp' Lowercase to Small Capitals lookup 20 subtable" D.sc
AlternateSubs2: "'aalt' Access All Alternates lookup 1 subtable" D.sc d.sups
EndChar

StartChar: e
Encoding: 101 101 32
Width: 518
GlyphClass: 2
Flags: W
AnchorPoint: "Anchor-7" 397 0 basechar 0
AnchorPoint: "Anchor-4" 269 -22 basechar 0
AnchorPoint: "Anchor-0" 270 518 basechar 0
LayerCount: 2
Fore
SplineSet
287 -12 m 0,0,1
 234 -12 234 -12 188 5.5 c 128,-1,2
 142 23 142 23 108 56.5 c 128,-1,3
 74 90 74 90 55 138 c 128,-1,4
 36 186 36 186 36 248 c 0,5,6
 36 308 36 308 56 356.5 c 128,-1,7
 76 405 76 405 108.5 438.5 c 128,-1,8
 141 472 141 472 183 490 c 128,-1,9
 225 508 225 508 270 508 c 0,10,11
 323 508 323 508 362.5 490 c 128,-1,12
 402 472 402 472 428.5 440 c 128,-1,13
 455 408 455 408 468 364.5 c 128,-1,14
 481 321 481 321 481 270 c 0,15,16
 481 250 481 250 479 232 c 128,-1,17
 477 214 477 214 475 205 c 1,18,-1
 178 205 l 1,19,20
 188 151 188 151 222.5 125.5 c 128,-1,21
 257 100 257 100 307 100 c 0,22,23
 360 100 360 100 414 133 c 1,24,-1
 463 44 l 1,25,26
 425 18 425 18 378.5 3 c 128,-1,27
 332 -12 332 -12 287 -12 c 0,0,1
177 302 m 1,28,-1
 356 302 l 1,29,30
 356 344 356 344 337 370 c 128,-1,31
 318 396 318 396 273 396 c 0,32,33
 238 396 238 396 211.5 373 c 128,-1,34
 185 350 185 350 177 302 c 1,28,-1
EndSplineSet
Validated: 1
Substitution2: "'sups' Superscript lookup 26 subtable" e.sups
Substitution2: "'smcp' Lowercase to Small Capitals lookup 20 subtable" E.sc
AlternateSubs2: "'aalt' Access All Alternates lookup 1 subtable" E.sc e.sups
EndChar

StartChar: f
Encoding: 102 102 33
Width: 341
GlyphClass: 2
Flags: W
AnchorPoint: "Anchor-4" 164 -22 basechar 0
AnchorPoint: "Anchor-0" 227 741 basechar 0
LayerCount: 2
Fore
SplineSet
90 0 m 1,0,-1
 90 381 l 1,1,-1
 24 381 l 1,2,-1
 24 490 l 1,3,-1
 90 495 l 1,4,-1
 90 522 l 2,5,6
 90 561 90 561 99.5 596 c 128,-1,7
 109 631 109 631 131 657 c 128,-1,8
 153 683 153 683 188 698 c 128,-1,9
 223 713 223 713 273 713 c 0,10,11
 304 713 304 713 329.5 707 c 128,-1,12
 355 701 355 701 372 695 c 1,13,-1
 345 587 l 1,14,15
 317 597 317 597 294 597 c 0,16,17
 267 597 267 597 252 580.5 c 128,-1,18
 237 564 237 564 237 526 c 2,19,-1
 237 496 l 1,20,-1
 326 496 l 1,21,-1
 326 381 l 1,22,-1
 237 381 l 1,23,-1
 237 0 l 1,24,-1
 90 0 l 1,0,-1
EndSplineSet
Validated: 1
Substitution2: "'sups' Superscript lookup 26 subtable" f.sups
Substitution2: "'smcp' Lowercase to Small Capitals lookup 20 subtable" F.sc
AlternateSubs2: "'aalt' Access All Alternates lookup 1 subtable" F.sc f.sups
EndChar

StartChar: g
Encoding: 103 103 34
Width: 583
GlyphClass: 2
Flags: W
AnchorPoint: "Anchor-0" 271 518 basechar 0
AnchorPoint: "Anchor-4" 249 -229 basechar 0
AnchorPoint: "Anchor-1" 151 674 basechar 0
AnchorPoint: "Anchor-8" 131 0 basechar 0
LayerCount: 2
Fore
SplineSet
285 131 m 0,0,1
 309 131 309 131 327.5 141.5 c 128,-1,2
 346 152 346 152 366 178 c 1,3,-1
 366 356 l 1,4,5
 346 374 346 374 325 381 c 128,-1,6
 304 388 304 388 284 388 c 0,7,8
 247 388 247 388 220 355 c 128,-1,9
 193 322 193 322 193 259 c 0,10,11
 193 197 193 197 217.5 164 c 128,-1,12
 242 131 242 131 285 131 c 0,0,1
261 -194 m 0,13,14
 220 -194 220 -194 169.5 -180.5 c 128,-1,15
 119 -167 119 -167 76 -139 c 1,16,-1
 124 -42 l 1,17,18
 159 -62 159 -62 195 -70.5 c 128,-1,19
 231 -79 231 -79 261 -79 c 0,20,21
 316 -79 316 -79 339 -56.5 c 128,-1,22
 362 -34 362 -34 366 1 c 2,23,-1
 370 63 l 1,24,25
 345 40 345 40 313.5 26.5 c 128,-1,26
 282 13 282 13 247 13 c 0,27,28
 201 13 201 13 163.5 31 c 128,-1,29
 126 49 126 49 99.5 81.5 c 128,-1,30
 73 114 73 114 58.5 158.5 c 128,-1,31
 44 203 44 203 44 257 c 0,32,33
 44 314 44 314 62 360.5 c 128,-1,34
 80 407 80 407 109.5 439.5 c 128,-1,35
 139 472 139 472 176.5 490 c 128,-1,36
 214 508 214 508 253 508 c 0,37,38
 291 508 291 508 321.5 494.5 c 128,-1,39
 352 481 352 481 380 450 c 1,40,-1
 384 450 l 1,41,-1
 395 496 l 1,42,-1
 513 496 l 1,43,-1
 513 5 l 2,44,45
 513 -92 513 -92 447.5 -143 c 128,-1,46
 382 -194 382 -194 261 -194 c 0,13,14
EndSplineSet
Validated: 1
Substitution2: "'ss03' Style Set 3 lookup 41 subtable" g.a
Substitution2: "'sups' Superscript lookup 26 subtable" g.sups
Substitution2: "'smcp' Lowercase to Small Capitals lookup 20 subtable" G.sc
AlternateSubs2: "'aalt' Access All Alternates lookup 1 subtable" G.sc g.sups g.a
EndChar

StartChar: h
Encoding: 104 104 35
Width: 571
GlyphClass: 2
Flags: W
AnchorPoint: "Anchor-4" 293 -22 basechar 0
AnchorPoint: "Anchor-0" 137 730 basechar 0
LayerCount: 2
Fore
SplineSet
65 0 m 1,0,-1
 65 701 l 1,1,-1
 212 701 l 1,2,-1
 212 529 l 1,3,-1
 205 440 l 1,4,5
 233 465 233 465 270 486.5 c 128,-1,6
 307 508 307 508 358 508 c 0,7,8
 439 508 439 508 475.5 455 c 128,-1,9
 512 402 512 402 512 308 c 2,10,-1
 512 241 l 1,11,-1
 512 148 l 2,12,13
 512 125 512 125 520.5 116 c 128,-1,14
 529 107 529 107 538 107 c 0,15,16
 543 107 543 107 546.5 107 c 128,-1,17
 550 107 550 107 556 109 c 1,18,-1
 574 0 l 1,19,20
 562 -5 562 -5 543.5 -8.5 c 128,-1,21
 525 -12 525 -12 500 -12 c 0,22,23
 462 -12 462 -12 436 0 c 128,-1,24
 410 12 410 12 394.5 33.5 c 128,-1,25
 379 55 379 55 372 85.5 c 128,-1,26
 365 116 365 116 365 154 c 2,27,-1
 365 160 l 1,28,-1
 365 190 l 1,29,-1
 365 244 l 1,30,-1
 365 289 l 2,31,32
 365 343 365 343 350.5 363 c 128,-1,33
 336 383 336 383 304 383 c 0,34,35
 276 383 276 383 256 370.5 c 128,-1,36
 236 358 236 358 212 335 c 1,37,-1
 212 0 l 1,38,-1
 65 0 l 1,0,-1
EndSplineSet
Validated: 1
Substitution2: "'sups' Superscript lookup 26 subtable" h.sups
Substitution2: "'smcp' Lowercase to Small Capitals lookup 20 subtable" H.sc
AlternateSubs2: "'aalt' Access All Alternates lookup 1 subtable" H.sc h.sups
EndChar

StartChar: i
Encoding: 105 105 36
Width: 276
GlyphClass: 2
Flags: W
AnchorPoint: "Anchor-7" 179 0 basechar 0
AnchorPoint: "Anchor-4" 138 -22 basechar 0
AnchorPoint: "Anchor-0" 138 722 basechar 0
LayerCount: 2
Fore
SplineSet
65 0 m 1,0,-1
 65 496 l 1,1,-1
 212 496 l 1,2,-1
 212 0 l 1,3,-1
 65 0 l 1,0,-1
138 569 m 0,4,5
 101 569 101 569 77 590.5 c 128,-1,6
 53 612 53 612 53 646 c 256,7,8
 53 680 53 680 77 701 c 128,-1,9
 101 722 101 722 138 722 c 0,10,11
 176 722 176 722 199.5 701 c 128,-1,12
 223 680 223 680 223 646 c 256,13,14
 223 612 223 612 199.5 590.5 c 128,-1,15
 176 569 176 569 138 569 c 0,4,5
EndSplineSet
Validated: 1
Substitution2: "'sups' Superscript lookup 26 subtable" i.sups
Substitution2: "'smcp' Lowercase to Small Capitals lookup 20 subtable" I.sc
Substitution2: "'locl' Localized Forms in Latin lookup 2 subtable" i.trk
AlternateSubs2: "'aalt' Access All Alternates lookup 1 subtable" i.trk I.sc i.sups
EndChar

StartChar: j
Encoding: 106 106 37
Width: 278
GlyphClass: 2
Flags: W
AnchorPoint: "Anchor-4" 79 -235 basechar 0
AnchorPoint: "Anchor-0" 141 722 basechar 0
LayerCount: 2
Fore
SplineSet
36 -196 m 0,0,1
 5 -196 5 -196 -15.5 -192 c 128,-1,2
 -36 -188 -36 -188 -51 -182 c 1,3,-1
 -25 -74 l 1,4,5
 -15 -77 -15 -77 -6 -79 c 128,-1,6
 3 -81 3 -81 14 -81 c 0,7,8
 43 -81 43 -81 54.5 -62 c 128,-1,9
 66 -43 66 -43 66 -1 c 2,10,-1
 66 496 l 1,11,-1
 213 496 l 1,12,-1
 213 3 l 2,13,14
 213 -38 213 -38 204.5 -74 c 128,-1,15
 196 -110 196 -110 175.5 -137 c 128,-1,16
 155 -164 155 -164 121 -180 c 128,-1,17
 87 -196 87 -196 36 -196 c 0,0,1
140 569 m 256,18,19
 103 569 103 569 79 590.5 c 128,-1,20
 55 612 55 612 55 646 c 256,21,22
 55 680 55 680 79 701 c 128,-1,23
 103 722 103 722 140 722 c 256,24,25
 177 722 177 722 201 701 c 128,-1,26
 225 680 225 680 225 646 c 256,27,28
 225 612 225 612 201 590.5 c 128,-1,29
 177 569 177 569 140 569 c 256,18,19
EndSplineSet
Validated: 1
Substitution2: "'sups' Superscript lookup 26 subtable" j.sups
Substitution2: "'smcp' Lowercase to Small Capitals lookup 20 subtable" J.sc
AlternateSubs2: "'aalt' Access All Alternates lookup 1 subtable" J.sc j.sups
EndChar

StartChar: k
Encoding: 107 107 38
Width: 548
GlyphClass: 2
Flags: W
AnchorPoint: "Anchor-4" 295 -22 basechar 0
AnchorPoint: "Anchor-0" 140 730 basechar 0
LayerCount: 2
Fore
SplineSet
65 0 m 1,0,-1
 65 701 l 1,1,-1
 208 701 l 1,2,-1
 208 299 l 1,3,-1
 212 299 l 1,4,-1
 369 496 l 1,5,-1
 529 496 l 1,6,-1
 355 292 l 1,7,-1
 542 0 l 1,8,-1
 383 0 l 1,9,-1
 271 193 l 1,10,-1
 208 122 l 1,11,-1
 208 0 l 1,12,-1
 65 0 l 1,0,-1
EndSplineSet
Validated: 1
Substitution2: "'sups' Superscript lookup 26 subtable" k.sups
Substitution2: "'smcp' Lowercase to Small Capitals lookup 20 subtable" K.sc
AlternateSubs2: "'aalt' Access All Alternates lookup 1 subtable" K.sc k.sups
EndChar

StartChar: l
Encoding: 108 108 39
Width: 286
GlyphClass: 2
Flags: W
AnchorPoint: "Anchor-4" 137 -22 basechar 0
AnchorPoint: "Anchor-0" 137 730 basechar 0
LayerCount: 2
Fore
SplineSet
200 -12 m 4,0,1
 162 -12 162 -12 136 0 c 132,-1,2
 110 12 110 12 94.5 33.5 c 132,-1,3
 79 55 79 55 72 85.5 c 132,-1,4
 65 116 65 116 65 154 c 6,5,-1
 65 701 l 5,6,-1
 212 701 l 5,7,-1
 212 148 l 6,8,9
 212 125 212 125 220.5 116 c 132,-1,10
 229 107 229 107 238 107 c 4,11,12
 243 107 243 107 246.5 107 c 132,-1,13
 250 107 250 107 256 109 c 5,14,-1
 274 0 l 5,15,16
 262 -5 262 -5 243.5 -8.5 c 132,-1,17
 225 -12 225 -12 200 -12 c 4,0,1
EndSplineSet
Validated: 1
Substitution2: "'ss01' Style Set 1 lookup 36 subtable" l.a
Substitution2: "'sups' Superscript lookup 26 subtable" l.sups
Substitution2: "'smcp' Lowercase to Small Capitals lookup 20 subtable" L.sc
AlternateSubs2: "'aalt' Access All Alternates lookup 1 subtable" L.sc l.sups l.a
EndChar

StartChar: m
Encoding: 109 109 40
Width: 857
GlyphClass: 2
Flags: W
AnchorPoint: "Anchor-4" 439 -22 basechar 0
AnchorPoint: "Anchor-0" 439 518 basechar 0
LayerCount: 2
Fore
SplineSet
785 -12 m 0,0,1
 747 -12 747 -12 721 0 c 128,-1,2
 695 12 695 12 679.5 33.5 c 128,-1,3
 664 55 664 55 657 85.5 c 128,-1,4
 650 116 650 116 650 154 c 2,5,-1
 650 160 l 1,6,-1
 650 241 l 1,7,-1
 650 289 l 2,8,9
 650 343 650 343 635.5 363 c 128,-1,10
 621 383 621 383 589 383 c 0,11,12
 552 383 552 383 504 335 c 1,13,-1
 504 0 l 1,14,-1
 357 0 l 1,15,-1
 357 289 l 2,16,17
 357 343 357 343 342.5 363 c 128,-1,18
 328 383 328 383 296 383 c 0,19,20
 258 383 258 383 212 335 c 1,21,-1
 212 0 l 1,22,-1
 65 0 l 1,23,-1
 65 496 l 1,24,-1
 185 496 l 1,25,-1
 195 432 l 1,26,-1
 199 432 l 1,27,28
 230 463 230 463 265 485.5 c 128,-1,29
 300 508 300 508 349 508 c 0,30,31
 402 508 402 508 434.5 486.5 c 128,-1,32
 467 465 467 465 486 425 c 1,33,34
 519 459 519 459 555.5 483.5 c 128,-1,35
 592 508 592 508 642 508 c 0,36,37
 722 508 722 508 759.5 454.5 c 128,-1,38
 797 401 797 401 797 308 c 2,39,-1
 797 241 l 1,40,-1
 797 148 l 2,41,42
 797 125 797 125 805.5 116 c 128,-1,43
 814 107 814 107 823 107 c 0,44,45
 828 107 828 107 831.5 107 c 128,-1,46
 835 107 835 107 841 109 c 1,47,-1
 859 0 l 1,48,49
 847 -5 847 -5 828.5 -8.5 c 128,-1,50
 810 -12 810 -12 785 -12 c 0,0,1
EndSplineSet
Validated: 1
Substitution2: "'sups' Superscript lookup 26 subtable" m.sups
Substitution2: "'smcp' Lowercase to Small Capitals lookup 20 subtable" M.sc
AlternateSubs2: "'aalt' Access All Alternates lookup 1 subtable" M.sc m.sups
EndChar

StartChar: n
Encoding: 110 110 41
Width: 572
GlyphClass: 2
Flags: W
AnchorPoint: "Anchor-4" 291 -22 basechar 0
AnchorPoint: "Anchor-0" 308 518 basechar 0
LayerCount: 2
Fore
SplineSet
65 0 m 5,0,-1
 65 496 l 5,1,-1
 185 496 l 5,2,-1
 195 433 l 5,3,-1
 199 433 l 5,4,5
 231 463 231 463 269 485.5 c 132,-1,6
 307 508 307 508 358 508 c 4,7,8
 439 508 439 508 475.5 455 c 132,-1,9
 512 402 512 402 512 308 c 6,10,-1
 512 241 l 5,11,-1
 512 148 l 6,12,13
 512 125 512 125 520.5 116 c 132,-1,14
 529 107 529 107 538 107 c 4,15,16
 543 107 543 107 546.5 107 c 132,-1,17
 550 107 550 107 556 109 c 5,18,-1
 574 0 l 5,19,20
 562 -5 562 -5 543.5 -8.5 c 132,-1,21
 525 -12 525 -12 500 -12 c 4,22,23
 462 -12 462 -12 436 0 c 132,-1,24
 410 12 410 12 394.5 33.5 c 132,-1,25
 379 55 379 55 372 85.5 c 132,-1,26
 365 116 365 116 365 154 c 6,27,-1
 365 160 l 5,28,-1
 365 241 l 5,29,-1
 365 289 l 6,30,31
 365 343 365 343 350.5 363 c 132,-1,32
 336 383 336 383 304 383 c 4,33,34
 276 383 276 383 256 370.5 c 132,-1,35
 236 358 236 358 212 335 c 5,36,-1
 212 0 l 5,37,-1
 65 0 l 5,0,-1
EndSplineSet
Validated: 1
Substitution2: "'sups' Superscript lookup 26 subtable" n.sups
Substitution2: "'smcp' Lowercase to Small Capitals lookup 20 subtable" N.sc
AlternateSubs2: "'aalt' Access All Alternates lookup 1 subtable" N.sc n.sups
EndChar

StartChar: o
Encoding: 111 111 42
Width: 555
GlyphClass: 2
Flags: W
AnchorPoint: "Anchor-7" 330 0 basechar 0
AnchorPoint: "Anchor-6" 371 496 basechar 0
AnchorPoint: "Anchor-4" 278 -22 basechar 0
AnchorPoint: "Anchor-0" 278 518 basechar 0
LayerCount: 2
Fore
SplineSet
278 -12 m 256,0,1
 231 -12 231 -12 187 5.5 c 128,-1,2
 143 23 143 23 109.5 56 c 128,-1,3
 76 89 76 89 56 137.5 c 128,-1,4
 36 186 36 186 36 248 c 256,5,6
 36 310 36 310 56 358.5 c 128,-1,7
 76 407 76 407 109.5 440 c 128,-1,8
 143 473 143 473 187 490.5 c 128,-1,9
 231 508 231 508 278 508 c 256,10,11
 325 508 325 508 368.5 490.5 c 128,-1,12
 412 473 412 473 445.5 440 c 128,-1,13
 479 407 479 407 499 358.5 c 128,-1,14
 519 310 519 310 519 248 c 256,15,16
 519 186 519 186 499 137.5 c 128,-1,17
 479 89 479 89 445.5 56 c 128,-1,18
 412 23 412 23 368.5 5.5 c 128,-1,19
 325 -12 325 -12 278 -12 c 256,0,1
278 107 m 0,20,21
 323 107 323 107 346 145 c 128,-1,22
 369 183 369 183 369 248 c 256,23,24
 369 313 369 313 346 351 c 128,-1,25
 323 389 323 389 278 389 c 0,26,27
 232 389 232 389 209.5 351 c 128,-1,28
 187 313 187 313 187 248 c 256,29,30
 187 183 187 183 209.5 145 c 128,-1,31
 232 107 232 107 278 107 c 0,20,21
EndSplineSet
Validated: 1
Substitution2: "'sups' Superscript lookup 26 subtable" o.sups
Substitution2: "'smcp' Lowercase to Small Capitals lookup 20 subtable" O.sc
AlternateSubs2: "'aalt' Access All Alternates lookup 1 subtable" O.sc o.sups
EndChar

StartChar: p
Encoding: 112 112 43
Width: 573
GlyphClass: 2
Flags: W
AnchorPoint: "Anchor-4" 130 -218 basechar 0
AnchorPoint: "Anchor-0" 308 518 basechar 0
LayerCount: 2
Fore
SplineSet
65 -184 m 1,0,-1
 65 496 l 1,1,-1
 185 496 l 1,2,-1
 195 447 l 1,3,-1
 199 447 l 1,4,5
 228 473 228 473 264.5 490.5 c 128,-1,6
 301 508 301 508 340 508 c 0,7,8
 385 508 385 508 421 490 c 128,-1,9
 457 472 457 472 482 439 c 128,-1,10
 507 406 507 406 520.5 359.5 c 128,-1,11
 534 313 534 313 534 256 c 0,12,13
 534 192 534 192 516.5 142.5 c 128,-1,14
 499 93 499 93 469.5 58.5 c 128,-1,15
 440 24 440 24 402.5 6 c 128,-1,16
 365 -12 365 -12 325 -12 c 0,17,18
 293 -12 293 -12 263 1.5 c 128,-1,19
 233 15 233 15 207 40 c 1,20,-1
 212 -39 l 1,21,-1
 212 -184 l 1,22,-1
 65 -184 l 1,0,-1
291 108 m 0,23,24
 329 108 329 108 356 142.5 c 128,-1,25
 383 177 383 177 383 254 c 0,26,27
 383 388 383 388 297 388 c 0,28,29
 254 388 254 388 212 343 c 1,30,-1
 212 140 l 1,31,32
 232 122 232 122 252 115 c 128,-1,33
 272 108 272 108 291 108 c 0,23,24
EndSplineSet
Validated: 1
Substitution2: "'sups' Superscript lookup 26 subtable" p.sups
Substitution2: "'smcp' Lowercase to Small Capitals lookup 20 subtable" P.sc
AlternateSubs2: "'aalt' Access All Alternates lookup 1 subtable" P.sc p.sups
EndChar

StartChar: q
Encoding: 113 113 44
Width: 573
GlyphClass: 2
Flags: W
AnchorPoint: "Anchor-4" 430 -218 basechar 0
AnchorPoint: "Anchor-0" 292 518 basechar 0
LayerCount: 2
Fore
SplineSet
496 -196 m 0,0,1
 458 -196 458 -196 432 -184 c 128,-1,2
 406 -172 406 -172 390.5 -150.5 c 128,-1,3
 375 -129 375 -129 368 -98.5 c 128,-1,4
 361 -68 361 -68 361 -30 c 2,5,-1
 367 43 l 1,6,7
 342 19 342 19 309 3.5 c 128,-1,8
 276 -12 276 -12 242 -12 c 0,9,10
 196 -12 196 -12 158.5 6 c 128,-1,11
 121 24 121 24 94.5 57.5 c 128,-1,12
 68 91 68 91 53.5 139 c 128,-1,13
 39 187 39 187 39 248 c 128,-1,14
 39 309 39 309 56.5 357 c 128,-1,15
 74 405 74 405 102.5 438.5 c 128,-1,16
 131 472 131 472 168.5 490 c 128,-1,17
 206 508 206 508 245 508 c 0,18,19
 286 508 286 508 317 493.5 c 128,-1,20
 348 479 348 479 377 447 c 1,21,-1
 381 447 l 1,22,-1
 393 496 l 1,23,-1
 508 496 l 1,24,-1
 508 57 l 1,25,-1
 508 -36 l 2,26,27
 508 -59 508 -59 516.5 -68 c 128,-1,28
 525 -77 525 -77 534 -77 c 0,29,30
 539 -77 539 -77 542.5 -77 c 128,-1,31
 546 -77 546 -77 552 -75 c 1,32,-1
 570 -184 l 1,33,34
 558 -189 558 -189 539.5 -192.5 c 128,-1,35
 521 -196 521 -196 496 -196 c 0,0,1
280 108 m 0,36,37
 304 108 304 108 323.5 118 c 128,-1,38
 343 128 343 128 361 153 c 1,39,-1
 361 356 l 1,40,41
 341 374 341 374 320 381 c 128,-1,42
 299 388 299 388 279 388 c 0,43,44
 244 388 244 388 217 354.5 c 128,-1,45
 190 321 190 321 190 250 c 0,46,47
 190 176 190 176 213.5 142 c 128,-1,48
 237 108 237 108 280 108 c 0,36,37
EndSplineSet
Validated: 1
Substitution2: "'sups' Superscript lookup 26 subtable" q.sups
Substitution2: "'smcp' Lowercase to Small Capitals lookup 20 subtable" Q.sc
AlternateSubs2: "'aalt' Access All Alternates lookup 1 subtable" Q.sc q.sups
EndChar

StartChar: r
Encoding: 114 114 45
Width: 398
GlyphClass: 2
Flags: W
AnchorPoint: "Anchor-4" 138 -22 basechar 0
AnchorPoint: "Anchor-0" 246 518 basechar 0
LayerCount: 2
Fore
SplineSet
65 0 m 1,0,-1
 65 496 l 1,1,-1
 185 496 l 1,2,-1
 195 409 l 1,3,-1
 199 409 l 1,4,5
 226 460 226 460 264 484 c 128,-1,6
 302 508 302 508 340 508 c 0,7,8
 361 508 361 508 374.5 505.5 c 128,-1,9
 388 503 388 503 399 498 c 1,10,-1
 375 371 l 1,11,12
 361 375 361 375 349 377 c 128,-1,13
 337 379 337 379 321 379 c 0,14,15
 293 379 293 379 262.5 359 c 128,-1,16
 232 339 232 339 212 288 c 1,17,-1
 212 0 l 1,18,-1
 65 0 l 1,0,-1
EndSplineSet
Validated: 1
Substitution2: "'sups' Superscript lookup 26 subtable" r.sups
Substitution2: "'smcp' Lowercase to Small Capitals lookup 20 subtable" R.sc
AlternateSubs2: "'aalt' Access All Alternates lookup 1 subtable" R.sc r.sups
EndChar

StartChar: s
Encoding: 115 115 46
Width: 443
GlyphClass: 2
Flags: W
AnchorPoint: "Anchor-4" 232 -22 basechar 0
AnchorPoint: "Anchor-3" 232 0 basechar 0
AnchorPoint: "Anchor-0" 236 518 basechar 0
LayerCount: 2
Fore
SplineSet
211 -12 m 0,0,1
 162 -12 162 -12 110.5 7 c 128,-1,2
 59 26 59 26 21 57 c 1,3,-1
 87 149 l 1,4,5
 121 123 121 123 152 110 c 128,-1,6
 183 97 183 97 215 97 c 0,7,8
 248 97 248 97 263 108 c 128,-1,9
 278 119 278 119 278 139 c 0,10,11
 278 151 278 151 269.5 160.5 c 128,-1,12
 261 170 261 170 246.5 178 c 128,-1,13
 232 186 232 186 214 192.5 c 128,-1,14
 196 199 196 199 177 207 c 0,15,16
 154 216 154 216 131 228 c 128,-1,17
 108 240 108 240 89 257.5 c 128,-1,18
 70 275 70 275 58 298.5 c 128,-1,19
 46 322 46 322 46 353 c 0,20,21
 46 387 46 387 59.5 416 c 128,-1,22
 73 445 73 445 98 465 c 128,-1,23
 123 485 123 485 158 496.5 c 128,-1,24
 193 508 193 508 236 508 c 0,25,26
 293 508 293 508 336 488.5 c 128,-1,27
 379 469 379 469 411 445 c 1,28,-1
 345 357 l 1,29,30
 318 377 318 377 292 388 c 128,-1,31
 266 399 266 399 240 399 c 0,32,33
 184 399 184 399 184 360 c 0,34,35
 184 348 184 348 192 339.5 c 128,-1,36
 200 331 200 331 213.5 324 c 128,-1,37
 227 317 227 317 244.5 310.5 c 128,-1,38
 262 304 262 304 281 297 c 0,39,40
 305 288 305 288 328.5 276.5 c 128,-1,41
 352 265 352 265 371.5 248 c 128,-1,42
 391 231 391 231 403 206.5 c 128,-1,43
 415 182 415 182 415 148 c 256,44,45
 415 114 415 114 402 85 c 128,-1,46
 389 56 389 56 363 34.5 c 128,-1,47
 337 13 337 13 299 0.5 c 128,-1,48
 261 -12 261 -12 211 -12 c 0,0,1
EndSplineSet
Validated: 1
Substitution2: "'sups' Superscript lookup 26 subtable" s.sups
Substitution2: "'smcp' Lowercase to Small Capitals lookup 20 subtable" S.sc
AlternateSubs2: "'aalt' Access All Alternates lookup 1 subtable" S.sc s.sups
EndChar

StartChar: t
Encoding: 116 116 47
Width: 383
GlyphClass: 2
Flags: W
AnchorPoint: "Anchor-4" 235 -22 basechar 0
AnchorPoint: "Anchor-3" 237 0 basechar 0
AnchorPoint: "Anchor-0" 167 658 basechar 0
LayerCount: 2
Fore
SplineSet
256 -12 m 0,0,1
 210 -12 210 -12 177.5 2 c 128,-1,2
 145 16 145 16 124.5 41 c 128,-1,3
 104 66 104 66 94.5 101.5 c 128,-1,4
 85 137 85 137 85 180 c 2,5,-1
 85 381 l 1,6,-1
 17 381 l 1,7,-1
 17 490 l 1,8,-1
 93 496 l 1,9,-1
 110 628 l 1,10,-1
 232 628 l 1,11,-1
 232 496 l 1,12,-1
 351 496 l 1,13,-1
 351 381 l 1,14,-1
 232 381 l 1,15,-1
 232 182 l 2,16,17
 232 140 232 140 249.5 121.5 c 128,-1,18
 267 103 267 103 296 103 c 0,19,20
 308 103 308 103 320.5 106 c 128,-1,21
 333 109 333 109 343 113 c 1,22,-1
 366 6 l 1,23,24
 346 0 346 0 319 -6 c 128,-1,25
 292 -12 292 -12 256 -12 c 0,0,1
EndSplineSet
Validated: 1
Substitution2: "'sups' Superscript lookup 26 subtable" t.sups
Substitution2: "'smcp' Lowercase to Small Capitals lookup 20 subtable" T.sc
AlternateSubs2: "'aalt' Access All Alternates lookup 1 subtable" T.sc t.sups
EndChar

StartChar: u
Encoding: 117 117 48
Width: 568
GlyphClass: 2
Flags: W
AnchorPoint: "Anchor-7" 455 0 basechar 0
AnchorPoint: "Anchor-6" 431 506 basechar 0
AnchorPoint: "Anchor-4" 303 -22 basechar 0
AnchorPoint: "Anchor-0" 285 518 basechar 0
LayerCount: 2
Fore
SplineSet
214 -12 m 0,0,1
 133 -12 133 -12 96.5 41 c 128,-1,2
 60 94 60 94 60 188 c 2,3,-1
 60 496 l 1,4,-1
 207 496 l 1,5,-1
 207 207 l 2,6,7
 207 153 207 153 222 133 c 128,-1,8
 237 113 237 113 269 113 c 0,9,10
 297 113 297 113 316 126 c 128,-1,11
 335 139 335 139 357 168 c 1,12,-1
 357 496 l 1,13,-1
 504 496 l 1,14,-1
 504 159 l 1,15,-1
 504 148 l 2,16,17
 504 125 504 125 512.5 116 c 128,-1,18
 521 107 521 107 530 107 c 0,19,20
 535 107 535 107 538.5 107 c 128,-1,21
 542 107 542 107 548 109 c 1,22,-1
 566 0 l 1,23,24
 554 -5 554 -5 535.5 -8.5 c 128,-1,25
 517 -12 517 -12 492 -12 c 0,26,27
 457 -12 457 -12 431 0 c 128,-1,28
 405 12 405 12 389.5 33.5 c 0,29,30
 378.889426291 47.7693922292 378.889426291 47.7693922292 372.294938472 69 c 1,31,-1
 370 69 l 1,32,33
 338 31 338 31 301.5 9.5 c 128,-1,34
 265 -12 265 -12 214 -12 c 0,0,1
EndSplineSet
Validated: 1
Substitution2: "'sups' Superscript lookup 26 subtable" u.sups
Substitution2: "'smcp' Lowercase to Small Capitals lookup 20 subtable" U.sc
AlternateSubs2: "'aalt' Access All Alternates lookup 1 subtable" U.sc u.sups
EndChar

StartChar: v
Encoding: 118 118 49
Width: 523
GlyphClass: 2
Flags: W
AnchorPoint: "Anchor-4" 263 -22 basechar 0
AnchorPoint: "Anchor-0" 263 518 basechar 0
LayerCount: 2
Fore
SplineSet
179 0 m 1,0,-1
 12 496 l 1,1,-1
 160 496 l 1,2,-1
 224 262 l 2,3,4
 234 225 234 225 243.5 186.5 c 128,-1,5
 253 148 253 148 263 109 c 1,6,-1
 267 109 l 1,7,8
 276 148 276 148 285.5 186.5 c 128,-1,9
 295 225 295 225 305 262 c 2,10,-1
 370 496 l 1,11,-1
 511 496 l 1,12,-1
 349 0 l 1,13,-1
 179 0 l 1,0,-1
EndSplineSet
Validated: 1
Substitution2: "'sups' Superscript lookup 26 subtable" v.sups
Substitution2: "'smcp' Lowercase to Small Capitals lookup 20 subtable" V.sc
AlternateSubs2: "'aalt' Access All Alternates lookup 1 subtable" V.sc v.sups
EndChar

StartChar: w
Encoding: 119 119 50
Width: 776
GlyphClass: 2
Flags: W
AnchorPoint: "Anchor-4" 389 -22 basechar 0
AnchorPoint: "Anchor-0" 389 518 basechar 0
LayerCount: 2
Fore
SplineSet
148 0 m 1,0,-1
 24 496 l 1,1,-1
 170 496 l 1,2,-1
 218 266 l 2,3,4
 224 229 224 229 229 193 c 128,-1,5
 234 157 234 157 240 119 c 1,6,-1
 244 119 l 1,7,8
 251 157 251 157 257.5 194 c 128,-1,9
 264 231 264 231 273 266 c 2,10,-1
 328 496 l 1,11,-1
 455 496 l 1,12,-1
 511 266 l 2,13,14
 520 229 520 229 527 193 c 128,-1,15
 534 157 534 157 542 119 c 1,16,-1
 546 119 l 1,17,18
 553 157 553 157 557.5 193 c 128,-1,19
 562 229 562 229 569 266 c 2,20,-1
 616 496 l 1,21,-1
 752 496 l 1,22,-1
 633 0 l 1,23,-1
 461 0 l 1,24,-1
 416 198 l 2,25,26
 408 233 408 233 402 268 c 128,-1,27
 396 303 396 303 389 343 c 1,28,-1
 385 343 l 1,29,30
 378 303 378 303 372.5 268 c 128,-1,31
 367 233 367 233 360 198 c 2,32,-1
 316 0 l 1,33,-1
 148 0 l 1,0,-1
EndSplineSet
Validated: 1
Substitution2: "'sups' Superscript lookup 26 subtable" w.sups
Substitution2: "'smcp' Lowercase to Small Capitals lookup 20 subtable" W.sc
AlternateSubs2: "'aalt' Access All Alternates lookup 1 subtable" W.sc w.sups
EndChar

StartChar: x
Encoding: 120 120 51
Width: 514
GlyphClass: 2
Flags: W
AnchorPoint: "Anchor-4" 257 -22 basechar 0
AnchorPoint: "Anchor-0" 257 518 basechar 0
LayerCount: 2
Fore
SplineSet
14 0 m 1,0,-1
 166 258 l 1,1,-1
 23 496 l 1,2,-1
 181 496 l 1,3,-1
 225 416 l 2,4,5
 235 395 235 395 245.5 373.5 c 128,-1,6
 256 352 256 352 267 331 c 1,7,-1
 271 331 l 1,8,9
 279 352 279 352 288 373.5 c 128,-1,10
 297 395 297 395 305 416 c 2,11,-1
 339 496 l 1,12,-1
 491 496 l 1,13,-1
 347 241 l 1,14,-1
 500 0 l 1,15,-1
 342 0 l 1,16,-1
 294 82 l 2,17,18
 282 103 282 103 270.5 125 c 128,-1,19
 259 147 259 147 247 168 c 1,20,-1
 243 168 l 1,21,22
 234 147 234 147 224 125.5 c 128,-1,23
 214 104 214 104 205 82 c 2,24,-1
 166 0 l 1,25,-1
 14 0 l 1,0,-1
EndSplineSet
Validated: 1
Substitution2: "'sups' Superscript lookup 26 subtable" x.sups
Substitution2: "'smcp' Lowercase to Small Capitals lookup 20 subtable" X.sc
AlternateSubs2: "'aalt' Access All Alternates lookup 1 subtable" X.sc x.sups
EndChar

StartChar: y
Encoding: 121 121 52
Width: 521
GlyphClass: 2
Flags: W
AnchorPoint: "Anchor-4" 227 -241 basechar 0
AnchorPoint: "Anchor-0" 267 518 basechar 0
LayerCount: 2
Fore
SplineSet
120 -194 m 0,0,1
 97 -194 97 -194 81 -191.5 c 128,-1,2
 65 -189 65 -189 50 -184 c 1,3,-1
 76 -72 l 1,4,5
 83 -74 83 -74 92 -76 c 128,-1,6
 101 -78 101 -78 109 -78 c 0,7,8
 146 -78 146 -78 166 -60 c 128,-1,9
 186 -42 186 -42 196 -13 c 2,10,-1
 203 13 l 1,11,-1
 12 496 l 1,12,-1
 160 496 l 1,13,-1
 231 283 l 2,14,15
 242 249 242 249 251 214 c 128,-1,16
 260 179 260 179 270 142 c 1,17,-1
 274 142 l 1,18,19
 282 177 282 177 290.5 212.5 c 128,-1,20
 299 248 299 248 308 283 c 2,21,-1
 368 496 l 1,22,-1
 509 496 l 1,23,-1
 337 -5 l 2,24,25
 319 -52 319 -52 299.5 -87.5 c 128,-1,26
 280 -123 280 -123 254.5 -146.5 c 128,-1,27
 229 -170 229 -170 196.5 -182 c 128,-1,28
 164 -194 164 -194 120 -194 c 0,0,1
EndSplineSet
Validated: 1
Substitution2: "'sups' Superscript lookup 26 subtable" y.sups
Substitution2: "'smcp' Lowercase to Small Capitals lookup 20 subtable" Y.sc
AlternateSubs2: "'aalt' Access All Alternates lookup 1 subtable" Y.sc y.sups
EndChar

StartChar: z
Encoding: 122 122 53
Width: 460
GlyphClass: 2
Flags: W
AnchorPoint: "Anchor-4" 245 -22 basechar 0
AnchorPoint: "Anchor-0" 246 518 basechar 0
LayerCount: 2
Fore
SplineSet
38 0 m 1,0,-1
 38 79 l 1,1,-1
 246 381 l 1,2,-1
 61 381 l 1,3,-1
 61 496 l 1,4,-1
 429 496 l 1,5,-1
 429 418 l 1,6,-1
 221 115 l 1,7,-1
 436 115 l 1,8,-1
 436 0 l 1,9,-1
 38 0 l 1,0,-1
EndSplineSet
Validated: 1
Substitution2: "'sups' Superscript lookup 26 subtable" z.sups
Substitution2: "'smcp' Lowercase to Small Capitals lookup 20 subtable" Z.sc
AlternateSubs2: "'aalt' Access All Alternates lookup 1 subtable" Z.sc z.sups
EndChar

StartChar: Aogonek
Encoding: 260 260 75
Width: 573
GlyphClass: 2
Flags: W
AnchorPoint: "Anchor-1" 286 674 basechar 0
LayerCount: 2
Fore
SplineSet
496 -223 m 0,0,1
 448 -223 448 -223 415 -198.5 c 128,-1,2
 382 -174 382 -174 382 -129 c 0,3,4
 382 -106 382 -106 390 -85.5 c 128,-1,5
 398 -65 398 -65 410 -48.5 c 128,-1,6
 422 -32 422 -32 436.5 -19.5 c 128,-1,7
 451 -7 451 -7 463 0 c 1,8,-1
 423 0 l 1,9,-1
 383 155 l 1,10,-1
 184 155 l 1,11,-1
 144 0 l 1,12,-1
 -6 0 l 1,13,-1
 198 652 l 1,14,-1
 375 652 l 1,15,-1
 579 0 l 1,16,17
 558 -2 558 -2 541.5 -10.5 c 128,-1,18
 525 -19 525 -19 513.5 -32 c 128,-1,19
 502 -45 502 -45 495.5 -60 c 128,-1,20
 489 -75 489 -75 489 -90 c 0,21,22
 489 -109 489 -109 500.5 -118.5 c 128,-1,23
 512 -128 512 -128 528 -128 c 0,24,25
 539 -128 539 -128 549 -123.5 c 128,-1,26
 559 -119 559 -119 567 -114 c 1,27,-1
 601 -188 l 1,28,29
 581 -203 581 -203 551.5 -213 c 128,-1,30
 522 -223 522 -223 496 -223 c 0,0,1
230 330 m 2,31,-1
 214 270 l 1,32,-1
 353 270 l 1,33,-1
 338 330 l 2,34,35
 324 379 324 379 311 434 c 128,-1,36
 298 489 298 489 285 540 c 1,37,-1
 281 540 l 1,38,39
 269 488 269 488 256.5 433.5 c 128,-1,40
 244 379 244 379 230 330 c 2,31,-1
EndSplineSet
Validated: 1
Substitution2: "'c2sc' Capitals to Small Capitals lookup 17 subtable" Aogonek.sc
Ligature2: "'ccmp' Glyph Composition/Decomposition lookup 11 subtable" A uni0328
Substitution2: "'aalt' Access All Alternates lookup 0 subtable" Aogonek.sc
EndChar

StartChar: AE
Encoding: 198 198 76
Width: 845
GlyphClass: 2
Flags: W
AnchorPoint: "Anchor-1" 537 694 basechar 0
LayerCount: 2
Fore
SplineSet
303 356 m 2,0,-1
 261 263 l 1,1,-1
 386 263 l 1,2,-1
 386 541 l 1,3,-1
 382 541 l 1,4,5
 362 493 362 493 342.5 446 c 128,-1,6
 323 399 323 399 303 356 c 2,0,-1
-14 0 m 1,7,-1
 296 652 l 1,8,-1
 783 652 l 1,9,-1
 783 528 l 1,10,-1
 533 528 l 1,11,-1
 533 397 l 1,12,-1
 744 397 l 1,13,-1
 744 274 l 1,14,-1
 533 274 l 1,15,-1
 533 124 l 1,16,-1
 793 124 l 1,17,-1
 793 0 l 1,18,-1
 386 0 l 1,19,-1
 386 149 l 1,20,-1
 209 149 l 1,21,-1
 141 0 l 1,22,-1
 -14 0 l 1,7,-1
EndSplineSet
Validated: 1
Substitution2: "'c2sc' Capitals to Small Capitals lookup 17 subtable" AE.sc
Substitution2: "'aalt' Access All Alternates lookup 0 subtable" AE.sc
EndChar

StartChar: uni0243
Encoding: 579 579 79
Width: 628
Flags: W
LayerCount: 2
Fore
SplineSet
100 0 m 1,0,-1
 100 175 l 1,1,-1
 26 175 l 1,2,-1
 26 240 l 1,3,-1
 100 246 l 1,4,-1
 100 652 l 1,5,-1
 324 652 l 2,6,7
 375 652 375 652 418.5 644 c 128,-1,8
 462 636 462 636 494.5 617.5 c 128,-1,9
 527 599 527 599 545.5 569 c 128,-1,10
 564 539 564 539 564 495 c 0,11,12
 564 454 564 454 538 417 c 128,-1,13
 512 380 512 380 454 366 c 1,14,-1
 454 362 l 1,15,16
 524 348 524 348 560 308.5 c 128,-1,17
 596 269 596 269 596 200 c 0,18,19
 596 148 596 148 576.5 110.5 c 128,-1,20
 557 73 557 73 522.5 48.5 c 128,-1,21
 488 24 488 24 441.5 12 c 128,-1,22
 395 0 395 0 342 0 c 2,23,-1
 100 0 l 1,0,-1
248 397 m 1,24,-1
 317 397 l 2,25,26
 371 397 371 397 397 418.5 c 128,-1,27
 423 440 423 440 423 478 c 0,28,29
 423 514 423 514 396 530 c 128,-1,30
 369 546 369 546 318 546 c 2,31,-1
 248 546 l 1,32,-1
 248 397 l 1,24,-1
248 105 m 1,33,-1
 330 105 l 2,34,35
 390 105 390 105 422.5 132 c 128,-1,36
 455 159 455 159 455 211 c 256,37,38
 455 263 455 263 423 286.5 c 128,-1,39
 391 310 391 310 330 310 c 2,40,-1
 248 310 l 1,41,-1
 248 246 l 1,42,-1
 374 246 l 1,43,-1
 374 175 l 1,44,-1
 248 175 l 1,45,-1
 248 105 l 1,33,-1
EndSplineSet
Validated: 1
Substitution2: "'c2sc' Capitals to Small Capitals lookup 17 subtable" uni0243.sc
Substitution2: "'aalt' Access All Alternates lookup 0 subtable" uni0243.sc
EndChar

StartChar: Eogonek
Encoding: 280 280 106
Width: 548
GlyphClass: 2
Flags: W
AnchorPoint: "Anchor-1" 289 674 basechar 0
LayerCount: 2
Fore
SplineSet
411 -223 m 0,0,1
 363 -223 363 -223 329.5 -198.5 c 128,-1,2
 296 -174 296 -174 296 -129 c 0,3,4
 296 -106 296 -106 303.5 -86 c 128,-1,5
 311 -66 311 -66 322.5 -49.5 c 128,-1,6
 334 -33 334 -33 348 -20.5 c 128,-1,7
 362 -8 362 -8 375 0 c 1,8,-1
 77 0 l 1,9,-1
 77 652 l 1,10,-1
 485 652 l 1,11,-1
 485 528 l 1,12,-1
 224 528 l 1,13,-1
 224 397 l 1,14,-1
 446 397 l 1,15,-1
 446 274 l 1,16,-1
 224 274 l 1,17,-1
 224 124 l 1,18,-1
 495 124 l 1,19,-1
 495 0 l 1,20,-1
 490 0 l 2,21,22
 473 -1 473 -1 457.5 -9 c 128,-1,23
 442 -17 442 -17 430 -29.5 c 128,-1,24
 418 -42 418 -42 411 -58 c 128,-1,25
 404 -74 404 -74 404 -90 c 0,26,27
 404 -110 404 -110 417 -119 c 128,-1,28
 430 -128 430 -128 446 -128 c 0,29,30
 456 -128 456 -128 465 -123.5 c 128,-1,31
 474 -119 474 -119 482 -114 c 1,32,-1
 516 -188 l 1,33,34
 496 -203 496 -203 466.5 -213 c 128,-1,35
 437 -223 437 -223 411 -223 c 0,0,1
EndSplineSet
Validated: 1
Substitution2: "'c2sc' Capitals to Small Capitals lookup 17 subtable" Eogonek.sc
Ligature2: "'ccmp' Glyph Composition/Decomposition lookup 11 subtable" E uni0328
Substitution2: "'aalt' Access All Alternates lookup 0 subtable" Eogonek.sc
EndChar

StartChar: uni0193
Encoding: 403 403 116
Width: 638
Flags: W
LayerCount: 2
Fore
SplineSet
365 -12 m 0,0,1
 298 -12 298 -12 239.5 9.5 c 128,-1,2
 181 31 181 31 138 73 c 128,-1,3
 95 115 95 115 70.5 177.5 c 128,-1,4
 46 240 46 240 46 322 c 0,5,6
 46 403 46 403 71 466.5 c 128,-1,7
 96 530 96 530 139.5 574 c 128,-1,8
 183 618 183 618 241 641 c 128,-1,9
 299 664 299 664 364 664 c 0,10,11
 378 664 378 664 391 663 c 128,-1,12
 404 662 404 662 416 660 c 1,13,14
 416 665 416 665 415.5 668.5 c 128,-1,15
 415 672 415 672 415 677 c 0,16,17
 415 706 415 706 424.5 731.5 c 128,-1,18
 434 757 434 757 452.5 776.5 c 128,-1,19
 471 796 471 796 498 807 c 128,-1,20
 525 818 525 818 559 818 c 0,21,22
 590 818 590 818 609.5 814 c 128,-1,23
 629 810 629 810 644 805 c 1,24,-1
 618 696 l 1,25,26
 610 699 610 699 604 701 c 128,-1,27
 598 703 598 703 590 703 c 0,28,29
 567 703 567 703 553 690.5 c 128,-1,30
 539 678 539 678 539 655 c 0,31,32
 539 635 539 635 548 620.5 c 128,-1,33
 557 606 557 606 569 591 c 1,34,-1
 492 496 l 1,35,36
 467 513 467 513 439 525 c 128,-1,37
 411 537 411 537 369 537 c 0,38,39
 331 537 331 537 299.5 522.5 c 128,-1,40
 268 508 268 508 245 481 c 128,-1,41
 222 454 222 454 209.5 415 c 128,-1,42
 197 376 197 376 197 327 c 0,43,44
 197 226 197 226 242.5 170.5 c 128,-1,45
 288 115 288 115 380 115 c 0,46,47
 400 115 400 115 419 120 c 128,-1,48
 438 125 438 125 450 135 c 1,49,-1
 450 247 l 1,50,-1
 342 247 l 1,51,-1
 342 367 l 1,52,-1
 580 367 l 1,53,-1
 580 67 l 1,54,55
 546 34 546 34 490 11 c 128,-1,56
 434 -12 434 -12 365 -12 c 0,0,1
EndSplineSet
Validated: 1
Substitution2: "'c2sc' Capitals to Small Capitals lookup 17 subtable" uni0193.sc
Substitution2: "'aalt' Access All Alternates lookup 0 subtable" uni0193.sc
EndChar

StartChar: Hbar
Encoding: 294 294 120
Width: 712
Flags: W
LayerCount: 2
Fore
SplineSet
25 486 m 1,0,-1
 25 551 l 1,1,-1
 97 557 l 1,2,-1
 97 652 l 1,3,-1
 244 652 l 1,4,-1
 244 557 l 1,5,-1
 469 557 l 1,6,-1
 469 652 l 1,7,-1
 617 652 l 1,8,-1
 617 557 l 1,9,-1
 687 557 l 1,10,-1
 687 486 l 1,11,-1
 617 486 l 1,12,-1
 617 0 l 1,13,-1
 469 0 l 1,14,-1
 469 272 l 1,15,-1
 244 272 l 1,16,-1
 244 0 l 1,17,-1
 97 0 l 1,18,-1
 97 486 l 1,19,-1
 25 486 l 1,0,-1
244 401 m 1,20,-1
 469 401 l 1,21,-1
 469 486 l 1,22,-1
 244 486 l 1,23,-1
 244 401 l 1,20,-1
EndSplineSet
Validated: 1
Substitution2: "'c2sc' Capitals to Small Capitals lookup 17 subtable" Hbar.sc
Substitution2: "'aalt' Access All Alternates lookup 0 subtable" Hbar.sc
EndChar

StartChar: Iogonek
Encoding: 302 302 131
Width: 396
GlyphClass: 2
Flags: W
AnchorPoint: "Anchor-1" 151 674 basechar 0
LayerCount: 2
Fore
SplineSet
204 -223 m 4,0,1
 156 -223 156 -223 122.5 -198.5 c 132,-1,2
 89 -174 89 -174 89 -129 c 4,3,4
 89 -106 89 -106 96.5 -86 c 132,-1,5
 104 -66 104 -66 115 -49.5 c 132,-1,6
 126 -33 126 -33 138.5 -20.5 c 132,-1,7
 151 -8 151 -8 161 0 c 5,8,-1
 52 0 l 5,9,-1
 52 124 l 5,10,-1
 124 124 l 5,11,-1
 124 528 l 5,12,-1
 52 528 l 5,13,-1
 52 652 l 5,14,-1
 344 652 l 5,15,-1
 344 528 l 5,16,-1
 271 528 l 5,17,-1
 271 124 l 5,18,-1
 344 124 l 5,19,-1
 344 0 l 5,20,-1
 251 0 l 5,21,22
 225 -21 225 -21 211 -44 c 132,-1,23
 197 -67 197 -67 197 -90 c 4,24,25
 197 -110 197 -110 210 -119 c 132,-1,26
 223 -128 223 -128 239 -128 c 4,27,28
 249 -128 249 -128 258 -123.5 c 132,-1,29
 267 -119 267 -119 275 -114 c 5,30,-1
 308 -188 l 5,31,32
 289 -203 289 -203 259.5 -213 c 132,-1,33
 230 -223 230 -223 204 -223 c 4,0,1
EndSplineSet
Validated: 1
Substitution2: "'ss04' Style Set 4 lookup 43 subtable" Iogonek.a
Substitution2: "'c2sc' Capitals to Small Capitals lookup 17 subtable" Iogonek.sc
Ligature2: "'ccmp' Glyph Composition/Decomposition lookup 11 subtable" I uni0328
AlternateSubs2: "'aalt' Access All Alternates lookup 1 subtable" Iogonek.sc Iogonek.a
EndChar

StartChar: Lslash
Encoding: 321 321 144
Width: 524
Flags: W
LayerCount: 2
Fore
SplineSet
27 176 m 1,0,-1
 -23 264 l 1,1,-1
 84 324 l 1,2,-1
 84 652 l 1,3,-1
 231 652 l 1,4,-1
 231 392 l 1,5,-1
 389 479 l 1,6,-1
 439 391 l 1,7,-1
 231 278 l 1,8,-1
 231 124 l 1,9,-1
 489 124 l 1,10,-1
 489 0 l 1,11,-1
 84 0 l 1,12,-1
 84 210 l 1,13,-1
 27 176 l 1,0,-1
EndSplineSet
Validated: 1
Substitution2: "'c2sc' Capitals to Small Capitals lookup 17 subtable" Lslash.sc
Substitution2: "'aalt' Access All Alternates lookup 0 subtable" Lslash.sc
EndChar

StartChar: Oslash
Encoding: 216 216 173
Width: 684
GlyphClass: 2
Flags: W
AnchorPoint: "Anchor-1" 350 674 basechar 0
LayerCount: 2
Fore
SplineSet
343 -12 m 0,0,1
 249 -12 249 -12 178 36 c 1,2,-1
 116 -41 l 1,3,-1
 40 17 l 1,4,-1
 109 103 l 1,5,6
 80 146 80 146 63.5 203 c 128,-1,7
 47 260 47 260 47 329 c 0,8,9
 47 409 47 409 68.5 471.5 c 128,-1,10
 90 534 90 534 129 576.5 c 128,-1,11
 168 619 168 619 222.5 641.5 c 128,-1,12
 277 664 277 664 343 664 c 0,13,14
 445 664 445 664 518 611 c 1,15,-1
 584 693 l 1,16,-1
 660 634 l 1,17,-1
 584 540 l 1,18,19
 610 499 610 499 624.5 446.5 c 128,-1,20
 639 394 639 394 639 329 c 0,21,22
 639 249 639 249 617.5 186 c 128,-1,23
 596 123 596 123 557 79 c 128,-1,24
 518 35 518 35 463.5 11.5 c 128,-1,25
 409 -12 409 -12 343 -12 c 0,0,1
198 329 m 0,26,27
 198 301 198 301 201.5 276 c 128,-1,28
 205 251 205 251 211 230 c 1,29,-1
 431 503 l 1,30,31
 395 537 395 537 343 537 c 0,32,33
 276 537 276 537 237 482 c 128,-1,34
 198 427 198 427 198 329 c 0,26,27
343 115 m 0,35,36
 410 115 410 115 449 172.5 c 128,-1,37
 488 230 488 230 488 329 c 0,38,39
 488 374 488 374 479 410 c 1,40,-1
 264 143 l 1,41,42
 298 115 298 115 343 115 c 0,35,36
EndSplineSet
Validated: 1
Substitution2: "'c2sc' Capitals to Small Capitals lookup 17 subtable" Oslash.sc
Substitution2: "'aalt' Access All Alternates lookup 0 subtable" Oslash.sc
EndChar

StartChar: OE
Encoding: 338 338 174
Width: 871
GlyphClass: 2
Flags: W
AnchorPoint: "Anchor-1" 529 674 basechar 0
LayerCount: 2
Fore
SplineSet
373 0 m 2,0,1
 303 0 303 0 243.5 20 c 128,-1,2
 184 40 184 40 140 80.5 c 128,-1,3
 96 121 96 121 71 183 c 128,-1,4
 46 245 46 245 46 329 c 256,5,6
 46 413 46 413 71 474 c 128,-1,7
 96 535 96 535 140.5 574.5 c 128,-1,8
 185 614 185 614 246.5 633 c 128,-1,9
 308 652 308 652 381 652 c 2,10,-1
 808 652 l 1,11,-1
 808 528 l 1,12,-1
 561 528 l 1,13,-1
 561 397 l 1,14,-1
 769 397 l 1,15,-1
 769 274 l 1,16,-1
 561 274 l 1,17,-1
 561 124 l 1,18,-1
 818 124 l 1,19,-1
 818 0 l 1,20,-1
 373 0 l 2,0,1
390 119 m 2,21,-1
 413 119 l 1,22,-1
 413 533 l 1,23,-1
 390 533 l 2,24,25
 347 533 347 533 311.5 523 c 128,-1,26
 276 513 276 513 250.5 489.5 c 128,-1,27
 225 466 225 466 211 427 c 128,-1,28
 197 388 197 388 197 329 c 256,29,30
 197 270 197 270 211 229.5 c 128,-1,31
 225 189 225 189 250.5 164.5 c 128,-1,32
 276 140 276 140 311.5 129.5 c 128,-1,33
 347 119 347 119 390 119 c 2,21,-1
EndSplineSet
Validated: 1
Substitution2: "'c2sc' Capitals to Small Capitals lookup 17 subtable" OE.sc
Substitution2: "'aalt' Access All Alternates lookup 0 subtable" OE.sc
EndChar

StartChar: Ohorn
Encoding: 416 416 175
Width: 684
GlyphClass: 2
Flags: W
AnchorPoint: "Anchor-4" 342 -22 basechar 0
AnchorPoint: "Anchor-1" 343 674 basechar 0
LayerCount: 2
Fore
SplineSet
343 -12 m 256,0,1
 277 -12 277 -12 222.5 11.5 c 128,-1,2
 168 35 168 35 129 79 c 128,-1,3
 90 123 90 123 68.5 186 c 128,-1,4
 47 249 47 249 47 329 c 256,5,6
 47 409 47 409 68.5 471.5 c 128,-1,7
 90 534 90 534 129 576.5 c 128,-1,8
 168 619 168 619 222.5 641.5 c 128,-1,9
 277 664 277 664 343 664 c 0,10,11
 420 664 420 664 482 633 c 1,12,13
 511 641 511 641 526.5 657 c 128,-1,14
 542 673 542 673 542 705 c 0,15,16
 542 725 542 725 537 742 c 128,-1,17
 532 759 532 759 526 770 c 1,18,-1
 635 814 l 1,19,20
 647 797 647 797 656 771.5 c 128,-1,21
 665 746 665 746 665 716 c 0,22,23
 665 662 665 662 636 630.5 c 128,-1,24
 607 599 607 599 550 584 c 1,25,26
 592 540 592 540 615.5 476.5 c 128,-1,27
 639 413 639 413 639 329 c 0,28,29
 639 249 639 249 617.5 186 c 128,-1,30
 596 123 596 123 557 79 c 128,-1,31
 518 35 518 35 463.5 11.5 c 128,-1,32
 409 -12 409 -12 343 -12 c 256,0,1
343 115 m 256,33,34
 410 115 410 115 449 172.5 c 128,-1,35
 488 230 488 230 488 329 c 0,36,37
 488 427 488 427 449 482 c 128,-1,38
 410 537 410 537 343 537 c 256,39,40
 276 537 276 537 237 482 c 128,-1,41
 198 427 198 427 198 329 c 0,42,43
 198 230 198 230 237 172.5 c 128,-1,44
 276 115 276 115 343 115 c 256,33,34
EndSplineSet
Validated: 1
Substitution2: "'c2sc' Capitals to Small Capitals lookup 17 subtable" Ohorn.sc
Substitution2: "'aalt' Access All Alternates lookup 0 subtable" Ohorn.sc
EndChar

StartChar: uni01EA
Encoding: 490 490 181
Width: 684
GlyphClass: 2
Flags: W
AnchorPoint: "Anchor-1" 342 674 basechar 0
LayerCount: 2
Fore
SplineSet
368 -223 m 0,0,1
 320 -223 320 -223 286.5 -198.5 c 128,-1,2
 253 -174 253 -174 253 -129 c 0,3,4
 253 -90 253 -90 273 -60 c 128,-1,5
 293 -30 293 -30 316 -10 c 1,6,7
 254 -6 254 -6 204 19.5 c 128,-1,8
 154 45 154 45 119 88.5 c 128,-1,9
 84 132 84 132 65 193 c 128,-1,10
 46 254 46 254 46 329 c 0,11,12
 46 409 46 409 67.5 471.5 c 128,-1,13
 89 534 89 534 128 576.5 c 128,-1,14
 167 619 167 619 221.5 641.5 c 128,-1,15
 276 664 276 664 342 664 c 256,16,17
 408 664 408 664 462.5 641.5 c 128,-1,18
 517 619 517 619 556 576 c 128,-1,19
 595 533 595 533 616.5 470.5 c 128,-1,20
 638 408 638 408 638 329 c 0,21,22
 638 260 638 260 624 207.5 c 128,-1,23
 610 155 610 155 583 115 c 128,-1,24
 556 75 556 75 517.5 46 c 128,-1,25
 479 17 479 17 431 -5 c 0,26,27
 393 -22 393 -22 376.5 -45.5 c 128,-1,28
 360 -69 360 -69 360 -90 c 0,29,30
 360 -110 360 -110 373 -119 c 128,-1,31
 386 -128 386 -128 402 -128 c 0,32,33
 413 -128 413 -128 421.5 -123.5 c 128,-1,34
 430 -119 430 -119 438 -114 c 1,35,-1
 472 -188 l 1,36,37
 452 -203 452 -203 423 -213 c 128,-1,38
 394 -223 394 -223 368 -223 c 0,0,1
342 115 m 256,39,40
 409 115 409 115 448 172.5 c 128,-1,41
 487 230 487 230 487 329 c 0,42,43
 487 427 487 427 448 482 c 128,-1,44
 409 537 409 537 342 537 c 256,45,46
 275 537 275 537 236 482 c 128,-1,47
 197 427 197 427 197 329 c 0,48,49
 197 230 197 230 236 172.5 c 128,-1,50
 275 115 275 115 342 115 c 256,39,40
EndSplineSet
Validated: 1
Substitution2: "'c2sc' Capitals to Small Capitals lookup 17 subtable" uni01EA.sc
Ligature2: "'ccmp' Glyph Composition/Decomposition lookup 11 subtable" O uni0328
Substitution2: "'aalt' Access All Alternates lookup 0 subtable" uni01EA.sc
EndChar

StartChar: uni1E9E
Encoding: 7838 7838 196
Width: 705
Flags: W
LayerCount: 2
Fore
SplineSet
463 -12 m 0,0,1
 398 -12 398 -12 351.5 10 c 128,-1,2
 305 32 305 32 277 60 c 1,3,-1
 354 150 l 1,4,5
 378 126 378 126 400.5 116.5 c 128,-1,6
 423 107 423 107 445 107 c 0,7,8
 477 107 477 107 496 127 c 128,-1,9
 515 147 515 147 515 179 c 0,10,11
 515 209 515 209 481 234.5 c 128,-1,12
 447 260 447 260 364 275 c 1,13,-1
 354 361 l 1,14,-1
 463 486 l 1,15,16
 450 509 450 509 424 527 c 128,-1,17
 398 545 398 545 357 545 c 0,18,19
 228 545 228 545 228 389 c 2,20,-1
 228 0 l 1,21,-1
 80 0 l 1,22,-1
 80 409 l 2,23,24
 80 464 80 464 96.5 510.5 c 128,-1,25
 113 557 113 557 147.5 591 c 128,-1,26
 182 625 182 625 235 644.5 c 128,-1,27
 288 664 288 664 361 664 c 0,28,29
 459 664 459 664 522.5 613.5 c 128,-1,30
 586 563 586 563 609 481 c 1,31,-1
 501 359 l 1,32,33
 538 347 538 347 568 331 c 128,-1,34
 598 315 598 315 620 293.5 c 128,-1,35
 642 272 642 272 654 243.5 c 128,-1,36
 666 215 666 215 666 178 c 0,37,38
 666 138 666 138 652.5 103 c 128,-1,39
 639 68 639 68 613.5 42.5 c 128,-1,40
 588 17 588 17 550 2.5 c 128,-1,41
 512 -12 512 -12 463 -12 c 0,0,1
EndSplineSet
Validated: 1
Substitution2: "'c2sc' Capitals to Small Capitals lookup 17 subtable" uni1E9E.sc
Substitution2: "'aalt' Access All Alternates lookup 0 subtable" uni1E9E.sc
EndChar

StartChar: uni0166
Encoding: 358 358 202
Width: 556
Flags: W
LayerCount: 2
Fore
SplineSet
204 0 m 1,0,-1
 204 285 l 1,1,-1
 86 285 l 1,2,-1
 86 350 l 1,3,-1
 180 356 l 1,4,-1
 204 356 l 1,5,-1
 204 528 l 1,6,-1
 25 528 l 1,7,-1
 25 652 l 1,8,-1
 531 652 l 1,9,-1
 531 528 l 1,10,-1
 352 528 l 1,11,-1
 352 356 l 1,12,-1
 470 356 l 1,13,-1
 470 285 l 1,14,-1
 352 285 l 1,15,-1
 352 0 l 1,16,-1
 204 0 l 1,0,-1
EndSplineSet
Validated: 1
Substitution2: "'c2sc' Capitals to Small Capitals lookup 17 subtable" uni0166.sc
Substitution2: "'aalt' Access All Alternates lookup 0 subtable" uni0166.sc
EndChar

StartChar: Uogonek
Encoding: 370 370 219
Width: 665
GlyphClass: 2
Flags: W
AnchorPoint: "Anchor-1" 332 674 basechar 0
LayerCount: 2
Fore
SplineSet
357 -223 m 0,0,1
 309 -223 309 -223 276 -198.5 c 128,-1,2
 243 -174 243 -174 243 -129 c 0,3,4
 243 -106 243 -106 250.5 -86.5 c 128,-1,5
 258 -67 258 -67 268.5 -52 c 128,-1,6
 279 -37 279 -37 289.5 -26.5 c 128,-1,7
 300 -16 300 -16 307 -10 c 1,8,9
 192 -3 192 -3 132.5 72.5 c 128,-1,10
 73 148 73 148 73 302 c 2,11,-1
 73 652 l 1,12,-1
 221 652 l 1,13,-1
 221 287 l 2,14,15
 221 191 221 191 250 153 c 128,-1,16
 279 115 279 115 334 115 c 256,17,18
 389 115 389 115 419 153 c 128,-1,19
 449 191 449 191 449 287 c 2,20,-1
 449 652 l 1,21,-1
 591 652 l 1,22,-1
 591 302 l 2,23,24
 591 233 591 233 581 184 c 128,-1,25
 571 135 571 135 550 99.5 c 128,-1,26
 529 64 529 64 497 39.5 c 128,-1,27
 465 15 465 15 421 -5 c 0,28,29
 383 -22 383 -22 366.5 -46 c 128,-1,30
 350 -70 350 -70 350 -90 c 256,31,32
 350 -110 350 -110 363 -119 c 128,-1,33
 376 -128 376 -128 392 -128 c 0,34,35
 402 -128 402 -128 411 -123.5 c 128,-1,36
 420 -119 420 -119 428 -114 c 1,37,-1
 462 -188 l 1,38,39
 442 -203 442 -203 412.5 -213 c 128,-1,40
 383 -223 383 -223 357 -223 c 0,0,1
EndSplineSet
Validated: 1
Substitution2: "'c2sc' Capitals to Small Capitals lookup 17 subtable" Uogonek.sc
Ligature2: "'ccmp' Glyph Composition/Decomposition lookup 11 subtable" U uni0328
Substitution2: "'aalt' Access All Alternates lookup 0 subtable" Uogonek.sc
EndChar

StartChar: Uhorn
Encoding: 431 431 220
Width: 683
GlyphClass: 2
Flags: W
AnchorPoint: "Anchor-4" 332 -22 basechar 0
AnchorPoint: "Anchor-1" 332 674 basechar 0
LayerCount: 2
Fore
SplineSet
334 -12 m 0,0,1
 207 -12 207 -12 140 63 c 128,-1,2
 73 138 73 138 73 302 c 2,3,-1
 73 652 l 1,4,-1
 221 652 l 1,5,-1
 221 287 l 2,6,7
 221 191 221 191 250 153 c 128,-1,8
 279 115 279 115 334 115 c 256,9,10
 389 115 389 115 419 153 c 128,-1,11
 449 191 449 191 449 287 c 2,12,-1
 449 652 l 1,13,-1
 519 652 l 2,14,15
 534 653 534 653 549 656 c 128,-1,16
 564 659 564 659 575.5 666.5 c 128,-1,17
 587 674 587 674 594.5 688 c 128,-1,18
 602 702 602 702 602 725 c 0,19,20
 602 745 602 745 597 762 c 128,-1,21
 592 779 592 779 586 790 c 1,22,-1
 695 834 l 1,23,24
 706 817 706 817 715.5 791.5 c 128,-1,25
 725 766 725 766 725 736 c 0,26,27
 725 674 725 674 689.5 641.5 c 128,-1,28
 654 609 654 609 591 598 c 1,29,-1
 591 302 l 2,30,31
 591 138 591 138 525.5 63 c 128,-1,32
 460 -12 460 -12 334 -12 c 0,0,1
EndSplineSet
Validated: 1
Substitution2: "'c2sc' Capitals to Small Capitals lookup 17 subtable" Uhorn.sc
Substitution2: "'aalt' Access All Alternates lookup 0 subtable" Uhorn.sc
EndChar

StartChar: Eth
Encoding: 208 208 243
Width: 660
Flags: W
LayerCount: 2
Fore
SplineSet
26 301 m 1,0,-1
 26 367 l 1,1,-1
 102 372 l 1,2,-1
 102 652 l 1,3,-1
 286 652 l 2,4,5
 361 652 361 652 421 633 c 128,-1,6
 481 614 481 614 524 574.5 c 128,-1,7
 567 535 567 535 590 474 c 128,-1,8
 613 413 613 413 613 329 c 256,9,10
 613 245 613 245 590 183 c 128,-1,11
 567 121 567 121 525 80.5 c 128,-1,12
 483 40 483 40 424.5 20 c 128,-1,13
 366 0 366 0 294 0 c 2,14,-1
 102 0 l 1,15,-1
 102 301 l 1,16,-1
 26 301 l 1,0,-1
249 119 m 1,17,-1
 277 119 l 2,18,19
 319 119 319 119 353 130 c 128,-1,20
 387 141 387 141 411 165.5 c 128,-1,21
 435 190 435 190 448.5 230 c 128,-1,22
 462 270 462 270 462 329 c 0,23,24
 462 387 462 387 448.5 426.5 c 128,-1,25
 435 466 435 466 411 489.5 c 128,-1,26
 387 513 387 513 353 523 c 128,-1,27
 319 533 319 533 277 533 c 2,28,-1
 249 533 l 1,29,-1
 249 372 l 1,30,-1
 374 372 l 1,31,-1
 374 301 l 1,32,-1
 249 301 l 1,33,-1
 249 119 l 1,17,-1
EndSplineSet
Validated: 1
Substitution2: "'c2sc' Capitals to Small Capitals lookup 17 subtable" Eth.sc
Substitution2: "'aalt' Access All Alternates lookup 0 subtable" Eth.sc
EndChar

StartChar: Thorn
Encoding: 222 222 244
Width: 617
Flags: W
LayerCount: 2
Fore
SplineSet
77 0 m 1,0,-1
 77 652 l 1,1,-1
 224 652 l 1,2,-1
 224 553 l 1,3,-1
 315 553 l 2,4,5
 368 553 368 553 414.5 542.5 c 128,-1,6
 461 532 461 532 495.5 507.5 c 128,-1,7
 530 483 530 483 550 443 c 128,-1,8
 570 403 570 403 570 344 c 0,9,10
 570 286 570 286 549.5 244.5 c 128,-1,11
 529 203 529 203 494 176 c 128,-1,12
 459 149 459 149 413 136 c 128,-1,13
 367 123 367 123 315 123 c 2,14,-1
 224 123 l 1,15,-1
 224 0 l 1,16,-1
 77 0 l 1,0,-1
224 240 m 1,17,-1
 306 240 l 2,18,19
 426 240 426 240 426 344 c 0,20,21
 426 395 426 395 395.5 415.5 c 128,-1,22
 365 436 365 436 306 436 c 2,23,-1
 224 436 l 1,24,-1
 224 240 l 1,17,-1
EndSplineSet
Validated: 1
Substitution2: "'c2sc' Capitals to Small Capitals lookup 17 subtable" Thorn.sc
Substitution2: "'aalt' Access All Alternates lookup 0 subtable" Thorn.sc
EndChar

StartChar: uni018F
Encoding: 399 399 245
Width: 675
GlyphClass: 2
Flags: W
AnchorPoint: "Anchor-4" 357 -22 basechar 0
AnchorPoint: "Anchor-1" 348 674 basechar 0
LayerCount: 2
Fore
SplineSet
336 -12 m 256,0,1
 270 -12 270 -12 217.5 9.5 c 128,-1,2
 165 31 165 31 128 73.5 c 128,-1,3
 91 116 91 116 71 178.5 c 128,-1,4
 51 241 51 241 51 323 c 0,5,6
 51 346 51 346 54 372 c 1,7,-1
 481 372 l 1,8,9
 473 460 473 460 434 501.5 c 128,-1,10
 395 543 395 543 323 543 c 0,11,12
 276 543 276 543 241 524.5 c 128,-1,13
 206 506 206 506 180 482 c 1,14,-1
 113 583 l 1,15,16
 151 618 151 618 207.5 641 c 128,-1,17
 264 664 264 664 340 664 c 0,18,19
 404 664 404 664 457.5 642.5 c 128,-1,20
 511 621 511 621 549 578.5 c 128,-1,21
 587 536 587 536 608 473 c 128,-1,22
 629 410 629 410 629 327 c 256,23,24
 629 244 629 244 608 180.5 c 128,-1,25
 587 117 587 117 548.5 74.5 c 128,-1,26
 510 32 510 32 456 10 c 128,-1,27
 402 -12 402 -12 336 -12 c 256,0,1
336 108 m 0,28,29
 393 108 393 108 430.5 145.5 c 128,-1,30
 468 183 468 183 479 264 c 1,31,-1
 201 264 l 1,32,33
 207 182 207 182 242.5 145 c 128,-1,34
 278 108 278 108 336 108 c 0,28,29
EndSplineSet
Validated: 1
Substitution2: "'c2sc' Capitals to Small Capitals lookup 17 subtable" uni018F.sc
Substitution2: "'aalt' Access All Alternates lookup 0 subtable" uni018F.sc
EndChar

StartChar: uni014A
Encoding: 330 330 246
Width: 666
GlyphClass: 2
Flags: W
AnchorPoint: "Anchor-1" 370 674 basechar 0
LayerCount: 2
Fore
SplineSet
412 -12 m 0,0,1
 389 -12 389 -12 363 -7.5 c 128,-1,2
 337 -3 337 -3 322 7 c 1,3,-1
 354 134 l 1,4,5
 362 130 362 130 372 127.5 c 128,-1,6
 382 125 382 125 395 125 c 0,7,8
 410 125 410 125 423.5 133.5 c 128,-1,9
 437 142 437 142 447 164.5 c 128,-1,10
 457 187 457 187 463 227.5 c 128,-1,11
 469 268 469 268 469 331 c 0,12,13
 469 443 469 443 438 490 c 128,-1,14
 407 537 407 537 352 537 c 0,15,16
 321 537 321 537 285 516 c 128,-1,17
 249 495 249 495 224 455 c 1,18,-1
 224 0 l 1,19,-1
 77 0 l 1,20,-1
 77 652 l 1,21,-1
 219 652 l 1,22,-1
 219 582 l 1,23,24
 257 622 257 622 301 643 c 128,-1,25
 345 664 345 664 396 664 c 0,26,27
 444 664 444 664 485 646 c 128,-1,28
 526 628 526 628 556 588.5 c 128,-1,29
 586 549 586 549 603 485.5 c 128,-1,30
 620 422 620 422 620 331 c 0,31,32
 620 156 620 156 569.5 72 c 128,-1,33
 519 -12 519 -12 412 -12 c 0,0,1
EndSplineSet
Validated: 1
Substitution2: "'c2sc' Capitals to Small Capitals lookup 17 subtable" uni014A.sc
Substitution2: "'salt' Stylistic Alternatives lookup 3 subtable" uni014A.a
AlternateSubs2: "'aalt' Access All Alternates lookup 1 subtable" uni014A.a uni014A.sc
EndChar

StartChar: uni0132
Encoding: 306 306 247
Width: 602
Flags: W
LayerCount: 2
Fore
SplineSet
77 0 m 1,0,-1
 77 652 l 1,1,-1
 224 652 l 1,2,-1
 224 0 l 1,3,-1
 77 0 l 1,0,-1
348 -182 m 0,4,5
 317 -182 317 -182 296.5 -178 c 128,-1,6
 276 -174 276 -174 260 -168 c 1,7,-1
 287 -59 l 1,8,9
 297 -62 297 -62 306 -64 c 128,-1,10
 315 -66 315 -66 325 -66 c 0,11,12
 355 -66 355 -66 366.5 -47 c 128,-1,13
 378 -28 378 -28 378 14 c 2,14,-1
 378 652 l 1,15,-1
 526 652 l 1,16,-1
 526 18 l 2,17,18
 526 -23 526 -23 517 -59.5 c 128,-1,19
 508 -96 508 -96 487.5 -123 c 128,-1,20
 467 -150 467 -150 433 -166 c 128,-1,21
 399 -182 399 -182 348 -182 c 0,4,5
EndSplineSet
Validated: 1
Substitution2: "'c2sc' Capitals to Small Capitals lookup 17 subtable" uni0132.sc
Substitution2: "'aalt' Access All Alternates lookup 0 subtable" uni0132.sc
EndChar

StartChar: aogonek
Encoding: 261 261 269
Width: 527
GlyphClass: 2
Flags: W
AnchorPoint: "Anchor-0" 281 518 basechar 0
LayerCount: 2
Fore
SplineSet
387 -210 m 0,0,1
 343 -210 343 -210 312 -187 c 128,-1,2
 281 -164 281 -164 281 -119 c 0,3,4
 281 -97 281 -97 288.5 -78.5 c 128,-1,5
 296 -60 296 -60 306.5 -45 c 128,-1,6
 317 -30 317 -30 329 -19 c 128,-1,7
 341 -8 341 -8 350 -2 c 1,8,-1
 338 51 l 1,9,-1
 334 51 l 1,10,11
 302 23 302 23 267 5.5 c 128,-1,12
 232 -12 232 -12 190 -12 c 0,13,14
 156 -12 156 -12 128.5 -0.5 c 128,-1,15
 101 11 101 11 82 31.5 c 128,-1,16
 63 52 63 52 52.5 79 c 128,-1,17
 42 106 42 106 42 137 c 0,18,19
 42 216 42 216 108 260 c 128,-1,20
 174 304 174 304 321 319 c 1,21,22
 319 352 319 352 301.5 371.5 c 128,-1,23
 284 391 284 391 243 391 c 0,24,25
 211 391 211 391 179.5 379 c 128,-1,26
 148 367 148 367 112 346 c 1,27,-1
 59 443 l 1,28,29
 107 472 107 472 159.5 490 c 128,-1,30
 212 508 212 508 271 508 c 0,31,32
 367 508 367 508 417.5 453.5 c 128,-1,33
 468 399 468 399 468 284 c 2,34,-1
 468 0 l 1,35,36
 420 -14 420 -14 400.5 -38 c 128,-1,37
 381 -62 381 -62 381 -85 c 0,38,39
 381 -105 381 -105 393.5 -114 c 128,-1,40
 406 -123 406 -123 422 -123 c 0,41,42
 432 -123 432 -123 441.5 -119.5 c 128,-1,43
 451 -116 451 -116 458 -111 c 1,44,-1
 489 -177 l 1,45,46
 469 -192 469 -192 440 -201 c 128,-1,47
 411 -210 411 -210 387 -210 c 0,0,1
240 102 m 0,48,49
 265 102 265 102 283 113 c 128,-1,50
 301 124 301 124 321 144 c 1,51,-1
 321 231 l 1,52,53
 243 220 243 220 213 199 c 128,-1,54
 183 178 183 178 183 149 c 0,55,56
 183 125 183 125 198.5 113.5 c 128,-1,57
 214 102 214 102 240 102 c 0,48,49
EndSplineSet
Validated: 1
Substitution2: "'ss02' Style Set 2 lookup 39 subtable" aogonek.a
Substitution2: "'smcp' Lowercase to Small Capitals lookup 20 subtable" Aogonek.sc
Ligature2: "'ccmp' Glyph Composition/Decomposition lookup 11 subtable" a uni0328
AlternateSubs2: "'aalt' Access All Alternates lookup 1 subtable" Aogonek.sc aogonek.a
EndChar

StartChar: ae
Encoding: 230 230 270
Width: 786
GlyphClass: 2
Flags: W
AnchorPoint: "Anchor-4" 408 -22 basechar 0
AnchorPoint: "Anchor-0" 411 518 basechar 0
LayerCount: 2
Fore
SplineSet
194 -12 m 0,0,1
 160 -12 160 -12 133 -0.5 c 128,-1,2
 106 11 106 11 87 31.5 c 128,-1,3
 68 52 68 52 57.5 79 c 128,-1,4
 47 106 47 106 47 137 c 0,5,6
 47 216 47 216 112 260.5 c 128,-1,7
 177 305 177 305 323 320 c 1,8,9
 321 352 321 352 304.5 371.5 c 128,-1,10
 288 391 288 391 246 391 c 0,11,12
 216 391 216 391 184 379 c 128,-1,13
 152 367 152 367 116 346 c 1,14,-1
 64 443 l 1,15,16
 112 472 112 472 162.5 490 c 128,-1,17
 213 508 213 508 267 508 c 0,18,19
 313 508 313 508 348 488 c 128,-1,20
 383 468 383 468 405 433 c 1,21,22
 437 469 437 469 472 488.5 c 128,-1,23
 507 508 507 508 552 508 c 0,24,25
 601 508 601 508 638 489.5 c 128,-1,26
 675 471 675 471 699.5 438.5 c 128,-1,27
 724 406 724 406 736.5 362 c 128,-1,28
 749 318 749 318 749 267 c 0,29,30
 749 247 749 247 747 230.5 c 128,-1,31
 745 214 745 214 743 205 c 1,32,-1
 457 205 l 1,33,34
 465 153 465 153 498 128 c 128,-1,35
 531 103 531 103 576 103 c 0,36,37
 604 103 604 103 629 113 c 128,-1,38
 654 123 654 123 681 139 c 1,39,-1
 731 44 l 1,40,41
 693 18 693 18 646.5 3 c 128,-1,42
 600 -12 600 -12 556 -12 c 0,43,44
 500 -12 500 -12 458.5 9 c 128,-1,45
 417 30 417 30 385 65 c 1,46,47
 332 23 332 23 288 5.5 c 128,-1,48
 244 -12 244 -12 194 -12 c 0,0,1
244 102 m 256,49,50
 270 102 270 102 293.5 113 c 128,-1,51
 317 124 317 124 337 144 c 1,52,53
 326 175 326 175 323 210 c 2,54,-1
 322 231 l 1,55,56
 249 220 249 220 218 199 c 128,-1,57
 187 178 187 178 187 149 c 0,58,59
 187 125 187 125 202.5 113.5 c 128,-1,60
 218 102 218 102 244 102 c 256,49,50
457 295 m 1,61,-1
 624 295 l 1,62,63
 624 340 624 340 606 368 c 128,-1,64
 588 396 588 396 547 396 c 0,65,66
 512 396 512 396 487.5 371.5 c 128,-1,67
 463 347 463 347 457 295 c 1,61,-1
EndSplineSet
Validated: 1
Substitution2: "'smcp' Lowercase to Small Capitals lookup 20 subtable" AE.sc
Substitution2: "'aalt' Access All Alternates lookup 0 subtable" AE.sc
EndChar

StartChar: uni0180
Encoding: 384 384 273
Width: 571
Flags: W
LayerCount: 2
Fore
SplineSet
325 -12 m 0,0,1
 292 -12 292 -12 258.5 4.5 c 128,-1,2
 225 21 225 21 196 53 c 1,3,-1
 192 53 l 1,4,-1
 180 0 l 1,5,-1
 65 0 l 1,6,-1
 65 556 l 1,7,-1
 -3 556 l 1,8,-1
 -3 621 l 1,9,-1
 65 626 l 1,10,-1
 65 701 l 1,11,-1
 212 701 l 1,12,-1
 212 627 l 1,13,-1
 381 627 l 1,14,-1
 381 556 l 1,15,-1
 212 556 l 1,16,-1
 212 481 l 1,17,-1
 208 405 l 1,18,19
 237 430 237 430 270.5 445 c 128,-1,20
 304 460 304 460 339 460 c 0,21,22
 384 460 384 460 420 443.5 c 128,-1,23
 456 427 456 427 481.5 397 c 128,-1,24
 507 367 507 367 520.5 325.5 c 128,-1,25
 534 284 534 284 534 234 c 0,26,27
 534 177 534 177 516.5 131 c 128,-1,28
 499 85 499 85 469.5 53.5 c 128,-1,29
 440 22 440 22 402.5 5 c 128,-1,30
 365 -12 365 -12 325 -12 c 0,0,1
291 108 m 0,31,32
 329 108 329 108 356 139 c 128,-1,33
 383 170 383 170 383 232 c 0,34,35
 383 283 383 283 362.5 311 c 128,-1,36
 342 339 342 339 297 339 c 0,37,38
 274 339 274 339 253.5 328.5 c 128,-1,39
 233 318 233 318 212 295 c 1,40,-1
 212 140 l 1,41,42
 232 122 232 122 252 115 c 128,-1,43
 272 108 272 108 291 108 c 0,31,32
EndSplineSet
Validated: 1
Substitution2: "'smcp' Lowercase to Small Capitals lookup 20 subtable" uni0243.sc
Substitution2: "'aalt' Access All Alternates lookup 0 subtable" uni0243.sc
EndChar

StartChar: dcroat
Encoding: 273 273 283
Width: 573
Flags: W
LayerCount: 2
Fore
SplineSet
242 -12 m 0,0,1
 196 -12 196 -12 158.5 5 c 128,-1,2
 121 22 121 22 94.5 53 c 128,-1,3
 68 84 68 84 53.5 127.5 c 128,-1,4
 39 171 39 171 39 225 c 0,5,6
 39 278 39 278 56.5 321.5 c 128,-1,7
 74 365 74 365 102.5 395.5 c 128,-1,8
 131 426 131 426 168.5 443 c 128,-1,9
 206 460 206 460 245 460 c 0,10,11
 287 460 287 460 314 445.5 c 128,-1,12
 341 431 341 431 367 408 c 1,13,-1
 361 483 l 1,14,-1
 361 556 l 1,15,-1
 212 556 l 1,16,-1
 212 627 l 1,17,-1
 361 627 l 1,18,-1
 361 701 l 1,19,-1
 508 701 l 1,20,-1
 508 627 l 1,21,-1
 576 627 l 1,22,-1
 576 562 l 1,23,-1
 508 557 l 1,24,-1
 508 0 l 1,25,-1
 385 0 l 1,26,-1
 376 44 l 1,27,-1
 372 44 l 1,28,29
 346 19 346 19 313 3.5 c 128,-1,30
 280 -12 280 -12 242 -12 c 0,0,1
280 108 m 0,31,32
 304 108 304 108 323.5 118 c 128,-1,33
 343 128 343 128 361 153 c 1,34,-1
 361 308 l 1,35,36
 341 325 341 325 320 332 c 128,-1,37
 299 339 299 339 279 339 c 0,38,39
 244 339 244 339 217 310.5 c 128,-1,40
 190 282 190 282 190 227 c 0,41,42
 190 168 190 168 213.5 138 c 128,-1,43
 237 108 237 108 280 108 c 0,31,32
EndSplineSet
Validated: 1
Substitution2: "'smcp' Lowercase to Small Capitals lookup 20 subtable" Dcroat.sc
Substitution2: "'aalt' Access All Alternates lookup 0 subtable" Dcroat.sc
EndChar

StartChar: eogonek
Encoding: 281 281 300
Width: 518
GlyphClass: 2
Flags: W
AnchorPoint: "Anchor-0" 270 518 basechar 0
LayerCount: 2
Fore
SplineSet
362 -210 m 0,0,1
 317 -210 317 -210 287.5 -187 c 128,-1,2
 258 -164 258 -164 258 -119 c 0,3,4
 258 -82 258 -82 276.5 -54 c 128,-1,5
 295 -26 295 -26 314 -9 c 1,6,7
 305 -11 305 -11 298.5 -11.5 c 128,-1,8
 292 -12 292 -12 287 -12 c 0,9,10
 234 -12 234 -12 188 5.5 c 128,-1,11
 142 23 142 23 108 56.5 c 128,-1,12
 74 90 74 90 55 138 c 128,-1,13
 36 186 36 186 36 248 c 0,14,15
 36 308 36 308 56 356.5 c 128,-1,16
 76 405 76 405 108.5 438.5 c 128,-1,17
 141 472 141 472 183 490 c 128,-1,18
 225 508 225 508 270 508 c 0,19,20
 323 508 323 508 362.5 490 c 128,-1,21
 402 472 402 472 428.5 440 c 128,-1,22
 455 408 455 408 468 364.5 c 128,-1,23
 481 321 481 321 481 270 c 0,24,25
 481 250 481 250 479 232 c 128,-1,26
 477 214 477 214 475 205 c 1,27,-1
 178 205 l 1,28,29
 188 151 188 151 222.5 125.5 c 128,-1,30
 257 100 257 100 307 100 c 0,31,32
 360 100 360 100 414 133 c 1,33,-1
 463 44 l 1,34,35
 430 21 430 21 409 3.5 c 128,-1,36
 388 -14 388 -14 376 -29 c 128,-1,37
 364 -44 364 -44 359.5 -57 c 128,-1,38
 355 -70 355 -70 355 -85 c 0,39,40
 355 -105 355 -105 367.5 -114 c 128,-1,41
 380 -123 380 -123 398 -123 c 0,42,43
 408 -123 408 -123 416.5 -119.5 c 128,-1,44
 425 -116 425 -116 433 -111 c 1,45,-1
 463 -177 l 1,46,47
 444 -192 444 -192 415 -201 c 128,-1,48
 386 -210 386 -210 362 -210 c 0,0,1
177 302 m 1,49,-1
 356 302 l 1,50,51
 356 344 356 344 337 370 c 128,-1,52
 318 396 318 396 273 396 c 0,53,54
 238 396 238 396 211.5 373 c 128,-1,55
 185 350 185 350 177 302 c 1,49,-1
EndSplineSet
Validated: 1
Substitution2: "'smcp' Lowercase to Small Capitals lookup 20 subtable" Eogonek.sc
Ligature2: "'ccmp' Glyph Composition/Decomposition lookup 11 subtable" e uni0328
Substitution2: "'aalt' Access All Alternates lookup 0 subtable" Eogonek.sc
EndChar

StartChar: hbar
Encoding: 295 295 314
Width: 571
Flags: W
LayerCount: 2
Fore
SplineSet
65 0 m 1,0,-1
 65 556 l 1,1,-1
 -3 556 l 1,2,-1
 -3 621 l 1,3,-1
 65 626 l 1,4,-1
 65 701 l 1,5,-1
 212 701 l 1,6,-1
 212 627 l 1,7,-1
 381 627 l 1,8,-1
 381 556 l 1,9,-1
 212 556 l 1,10,-1
 212 481 l 1,11,-1
 205 391 l 1,12,13
 219 404 219 404 235 416 c 128,-1,14
 251 428 251 428 270 438 c 128,-1,15
 289 448 289 448 311 454 c 128,-1,16
 333 460 333 460 358 460 c 0,17,18
 439 460 439 460 475.5 407 c 128,-1,19
 512 354 512 354 512 260 c 2,20,-1
 512 0 l 1,21,-1
 365 0 l 1,22,-1
 365 241 l 2,23,24
 365 295 365 295 350.5 314.5 c 128,-1,25
 336 334 336 334 304 334 c 0,26,27
 276 334 276 334 256 321.5 c 128,-1,28
 236 309 236 309 212 286 c 1,29,-1
 212 0 l 1,30,-1
 65 0 l 1,0,-1
EndSplineSet
Validated: 1
Substitution2: "'smcp' Lowercase to Small Capitals lookup 20 subtable" Hbar.sc
Substitution2: "'aalt' Access All Alternates lookup 0 subtable" Hbar.sc
EndChar

StartChar: iogonek
Encoding: 303 303 324
Width: 276
GlyphClass: 3
Flags: W
LayerCount: 2
Fore
SplineSet
147 -210 m 0,0,1
 102 -210 102 -210 71.5 -187 c 128,-1,2
 41 -164 41 -164 41 -119 c 0,3,4
 41 -97 41 -97 47.5 -78.5 c 128,-1,5
 54 -60 54 -60 64 -45 c 128,-1,6
 74 -30 74 -30 85.5 -19 c 128,-1,7
 97 -8 97 -8 106 0 c 1,8,-1
 65 0 l 1,9,-1
 65 496 l 1,10,-1
 212 496 l 1,11,-1
 212 0 l 1,12,13
 172 -15 172 -15 156 -38.5 c 128,-1,14
 140 -62 140 -62 140 -85 c 0,15,16
 140 -105 140 -105 153 -114 c 128,-1,17
 166 -123 166 -123 183 -123 c 0,18,19
 192 -123 192 -123 200.5 -119.5 c 128,-1,20
 209 -116 209 -116 218 -111 c 1,21,-1
 248 -177 l 1,22,23
 229 -192 229 -192 199.5 -201 c 128,-1,24
 170 -210 170 -210 147 -210 c 0,0,1
138 569 m 256,25,26
 101 569 101 569 77 590.5 c 128,-1,27
 53 612 53 612 53 646 c 256,28,29
 53 680 53 680 77 701 c 128,-1,30
 101 722 101 722 138 722 c 256,31,32
 175 722 175 722 199 701 c 128,-1,33
 223 680 223 680 223 646 c 256,34,35
 223 612 223 612 199 590.5 c 128,-1,36
 175 569 175 569 138 569 c 256,25,26
EndSplineSet
Validated: 1
Substitution2: "Single Substitution lookup 49 subtable" iogonek.d
Substitution2: "'smcp' Lowercase to Small Capitals lookup 20 subtable" Iogonek.sc
Ligature2: "'ccmp' Glyph Composition/Decomposition lookup 11 subtable" i uni0328
Substitution2: "'aalt' Access All Alternates lookup 0 subtable" Iogonek.sc
EndChar

StartChar: iogonek.d
Encoding: 1114115 -1 325
Width: 276
GlyphClass: 2
Flags: W
AnchorPoint: "Anchor-0" 138 518 basechar 0
LayerCount: 2
Fore
SplineSet
147 -210 m 0,0,1
 102 -210 102 -210 71.5 -187 c 128,-1,2
 41 -164 41 -164 41 -119 c 0,3,4
 41 -97 41 -97 47.5 -78.5 c 128,-1,5
 54 -60 54 -60 64 -45 c 128,-1,6
 74 -30 74 -30 85.5 -19 c 128,-1,7
 97 -8 97 -8 106 0 c 1,8,-1
 65 0 l 1,9,-1
 65 496 l 1,10,-1
 212 496 l 1,11,-1
 212 0 l 1,12,13
 172 -15 172 -15 156 -38.5 c 128,-1,14
 140 -62 140 -62 140 -85 c 0,15,16
 140 -105 140 -105 153 -114 c 128,-1,17
 166 -123 166 -123 183 -123 c 0,18,19
 192 -123 192 -123 200.5 -119.5 c 128,-1,20
 209 -116 209 -116 218 -111 c 1,21,-1
 248 -177 l 1,22,23
 229 -192 229 -192 199.5 -201 c 128,-1,24
 170 -210 170 -210 147 -210 c 0,0,1
EndSplineSet
Validated: 1
Ligature2: "Ligature Substitution lookup 48 subtable" i uni0328
Substitution2: "'smcp' Lowercase to Small Capitals lookup 20 subtable" Iogonek.sc
Substitution2: "'aalt' Access All Alternates lookup 0 subtable" Iogonek.sc
EndChar

StartChar: dotlessi
Encoding: 305 305 327
Width: 276
GlyphClass: 2
Flags: W
AnchorPoint: "Anchor-7" 179 0 basechar 0
AnchorPoint: "Anchor-4" 138 -22 basechar 0
AnchorPoint: "Anchor-0" 138 518 basechar 0
LayerCount: 2
Fore
SplineSet
65 0 m 1,0,-1
 65 496 l 1,1,-1
 212 496 l 1,2,-1
 212 0 l 1,3,-1
 65 0 l 1,0,-1
EndSplineSet
Validated: 1
EndChar

StartChar: kgreenlandic
Encoding: 312 312 332
Width: 548
Flags: W
LayerCount: 2
Fore
SplineSet
65 0 m 1,0,-1
 65 496 l 1,1,-1
 212 496 l 1,2,-1
 212 296 l 1,3,-1
 215 296 l 1,4,-1
 369 496 l 1,5,-1
 529 496 l 1,6,-1
 359 292 l 1,7,-1
 542 0 l 1,8,-1
 383 0 l 1,9,-1
 271 189 l 1,10,-1
 212 117 l 1,11,-1
 212 0 l 1,12,-1
 65 0 l 1,0,-1
EndSplineSet
Validated: 1
EndChar

StartChar: lslash
Encoding: 322 322 340
Width: 303
Flags: W
LayerCount: 2
Fore
SplineSet
210 -12 m 0,0,1
 172 -12 172 -12 146 0 c 128,-1,2
 120 12 120 12 104.5 33.5 c 128,-1,3
 89 55 89 55 82 85.5 c 128,-1,4
 75 116 75 116 75 154 c 2,5,-1
 75 276 l 1,6,-1
 30 250 l 1,7,-1
 -21 341 l 1,8,-1
 75 395 l 1,9,-1
 75 701 l 1,10,-1
 222 701 l 1,11,-1
 222 467 l 1,12,-1
 270 494 l 1,13,-1
 320 403 l 1,14,-1
 222 348 l 1,15,-1
 222 148 l 2,16,17
 222 125 222 125 230.5 116 c 128,-1,18
 239 107 239 107 248 107 c 0,19,20
 253 107 253 107 256.5 107 c 128,-1,21
 260 107 260 107 266 109 c 1,22,-1
 284 0 l 1,23,24
 272 -5 272 -5 253.5 -8.5 c 128,-1,25
 235 -12 235 -12 210 -12 c 0,0,1
EndSplineSet
Validated: 1
Substitution2: "'ss01' Style Set 1 lookup 36 subtable" lslash.a
Substitution2: "'smcp' Lowercase to Small Capitals lookup 20 subtable" Lslash.sc
AlternateSubs2: "'aalt' Access All Alternates lookup 1 subtable" Lslash.sc lslash.a
EndChar

StartChar: oslash
Encoding: 248 248 370
Width: 555
GlyphClass: 2
Flags: W
AnchorPoint: "Anchor-0" 278 518 basechar 0
LayerCount: 2
Fore
SplineSet
278 -12 m 0,0,1
 204 -12 204 -12 144 28 c 1,2,-1
 101 -25 l 1,3,-1
 46 17 l 1,4,-1
 93 75 l 1,5,6
 67 107 67 107 51.5 150.5 c 128,-1,7
 36 194 36 194 36 248 c 0,8,9
 36 310 36 310 56 358.5 c 128,-1,10
 76 407 76 407 109.5 440 c 128,-1,11
 143 473 143 473 187 490.5 c 128,-1,12
 231 508 231 508 278 508 c 0,13,14
 313 508 313 508 347 498 c 128,-1,15
 381 488 381 488 410 469 c 1,16,-1
 454 523 l 1,17,-1
 509 480 l 1,18,-1
 462 422 l 1,19,20
 488 389 488 389 503.5 345.5 c 128,-1,21
 519 302 519 302 519 248 c 0,22,23
 519 186 519 186 499 137.5 c 128,-1,24
 479 89 479 89 445.5 56 c 128,-1,25
 412 23 412 23 368.5 5.5 c 128,-1,26
 325 -12 325 -12 278 -12 c 0,0,1
178 256 m 0,27,28
 178 216 178 216 185 189 c 1,29,-1
 334 375 l 1,30,31
 312 394 312 394 278 394 c 0,32,33
 232 394 232 394 205 356.5 c 128,-1,34
 178 319 178 319 178 256 c 0,27,28
278 102 m 0,35,36
 323 102 323 102 350 139.5 c 128,-1,37
 377 177 377 177 377 240 c 0,38,39
 377 281 377 281 370 308 c 1,40,-1
 220 122 l 1,41,42
 243 102 243 102 278 102 c 0,35,36
EndSplineSet
Validated: 1
Substitution2: "'smcp' Lowercase to Small Capitals lookup 20 subtable" Oslash.sc
Substitution2: "'aalt' Access All Alternates lookup 0 subtable" Oslash.sc
EndChar

StartChar: oe
Encoding: 339 339 371
Width: 822
GlyphClass: 2
Flags: W
AnchorPoint: "Anchor-0" 426 518 basechar 0
LayerCount: 2
Fore
SplineSet
267 -12 m 0,0,1
 219 -12 219 -12 177 5.5 c 128,-1,2
 135 23 135 23 103.5 56 c 128,-1,3
 72 89 72 89 54 137.5 c 128,-1,4
 36 186 36 186 36 248 c 256,5,6
 36 310 36 310 55 358.5 c 128,-1,7
 74 407 74 407 106 440 c 128,-1,8
 138 473 138 473 180.5 490.5 c 128,-1,9
 223 508 223 508 270 508 c 0,10,11
 323 508 323 508 362.5 485 c 128,-1,12
 402 462 402 462 431 421 c 1,13,14
 461 463 461 463 502 485.5 c 128,-1,15
 543 508 543 508 588 508 c 0,16,17
 637 508 637 508 674 489.5 c 128,-1,18
 711 471 711 471 736 438.5 c 128,-1,19
 761 406 761 406 773.5 362 c 128,-1,20
 786 318 786 318 786 267 c 0,21,22
 786 247 786 247 784 230.5 c 128,-1,23
 782 214 782 214 780 205 c 1,24,-1
 493 205 l 1,25,26
 501 153 501 153 534 128 c 128,-1,27
 567 103 567 103 612 103 c 0,28,29
 640 103 640 103 665 113 c 128,-1,30
 690 123 690 123 717 139 c 1,31,-1
 768 44 l 1,32,33
 730 18 730 18 683 3 c 128,-1,34
 636 -12 636 -12 592 -12 c 0,35,36
 547 -12 547 -12 505 10.5 c 128,-1,37
 463 33 463 33 432 75 c 1,38,39
 401 32 401 32 361.5 10 c 128,-1,40
 322 -12 322 -12 267 -12 c 0,0,1
270 107 m 256,41,42
 311 107 311 107 334 145 c 128,-1,43
 357 183 357 183 357 248 c 256,44,45
 357 313 357 313 334 351 c 128,-1,46
 311 389 311 389 270 389 c 256,47,48
 229 389 229 389 207 351 c 128,-1,49
 185 313 185 313 185 248 c 256,50,51
 185 183 185 183 207 145 c 128,-1,52
 229 107 229 107 270 107 c 256,41,42
493 295 m 1,53,-1
 660 295 l 1,54,55
 660 340 660 340 642 368 c 128,-1,56
 624 396 624 396 583 396 c 0,57,58
 548 396 548 396 523.5 371.5 c 128,-1,59
 499 347 499 347 493 295 c 1,53,-1
EndSplineSet
Validated: 1
Substitution2: "'smcp' Lowercase to Small Capitals lookup 20 subtable" OE.sc
Substitution2: "'aalt' Access All Alternates lookup 0 subtable" OE.sc
EndChar

StartChar: ohorn
Encoding: 417 417 372
Width: 555
GlyphClass: 2
Flags: W
AnchorPoint: "Anchor-4" 278 -22 basechar 0
AnchorPoint: "Anchor-0" 278 518 basechar 0
LayerCount: 2
Fore
SplineSet
278 -12 m 256,0,1
 231 -12 231 -12 187 5.5 c 128,-1,2
 143 23 143 23 109.5 56 c 128,-1,3
 76 89 76 89 56 137.5 c 128,-1,4
 36 186 36 186 36 248 c 256,5,6
 36 310 36 310 56 358.5 c 128,-1,7
 76 407 76 407 109.5 440 c 128,-1,8
 143 473 143 473 187 490.5 c 128,-1,9
 231 508 231 508 278 508 c 0,10,11
 328 508 328 508 374 488 c 1,12,13
 404 496 404 496 423 516 c 128,-1,14
 442 536 442 536 442 578 c 0,15,16
 442 595 442 595 437.5 609.5 c 128,-1,17
 433 624 433 624 426 635 c 1,18,-1
 535 682 l 1,19,20
 546 667 546 667 555.5 641.5 c 128,-1,21
 565 616 565 616 565 588 c 0,22,23
 565 558 565 558 555.5 534 c 128,-1,24
 546 510 546 510 529.5 491.5 c 128,-1,25
 513 473 513 473 491.5 460 c 128,-1,26
 470 447 470 447 445 440 c 1,27,28
 479 406 479 406 499 358 c 128,-1,29
 519 310 519 310 519 248 c 256,30,31
 519 186 519 186 499 137.5 c 128,-1,32
 479 89 479 89 445.5 56 c 128,-1,33
 412 23 412 23 368.5 5.5 c 128,-1,34
 325 -12 325 -12 278 -12 c 256,0,1
278 107 m 0,35,36
 323 107 323 107 346 145 c 128,-1,37
 369 183 369 183 369 248 c 256,38,39
 369 313 369 313 346 351 c 128,-1,40
 323 389 323 389 278 389 c 0,41,42
 232 389 232 389 209.5 351 c 128,-1,43
 187 313 187 313 187 248 c 256,44,45
 187 183 187 183 209.5 145 c 128,-1,46
 232 107 232 107 278 107 c 0,35,36
EndSplineSet
Validated: 1
Substitution2: "'smcp' Lowercase to Small Capitals lookup 20 subtable" Ohorn.sc
Substitution2: "'aalt' Access All Alternates lookup 0 subtable" Ohorn.sc
EndChar

StartChar: uni01EB
Encoding: 491 491 378
Width: 555
GlyphClass: 2
Flags: W
AnchorPoint: "Anchor-0" 278 518 basechar 0
LayerCount: 2
Fore
SplineSet
297 -210 m 0,0,1
 252 -210 252 -210 221.5 -187 c 128,-1,2
 191 -164 191 -164 191 -119 c 0,3,4
 191 -100 191 -100 196.5 -83.5 c 128,-1,5
 202 -67 202 -67 210 -53 c 128,-1,6
 218 -39 218 -39 227.5 -28.5 c 128,-1,7
 237 -18 237 -18 246 -10 c 1,8,9
 204 -5 204 -5 165.5 15 c 128,-1,10
 127 35 127 35 98.5 68 c 128,-1,11
 70 101 70 101 53 146 c 128,-1,12
 36 191 36 191 36 248 c 0,13,14
 36 310 36 310 56 358.5 c 128,-1,15
 76 407 76 407 109.5 440 c 128,-1,16
 143 473 143 473 187 490.5 c 128,-1,17
 231 508 231 508 278 508 c 256,18,19
 325 508 325 508 368.5 490.5 c 128,-1,20
 412 473 412 473 445.5 440 c 128,-1,21
 479 407 479 407 499 358.5 c 128,-1,22
 519 310 519 310 519 248 c 0,23,24
 519 198 519 198 507.5 160 c 128,-1,25
 496 122 496 122 474.5 92 c 128,-1,26
 453 62 453 62 423 39.5 c 128,-1,27
 393 17 393 17 357 0 c 0,28,29
 320 -17 320 -17 305 -40 c 128,-1,30
 290 -63 290 -63 290 -85 c 0,31,32
 290 -105 290 -105 303 -114 c 128,-1,33
 316 -123 316 -123 332 -123 c 0,34,35
 342 -123 342 -123 351 -119.5 c 128,-1,36
 360 -116 360 -116 368 -111 c 1,37,-1
 398 -177 l 1,38,39
 379 -192 379 -192 350 -201 c 128,-1,40
 321 -210 321 -210 297 -210 c 0,0,1
278 107 m 0,41,42
 323 107 323 107 346 145 c 128,-1,43
 369 183 369 183 369 248 c 256,44,45
 369 313 369 313 346 351 c 128,-1,46
 323 389 323 389 278 389 c 0,47,48
 232 389 232 389 209.5 351 c 128,-1,49
 187 313 187 313 187 248 c 256,50,51
 187 183 187 183 209.5 145 c 128,-1,52
 232 107 232 107 278 107 c 0,41,42
EndSplineSet
Validated: 1
Substitution2: "'smcp' Lowercase to Small Capitals lookup 20 subtable" uni01EA.sc
Ligature2: "'ccmp' Glyph Composition/Decomposition lookup 11 subtable" o uni0328
Substitution2: "'aalt' Access All Alternates lookup 0 subtable" uni01EA.sc
EndChar

StartChar: germandbls
Encoding: 223 223 393
Width: 632
Flags: W
LayerCount: 2
Fore
SplineSet
421 -12 m 256,0,1
 376 -12 376 -12 341 0 c 128,-1,2
 306 12 306 12 270 33 c 1,3,-1
 321 133 l 1,4,5
 370 97 370 97 416 97 c 0,6,7
 442 97 442 97 456.5 110.5 c 128,-1,8
 471 124 471 124 471 145 c 0,9,10
 471 164 471 164 458 177.5 c 128,-1,11
 445 191 445 191 425.5 202.5 c 128,-1,12
 406 214 406 214 383 226.5 c 128,-1,13
 360 239 360 239 340.5 255.5 c 128,-1,14
 321 272 321 272 308 294.5 c 128,-1,15
 295 317 295 317 295 350 c 0,16,17
 295 379 295 379 306 400 c 128,-1,18
 317 421 317 421 330.5 440 c 128,-1,19
 344 459 344 459 355 479.5 c 128,-1,20
 366 500 366 500 366 527 c 0,21,22
 366 556 366 556 349.5 575.5 c 128,-1,23
 333 595 333 595 302 595 c 0,24,25
 256 595 256 595 233 561.5 c 128,-1,26
 210 528 210 528 210 470 c 2,27,-1
 210 0 l 1,28,-1
 65 0 l 1,29,-1
 65 487 l 2,30,31
 65 535 65 535 79.5 576 c 128,-1,32
 94 617 94 617 123 647 c 128,-1,33
 152 677 152 677 197 694 c 128,-1,34
 242 711 242 711 302 711 c 0,35,36
 353 711 353 711 391.5 697 c 128,-1,37
 430 683 430 683 455.5 659.5 c 128,-1,38
 481 636 481 636 494 606 c 128,-1,39
 507 576 507 576 507 544 c 0,40,41
 507 508 507 508 495 483.5 c 128,-1,42
 483 459 483 459 468 439.5 c 128,-1,43
 453 420 453 420 441 403.5 c 128,-1,44
 429 387 429 387 429 368 c 0,45,46
 429 351 429 351 442 339.5 c 128,-1,47
 455 328 455 328 474.5 317 c 128,-1,48
 494 306 494 306 517 293 c 128,-1,49
 540 280 540 280 559.5 261.5 c 128,-1,50
 579 243 579 243 592 216.5 c 128,-1,51
 605 190 605 190 605 152 c 0,52,53
 605 118 605 118 593.5 88 c 128,-1,54
 582 58 582 58 558.5 36 c 128,-1,55
 535 14 535 14 500.5 1 c 128,-1,56
 466 -12 466 -12 421 -12 c 256,0,1
EndSplineSet
Validated: 1
Substitution2: "'smcp' Lowercase to Small Capitals lookup 20 subtable" uni1E9E.sc
Substitution2: "'aalt' Access All Alternates lookup 0 subtable" uni1E9E.sc
EndChar

StartChar: uni0167
Encoding: 359 359 400
Width: 383
Flags: W
LayerCount: 2
Fore
SplineSet
17 223 m 1,0,-1
 17 288 l 1,1,-1
 85 293 l 1,2,-1
 85 381 l 1,3,-1
 17 381 l 1,4,-1
 17 490 l 1,5,-1
 93 496 l 1,6,-1
 110 628 l 1,7,-1
 232 628 l 1,8,-1
 232 496 l 1,9,-1
 351 496 l 1,10,-1
 351 381 l 1,11,-1
 232 381 l 1,12,-1
 232 294 l 1,13,-1
 351 294 l 1,14,-1
 351 223 l 1,15,-1
 232 223 l 1,16,-1
 232 182 l 2,17,18
 232 140 232 140 249.5 121.5 c 128,-1,19
 267 103 267 103 296 103 c 0,20,21
 308 103 308 103 320.5 106 c 128,-1,22
 333 109 333 109 343 113 c 1,23,-1
 366 6 l 1,24,25
 346 0 346 0 319 -6 c 128,-1,26
 292 -12 292 -12 256 -12 c 0,27,28
 210 -12 210 -12 177.5 2 c 128,-1,29
 145 16 145 16 124.5 41 c 128,-1,30
 104 66 104 66 94.5 101.5 c 128,-1,31
 85 137 85 137 85 180 c 2,32,-1
 85 223 l 1,33,-1
 17 223 l 1,0,-1
EndSplineSet
Validated: 1
Substitution2: "'smcp' Lowercase to Small Capitals lookup 20 subtable" uni0166.sc
Substitution2: "'aalt' Access All Alternates lookup 0 subtable" uni0166.sc
EndChar

StartChar: uogonek
Encoding: 371 371 417
Width: 568
GlyphClass: 2
Flags: W
AnchorPoint: "Anchor-0" 276 502 basechar 0
LayerCount: 2
Fore
SplineSet
423 -210 m 0,0,1
 378 -210 378 -210 347.5 -187 c 128,-1,2
 317 -164 317 -164 317 -119 c 0,3,4
 317 -97 317 -97 324 -78.5 c 128,-1,5
 331 -60 331 -60 341.5 -45 c 128,-1,6
 352 -30 352 -30 364 -19.5 c 128,-1,7
 376 -9 376 -9 386 -2 c 1,8,-1
 373 69 l 1,9,-1
 370 69 l 1,10,11
 338 31 338 31 301.5 9.5 c 128,-1,12
 265 -12 265 -12 214 -12 c 0,13,14
 133 -12 133 -12 96.5 41 c 128,-1,15
 60 94 60 94 60 188 c 2,16,-1
 60 496 l 1,17,-1
 207 496 l 1,18,-1
 207 207 l 2,19,20
 207 153 207 153 222 133 c 128,-1,21
 237 113 237 113 269 113 c 0,22,23
 297 113 297 113 316 126 c 128,-1,24
 335 139 335 139 357 168 c 1,25,-1
 357 496 l 1,26,-1
 504 496 l 1,27,-1
 504 0 l 1,28,29
 454 -15 454 -15 435 -38.5 c 128,-1,30
 416 -62 416 -62 416 -85 c 0,31,32
 416 -105 416 -105 429 -114 c 128,-1,33
 442 -123 442 -123 458 -123 c 0,34,35
 468 -123 468 -123 477.5 -119.5 c 128,-1,36
 487 -116 487 -116 494 -111 c 1,37,-1
 524 -177 l 1,38,39
 505 -192 505 -192 475.5 -201 c 128,-1,40
 446 -210 446 -210 423 -210 c 0,0,1
EndSplineSet
Validated: 1
Substitution2: "'smcp' Lowercase to Small Capitals lookup 20 subtable" Uogonek.sc
Ligature2: "'ccmp' Glyph Composition/Decomposition lookup 11 subtable" u uni0328
Substitution2: "'aalt' Access All Alternates lookup 0 subtable" Uogonek.sc
EndChar

StartChar: uhorn
Encoding: 432 432 418
Width: 568
GlyphClass: 2
Flags: W
AnchorPoint: "Anchor-4" 300 -22 basechar 0
AnchorPoint: "Anchor-0" 282 518 basechar 0
LayerCount: 2
Fore
SplineSet
214 -12 m 0,0,1
 133 -12 133 -12 96.5 41 c 128,-1,2
 60 94 60 94 60 188 c 2,3,-1
 60 496 l 1,4,-1
 207 496 l 1,5,-1
 207 207 l 2,6,7
 207 153 207 153 222 133 c 128,-1,8
 237 113 237 113 269 113 c 0,9,10
 297 113 297 113 316 126 c 128,-1,11
 335 139 335 139 357 168 c 1,12,-1
 357 496 l 1,13,-1
 403 496 l 2,14,15
 417 497 417 497 431.5 500.5 c 128,-1,16
 446 504 446 504 457.5 514 c 128,-1,17
 469 524 469 524 476.5 541.5 c 128,-1,18
 484 559 484 559 484 588 c 0,19,20
 484 605 484 605 479 619.5 c 128,-1,21
 474 634 474 634 469 645 c 1,22,-1
 577 692 l 1,23,24
 589 677 589 677 598 651.5 c 128,-1,25
 607 626 607 626 607 598 c 0,26,27
 607 537 607 537 576.5 501 c 128,-1,28
 546 465 546 465 504 451 c 1,29,-1
 504 0 l 1,30,-1
 384 0 l 1,31,-1
 373 69 l 1,32,-1
 370 69 l 1,33,34
 338 31 338 31 301.5 9.5 c 128,-1,35
 265 -12 265 -12 214 -12 c 0,0,1
EndSplineSet
Validated: 1
Substitution2: "'smcp' Lowercase to Small Capitals lookup 20 subtable" Uhorn.sc
Substitution2: "'aalt' Access All Alternates lookup 0 subtable" Uhorn.sc
EndChar

StartChar: eth
Encoding: 240 240 441
Width: 560
Flags: W
LayerCount: 2
Fore
SplineSet
273 -12 m 0,0,1
 226 -12 226 -12 184.5 5 c 128,-1,2
 143 22 143 22 111 53 c 128,-1,3
 79 84 79 84 60.5 128.5 c 128,-1,4
 42 173 42 173 42 228 c 0,5,6
 42 282 42 282 59 324 c 128,-1,7
 76 366 76 366 104.5 395 c 128,-1,8
 133 424 133 424 169.5 439.5 c 128,-1,9
 206 455 206 455 245 455 c 0,10,11
 274 455 274 455 302 445.5 c 128,-1,12
 330 436 330 436 351 413 c 1,13,14
 325 490 325 490 266 546 c 1,15,-1
 124 475 l 1,16,-1
 86 540 l 1,17,-1
 202 598 l 1,18,19
 182 612 182 612 159.5 625 c 128,-1,20
 137 638 137 638 112 651 c 1,21,-1
 176 740 l 1,22,23
 211 722 211 722 246 701 c 128,-1,24
 281 680 281 680 314 655 c 1,25,-1
 457 727 l 1,26,-1
 495 662 l 1,27,-1
 375 601 l 1,28,29
 434 541 434 541 472 459.5 c 128,-1,30
 510 378 510 378 510 266 c 0,31,32
 510 206 510 206 493.5 155 c 128,-1,33
 477 104 477 104 446.5 67 c 128,-1,34
 416 30 416 30 372 9 c 128,-1,35
 328 -12 328 -12 273 -12 c 0,0,1
278 107 m 0,36,37
 320 107 320 107 346.5 143.5 c 128,-1,38
 373 180 373 180 373 258 c 0,39,40
 373 270 373 270 373 281 c 128,-1,41
 373 292 373 292 372 303 c 1,42,43
 349 328 349 328 325 337 c 128,-1,44
 301 346 301 346 275 346 c 0,45,46
 231 346 231 346 203.5 317 c 128,-1,47
 176 288 176 288 176 228 c 0,48,49
 176 169 176 169 206.5 138 c 128,-1,50
 237 107 237 107 278 107 c 0,36,37
EndSplineSet
Validated: 1
Substitution2: "'smcp' Lowercase to Small Capitals lookup 20 subtable" Eth.sc
Substitution2: "'aalt' Access All Alternates lookup 0 subtable" Eth.sc
EndChar

StartChar: thorn
Encoding: 254 254 442
Width: 573
GlyphClass: 2
Flags: W
AnchorPoint: "Anchor-4" 293 -22 basechar 0
AnchorPoint: "Anchor-0" 140 730 basechar 0
LayerCount: 2
Fore
SplineSet
65 -184 m 1,0,-1
 65 701 l 1,1,-1
 212 701 l 1,2,-1
 212 529 l 1,3,-1
 208 459 l 1,4,5
 234 482 234 482 266 495 c 128,-1,6
 298 508 298 508 332 508 c 0,7,8
 379 508 379 508 416.5 490 c 128,-1,9
 454 472 454 472 480 439 c 128,-1,10
 506 406 506 406 520 359.5 c 128,-1,11
 534 313 534 313 534 256 c 0,12,13
 534 192 534 192 516.5 142.5 c 128,-1,14
 499 93 499 93 469.5 58.5 c 128,-1,15
 440 24 440 24 402.5 6 c 128,-1,16
 365 -12 365 -12 325 -12 c 0,17,18
 289 -12 289 -12 261.5 0 c 128,-1,19
 234 12 234 12 208 35 c 1,20,-1
 212 -39 l 1,21,-1
 212 -184 l 1,22,-1
 65 -184 l 1,0,-1
291 108 m 0,23,24
 329 108 329 108 356 142.5 c 128,-1,25
 383 177 383 177 383 254 c 0,26,27
 383 388 383 388 297 388 c 0,28,29
 254 388 254 388 212 343 c 1,30,-1
 212 140 l 1,31,32
 232 122 232 122 252 115 c 128,-1,33
 272 108 272 108 291 108 c 0,23,24
EndSplineSet
Validated: 1
Substitution2: "'smcp' Lowercase to Small Capitals lookup 20 subtable" Thorn.sc
Substitution2: "'aalt' Access All Alternates lookup 0 subtable" Thorn.sc
EndChar

StartChar: uni014B
Encoding: 331 331 443
Width: 572
GlyphClass: 2
Flags: W
AnchorPoint: "Anchor-0" 308 518 basechar 0
LayerCount: 2
Fore
SplineSet
335 -187 m 0,0,1
 304 -187 304 -187 283.5 -183 c 128,-1,2
 263 -179 263 -179 247 -173 c 1,3,-1
 274 -65 l 1,4,5
 293 -71 293 -71 312 -71 c 0,6,7
 342 -71 342 -71 353.5 -52 c 128,-1,8
 365 -33 365 -33 365 9 c 2,9,-1
 365 289 l 2,10,11
 365 343 365 343 350.5 363 c 128,-1,12
 336 383 336 383 304 383 c 0,13,14
 276 383 276 383 256 370.5 c 128,-1,15
 236 358 236 358 212 335 c 1,16,-1
 212 0 l 1,17,-1
 65 0 l 1,18,-1
 65 496 l 1,19,-1
 185 496 l 1,20,-1
 195 433 l 1,21,-1
 199 433 l 1,22,23
 231 463 231 463 269 485.5 c 128,-1,24
 307 508 307 508 358 508 c 0,25,26
 439 508 439 508 475.5 455 c 128,-1,27
 512 402 512 402 512 308 c 2,28,-1
 512 13 l 2,29,30
 512 -28 512 -28 503.5 -64.5 c 128,-1,31
 495 -101 495 -101 474.5 -128 c 128,-1,32
 454 -155 454 -155 420 -171 c 128,-1,33
 386 -187 386 -187 335 -187 c 0,0,1
EndSplineSet
Validated: 1
Substitution2: "'smcp' Lowercase to Small Capitals lookup 20 subtable" uni014A.sc
Substitution2: "'aalt' Access All Alternates lookup 0 subtable" uni014A.sc
EndChar

StartChar: uni0237
Encoding: 567 567 444
Width: 278
GlyphClass: 2
Flags: W
AnchorPoint: "Anchor-0" 140 518 basechar 0
LayerCount: 2
Fore
SplineSet
36 -196 m 0,0,1
 5 -196 5 -196 -15.5 -192 c 128,-1,2
 -36 -188 -36 -188 -51 -182 c 1,3,-1
 -25 -74 l 1,4,5
 -15 -77 -15 -77 -6 -79 c 128,-1,6
 3 -81 3 -81 14 -81 c 0,7,8
 43 -81 43 -81 54.5 -62 c 128,-1,9
 66 -43 66 -43 66 -1 c 2,10,-1
 66 496 l 1,11,-1
 213 496 l 1,12,-1
 213 3 l 2,13,14
 213 -38 213 -38 204.5 -74 c 128,-1,15
 196 -110 196 -110 175.5 -137 c 128,-1,16
 155 -164 155 -164 121 -180 c 128,-1,17
 87 -196 87 -196 36 -196 c 0,0,1
EndSplineSet
Validated: 1
EndChar

StartChar: uni0133
Encoding: 307 307 445
Width: 554
Flags: W
LayerCount: 2
Fore
SplineSet
65 0 m 1,0,-1
 65 496 l 1,1,-1
 212 496 l 1,2,-1
 212 0 l 1,3,-1
 65 0 l 1,0,-1
138 569 m 0,4,5
 101 569 101 569 77 590.5 c 128,-1,6
 53 612 53 612 53 646 c 256,7,8
 53 680 53 680 77 701 c 128,-1,9
 101 722 101 722 138 722 c 0,10,11
 176 722 176 722 199.5 701 c 128,-1,12
 223 680 223 680 223 646 c 256,13,14
 223 612 223 612 199.5 590.5 c 128,-1,15
 176 569 176 569 138 569 c 0,4,5
312 -196 m 0,16,17
 281 -196 281 -196 260.5 -192 c 128,-1,18
 240 -188 240 -188 225 -182 c 1,19,-1
 251 -74 l 1,20,21
 261 -77 261 -77 270 -79 c 128,-1,22
 279 -81 279 -81 290 -81 c 0,23,24
 319 -81 319 -81 330.5 -62 c 128,-1,25
 342 -43 342 -43 342 -1 c 2,26,-1
 342 496 l 1,27,-1
 489 496 l 1,28,-1
 489 3 l 2,29,30
 489 -38 489 -38 480.5 -74 c 128,-1,31
 472 -110 472 -110 451.5 -137 c 128,-1,32
 431 -164 431 -164 397 -180 c 128,-1,33
 363 -196 363 -196 312 -196 c 0,16,17
416 569 m 256,34,35
 379 569 379 569 355 590.5 c 128,-1,36
 331 612 331 612 331 646 c 256,37,38
 331 680 331 680 355 701 c 128,-1,39
 379 722 379 722 416 722 c 256,40,41
 453 722 453 722 477 701 c 128,-1,42
 501 680 501 680 501 646 c 256,43,44
 501 612 501 612 477 590.5 c 128,-1,45
 453 569 453 569 416 569 c 256,34,35
EndSplineSet
Validated: 1
Substitution2: "'smcp' Lowercase to Small Capitals lookup 20 subtable" uni0132.sc
Substitution2: "'aalt' Access All Alternates lookup 0 subtable" uni0132.sc
EndChar

StartChar: uni0250
Encoding: 592 592 446
Width: 534
GlyphClass: 2
Flags: W
AnchorPoint: "Anchor-7" 354 0 basechar 0
AnchorPoint: "Anchor-4" 285 -22 basechar 0
AnchorPoint: "Anchor-0" 282 518 basechar 0
LayerCount: 2
Fore
SplineSet
277 -12 m 0,0,1
 171 -12 171 -12 114.5 45.5 c 128,-1,2
 58 103 58 103 58 218 c 2,3,-1
 58 496 l 1,4,-1
 178 496 l 1,5,-1
 189 435 l 1,6,-1
 193 435 l 1,7,8
 222 468 222 468 261 488 c 128,-1,9
 300 508 300 508 350 508 c 0,10,11
 414 508 414 508 449.5 469.5 c 128,-1,12
 485 431 485 431 485 372 c 0,13,14
 485 292 485 292 419 241.5 c 128,-1,15
 353 191 353 191 205 175 c 1,16,17
 208 143 208 143 229.5 124 c 128,-1,18
 251 105 251 105 299 105 c 0,19,20
 331 105 331 105 361 117.5 c 128,-1,21
 391 130 391 130 427 150 c 1,22,-1
 479 53 l 1,23,24
 434 24 434 24 383 6 c 128,-1,25
 332 -12 332 -12 277 -12 c 0,0,1
205 265 m 1,26,27
 284 276 284 276 314 298 c 128,-1,28
 344 320 344 320 344 349 c 0,29,30
 344 372 344 372 330 383 c 128,-1,31
 316 394 316 394 294 394 c 0,32,33
 269 394 269 394 247.5 380.5 c 128,-1,34
 226 367 226 367 205 342 c 1,35,-1
 205 265 l 1,26,27
EndSplineSet
Validated: 1
EndChar

StartChar: uni0252
Encoding: 594 594 447
Width: 573
GlyphClass: 2
Flags: W
AnchorPoint: "Anchor-4" 293 -22 basechar 0
AnchorPoint: "Anchor-0" 302 518 basechar 0
LayerCount: 2
Fore
SplineSet
325 -12 m 0,0,1
 293 -12 293 -12 259.5 2.5 c 128,-1,2
 226 17 226 17 196 49 c 1,3,-1
 192 49 l 1,4,-1
 180 0 l 1,5,-1
 65 0 l 1,6,-1
 65 496 l 1,7,-1
 185 496 l 1,8,-1
 195 447 l 1,9,-1
 199 447 l 1,10,11
 228 473 228 473 264.5 490.5 c 128,-1,12
 301 508 301 508 340 508 c 0,13,14
 385 508 385 508 421 490 c 128,-1,15
 457 472 457 472 482 439 c 128,-1,16
 507 406 507 406 520.5 359.5 c 128,-1,17
 534 313 534 313 534 256 c 0,18,19
 534 192 534 192 516.5 142.5 c 128,-1,20
 499 93 499 93 469.5 58.5 c 128,-1,21
 440 24 440 24 402.5 6 c 128,-1,22
 365 -12 365 -12 325 -12 c 0,0,1
291 108 m 0,23,24
 329 108 329 108 356 142.5 c 128,-1,25
 383 177 383 177 383 254 c 0,26,27
 383 388 383 388 297 388 c 0,28,29
 254 388 254 388 212 343 c 1,30,-1
 212 140 l 1,31,32
 232 122 232 122 252 115 c 128,-1,33
 272 108 272 108 291 108 c 0,23,24
EndSplineSet
Validated: 1
EndChar

StartChar: uni0253
Encoding: 595 595 448
Width: 573
GlyphClass: 2
Flags: W
AnchorPoint: "Anchor-4" 293 -22 basechar 0
LayerCount: 2
Fore
SplineSet
325 -12 m 0,0,1
 292 -12 292 -12 258.5 4 c 128,-1,2
 225 20 225 20 196 52 c 1,3,-1
 192 52 l 1,4,-1
 180 0 l 1,5,-1
 65 0 l 1,6,-1
 65 500 l 2,7,8
 65 543 65 543 76 581.5 c 128,-1,9
 87 620 87 620 111 649.5 c 128,-1,10
 135 679 135 679 174 696 c 128,-1,11
 213 713 213 713 269 713 c 0,12,13
 300 713 300 713 325.5 707 c 128,-1,14
 351 701 351 701 368 695 c 1,15,-1
 341 587 l 1,16,17
 329 592 329 592 315.5 594.5 c 128,-1,18
 302 597 302 597 290 597 c 0,19,20
 252 597 252 597 233 575.5 c 128,-1,21
 214 554 214 554 210 504 c 2,22,-1
 208 437 l 1,23,24
 237 462 237 462 270.5 477 c 128,-1,25
 304 492 304 492 339 492 c 0,26,27
 384 492 384 492 420 474.5 c 128,-1,28
 456 457 456 457 481.5 425.5 c 128,-1,29
 507 394 507 394 520.5 348.5 c 128,-1,30
 534 303 534 303 534 248 c 0,31,32
 534 186 534 186 516.5 137.5 c 128,-1,33
 499 89 499 89 469.5 56 c 128,-1,34
 440 23 440 23 402.5 5.5 c 128,-1,35
 365 -12 365 -12 325 -12 c 0,0,1
291 108 m 0,36,37
 329 108 329 108 356 140.5 c 128,-1,38
 383 173 383 173 383 246 c 0,39,40
 383 371 383 371 297 371 c 0,41,42
 274 371 274 371 253.5 360.5 c 128,-1,43
 233 350 233 350 212 327 c 1,44,-1
 212 140 l 1,45,46
 232 122 232 122 252 115 c 128,-1,47
 272 108 272 108 291 108 c 0,36,37
EndSplineSet
Validated: 1
EndChar

StartChar: uni0254
Encoding: 596 596 449
Width: 467
Flags: W
LayerCount: 2
Fore
SplineSet
186 -12 m 0,0,1
 145 -12 145 -12 102 1.5 c 128,-1,2
 59 15 59 15 23 47 c 1,3,-1
 80 143 l 1,4,5
 100 128 100 128 122.5 117.5 c 128,-1,6
 145 107 145 107 170 107 c 0,7,8
 218 107 218 107 249.5 145 c 128,-1,9
 281 183 281 183 281 248 c 256,10,11
 281 313 281 313 251 351 c 128,-1,12
 221 389 221 389 175 389 c 0,13,14
 150 389 150 389 133 382.5 c 128,-1,15
 116 376 116 376 98 360 c 1,16,-1
 28 455 l 1,17,18
 57 478 57 478 98 493 c 128,-1,19
 139 508 139 508 192 508 c 0,20,21
 240 508 240 508 283.5 491 c 128,-1,22
 327 474 327 474 360 441 c 128,-1,23
 393 408 393 408 412.5 359.5 c 128,-1,24
 432 311 432 311 432 248 c 0,25,26
 432 186 432 186 413 137.5 c 128,-1,27
 394 89 394 89 360.5 56 c 128,-1,28
 327 23 327 23 282 5.5 c 128,-1,29
 237 -12 237 -12 186 -12 c 0,0,1
EndSplineSet
Validated: 1
EndChar

StartChar: uni0255
Encoding: 597 597 450
Width: 467
GlyphClass: 2
Flags: W
AnchorPoint: "Anchor-0" 286 518 basechar 0
LayerCount: 2
Fore
SplineSet
294 100 m 0,0,1
 320 100 320 100 334.5 112 c 128,-1,2
 349 124 349 124 349 141 c 0,3,4
 349 153 349 153 340 164 c 128,-1,5
 331 175 331 175 311 175 c 0,6,7
 273 175 273 175 231 122 c 1,8,9
 259 100 259 100 294 100 c 0,0,1
137 -73 m 1,10,-1
 23 -23 l 1,11,12
 36 9 36 9 49.5 38 c 128,-1,13
 63 67 63 67 79 93 c 1,14,15
 59 124 59 124 47.5 162.5 c 128,-1,16
 36 201 36 201 36 248 c 0,17,18
 36 310 36 310 57 358.5 c 128,-1,19
 78 407 78 407 113.5 440 c 128,-1,20
 149 473 149 473 196 490.5 c 128,-1,21
 243 508 243 508 294 508 c 0,22,23
 340 508 340 508 375.5 493 c 128,-1,24
 411 478 411 478 439 455 c 1,25,-1
 375 367 l 1,26,27
 340 396 340 396 303 396 c 0,28,29
 246 396 246 396 212 356.5 c 128,-1,30
 178 317 178 317 178 248 c 0,31,32
 178 230 178 230 181 215 c 1,33,34
 250 272 250 272 323 272 c 0,35,36
 386 272 386 272 422 237 c 128,-1,37
 458 202 458 202 458 141 c 0,38,39
 458 109 458 109 446.5 81 c 128,-1,40
 435 53 435 53 413 32.5 c 128,-1,41
 391 12 391 12 360 0 c 128,-1,42
 329 -12 329 -12 289 -12 c 0,43,44
 223 -12 223 -12 169 14 c 1,45,46
 160 -6 160 -6 152.5 -27.5 c 128,-1,47
 145 -49 145 -49 137 -73 c 1,10,-1
EndSplineSet
Validated: 1
EndChar

StartChar: uni0256
Encoding: 598 598 451
Width: 573
Flags: W
LayerCount: 2
Fore
SplineSet
528 -187 m 0,0,1
 486 -187 486 -187 455.5 -174.5 c 128,-1,2
 425 -162 425 -162 405 -141.5 c 128,-1,3
 385 -121 385 -121 375.5 -93.5 c 128,-1,4
 366 -66 366 -66 366 -36 c 2,5,-1
 367 43 l 1,6,7
 341 19 341 19 309 3.5 c 128,-1,8
 277 -12 277 -12 242 -12 c 0,9,10
 196 -12 196 -12 158.5 6 c 128,-1,11
 121 24 121 24 94.5 57.5 c 128,-1,12
 68 91 68 91 53.5 139 c 128,-1,13
 39 187 39 187 39 248 c 256,14,15
 39 309 39 309 56.5 357 c 128,-1,16
 74 405 74 405 102.5 438.5 c 128,-1,17
 131 472 131 472 168.5 490 c 128,-1,18
 206 508 206 508 245 508 c 0,19,20
 287 508 287 508 314 494 c 128,-1,21
 341 480 341 480 367 456 c 1,22,-1
 361 532 l 1,23,-1
 361 713 l 1,24,-1
 508 713 l 1,25,-1
 508 -1 l 2,26,27
 508 -38 508 -38 517.5 -54.5 c 128,-1,28
 527 -71 527 -71 551 -71 c 0,29,30
 565 -71 565 -71 580 -65 c 1,31,-1
 606 -173 l 1,32,33
 592 -179 592 -179 574 -183 c 128,-1,34
 556 -187 556 -187 528 -187 c 0,0,1
280 108 m 0,35,36
 304 108 304 108 323.5 118 c 128,-1,37
 343 128 343 128 361 153 c 1,38,-1
 361 356 l 1,39,40
 341 374 341 374 320 381 c 128,-1,41
 299 388 299 388 279 388 c 0,42,43
 244 388 244 388 217 354.5 c 128,-1,44
 190 321 190 321 190 250 c 0,45,46
 190 176 190 176 213.5 142 c 128,-1,47
 237 108 237 108 280 108 c 0,35,36
EndSplineSet
Validated: 1
EndChar

StartChar: uni0257
Encoding: 599 599 452
Width: 573
GlyphClass: 2
Flags: W
AnchorPoint: "Anchor-4" 312 -22 basechar 0
LayerCount: 2
Fore
SplineSet
242 -12 m 0,0,1
 196 -12 196 -12 158.5 6 c 128,-1,2
 121 24 121 24 94.5 57.5 c 128,-1,3
 68 91 68 91 53.5 139 c 128,-1,4
 39 187 39 187 39 248 c 256,5,6
 39 309 39 309 56.5 357 c 128,-1,7
 74 405 74 405 102.5 438.5 c 128,-1,8
 131 472 131 472 168.5 490 c 128,-1,9
 206 508 206 508 245 508 c 0,10,11
 287 508 287 508 314 494 c 128,-1,12
 341 480 341 480 367 456 c 1,13,-1
 366 538 l 2,14,15
 366 574 366 574 375 606 c 128,-1,16
 384 638 384 638 404.5 661.5 c 128,-1,17
 425 685 425 685 458 699 c 128,-1,18
 491 713 491 713 538 713 c 0,19,20
 562 713 562 713 578 710.5 c 128,-1,21
 594 708 594 708 607 703 c 1,22,-1
 581 595 l 1,23,24
 570 598 570 598 561 598 c 0,25,26
 532 598 532 598 520 580.5 c 128,-1,27
 508 563 508 563 508 526 c 2,28,-1
 508 0 l 1,29,-1
 388 0 l 1,30,-1
 378 49 l 1,31,-1
 374 49 l 1,32,33
 348 23 348 23 313 5.5 c 128,-1,34
 278 -12 278 -12 242 -12 c 0,0,1
280 108 m 0,35,36
 304 108 304 108 323.5 118 c 128,-1,37
 343 128 343 128 361 153 c 1,38,-1
 361 356 l 1,39,40
 341 374 341 374 320 381 c 128,-1,41
 299 388 299 388 279 388 c 0,42,43
 244 388 244 388 217 354.5 c 128,-1,44
 190 321 190 321 190 250 c 0,45,46
 190 176 190 176 213.5 142 c 128,-1,47
 237 108 237 108 280 108 c 0,35,36
EndSplineSet
Validated: 1
EndChar

StartChar: uni0258
Encoding: 600 600 453
Width: 518
GlyphClass: 2
Flags: W
AnchorPoint: "Anchor-7" 259 0 basechar 0
AnchorPoint: "Anchor-4" 264 -22 basechar 0
AnchorPoint: "Anchor-0" 260 518 basechar 0
LayerCount: 2
Fore
SplineSet
235 -12 m 0,0,1
 190 -12 190 -12 141.5 3 c 128,-1,2
 93 18 93 18 55 44 c 1,3,-1
 103 133 l 1,4,5
 157 100 157 100 215 100 c 0,6,7
 266 100 266 100 297.5 125.5 c 128,-1,8
 329 151 329 151 339 205 c 1,9,-1
 42 205 l 1,10,11
 40 214 40 214 38 232 c 128,-1,12
 36 250 36 250 36 270 c 0,13,14
 36 321 36 321 50.5 364.5 c 128,-1,15
 65 408 65 408 93.5 440 c 128,-1,16
 122 472 122 472 163.5 490 c 128,-1,17
 205 508 205 508 258 508 c 0,18,19
 303 508 303 508 343.5 490 c 128,-1,20
 384 472 384 472 415 438.5 c 128,-1,21
 446 405 446 405 464 356.5 c 128,-1,22
 482 308 482 308 482 248 c 0,23,24
 482 186 482 186 463.5 138 c 128,-1,25
 445 90 445 90 412 56.5 c 128,-1,26
 379 23 379 23 333.5 5.5 c 128,-1,27
 288 -12 288 -12 235 -12 c 0,0,1
162 302 m 1,28,-1
 341 302 l 1,29,30
 335 350 335 350 312 373 c 128,-1,31
 289 396 289 396 253 396 c 0,32,33
 208 396 208 396 185 370 c 128,-1,34
 162 344 162 344 162 302 c 1,28,-1
EndSplineSet
Validated: 1
EndChar

StartChar: uni0251
Encoding: 593 593 454
Width: 527
GlyphClass: 2
Flags: W
LayerCount: 2
Fore
SplineSet
240 102 m 0,0,1
 265 102 265 102 283 113 c 128,-1,2
 301 124 301 124 321 144 c 1,3,-1
 321 154 l 1,4,-1
 321 161 l 1,5,-1
 321 231 l 1,6,7
 243 220 243 220 213 199 c 128,-1,8
 183 178 183 178 183 149 c 0,9,10
 183 125 183 125 198.5 113.5 c 128,-1,11
 214 102 214 102 240 102 c 0,0,1
190 -12 m 0,12,13
 156 -12 156 -12 128.5 -0.5 c 128,-1,14
 101 11 101 11 82 31.5 c 128,-1,15
 63 52 63 52 52.5 79 c 128,-1,16
 42 106 42 106 42 138 c 0,17,18
 42 216 42 216 108 260 c 128,-1,19
 174 304 174 304 321 319 c 1,20,21
 319 352 319 352 301.5 371.5 c 128,-1,22
 284 391 284 391 243 391 c 0,23,24
 211 391 211 391 179.5 379 c 128,-1,25
 148 367 148 367 112 346 c 1,26,-1
 59 443 l 1,27,28
 107 472 107 472 159.5 490 c 128,-1,29
 212 508 212 508 271 508 c 0,30,31
 367 508 367 508 417.5 453.5 c 128,-1,32
 468 399 468 399 468 284 c 2,33,-1
 468 159 l 1,34,-1
 468 148 l 2,35,36
 468 125 468 125 476.5 116 c 128,-1,37
 485 107 485 107 494 107 c 0,38,39
 499 107 499 107 502.5 107 c 128,-1,40
 506 107 506 107 512 109 c 1,41,-1
 530 0 l 1,42,43
 518 -5 518 -5 499.5 -8.5 c 128,-1,44
 481 -12 481 -12 456 -12 c 0,45,46
 415 -12 415 -12 389 0 c 128,-1,47
 363 12 363 12 347.5 33.5 c 0,48,49
 341.653436909 41.6097488037 341.653436909 41.6097488037 337.016237189 51 c 1,50,-1
 334 51 l 1,51,52
 302 23 302 23 267 5.5 c 128,-1,53
 232 -12 232 -12 190 -12 c 0,12,13
EndSplineSet
Validated: 1
EndChar

StartChar: uni0259
Encoding: 601 601 456
Width: 518
GlyphClass: 2
Flags: W
AnchorPoint: "Anchor-7" 253 0 basechar 0
AnchorPoint: "Anchor-4" 253 -22 basechar 0
AnchorPoint: "Anchor-0" 255 518 basechar 0
LayerCount: 2
Fore
SplineSet
249 -12 m 0,0,1
 196 -12 196 -12 156 6 c 128,-1,2
 116 24 116 24 89.5 56.5 c 128,-1,3
 63 89 63 89 49.5 133 c 128,-1,4
 36 177 36 177 36 228 c 0,5,6
 36 248 36 248 38 266 c 128,-1,7
 40 284 40 284 42 293 c 1,8,-1
 339 293 l 1,9,10
 331 346 331 346 301.5 371 c 128,-1,11
 272 396 272 396 225 396 c 0,12,13
 170 396 170 396 117 363 c 1,14,-1
 68 458 l 1,15,16
 109 485 109 485 156 496.5 c 128,-1,17
 203 508 203 508 250 508 c 0,18,19
 299 508 299 508 341.5 490 c 128,-1,20
 384 472 384 472 415 438.5 c 128,-1,21
 446 405 446 405 464 357 c 128,-1,22
 482 309 482 309 482 248 c 0,23,24
 482 188 482 188 463 139.5 c 128,-1,25
 444 91 444 91 412 57.5 c 128,-1,26
 380 24 380 24 337.5 6 c 128,-1,27
 295 -12 295 -12 249 -12 c 0,0,1
246 100 m 0,28,29
 282 100 282 100 307.5 122.5 c 128,-1,30
 333 145 333 145 341 196 c 1,31,-1
 162 196 l 1,32,33
 162 153 162 153 181.5 126.5 c 128,-1,34
 201 100 201 100 246 100 c 0,28,29
EndSplineSet
Validated: 1
Substitution2: "'sups' Superscript lookup 26 subtable" uni0259.sups
Substitution2: "'smcp' Lowercase to Small Capitals lookup 20 subtable" uni018F.sc
AlternateSubs2: "'aalt' Access All Alternates lookup 1 subtable" uni018F.sc uni0259.sups
EndChar

StartChar: uni025A
Encoding: 602 602 457
Width: 707
GlyphClass: 2
Flags: W
AnchorPoint: "Anchor-0" 245 518 basechar 0
LayerCount: 2
Fore
SplineSet
260 -12 m 0,0,1
 203 -12 203 -12 162 7 c 128,-1,2
 121 26 121 26 94 57.5 c 128,-1,3
 67 89 67 89 53 130.5 c 128,-1,4
 39 172 39 172 36 217 c 1,5,-1
 325 340 l 1,6,7
 311 369 311 369 285.5 382.5 c 128,-1,8
 260 396 260 396 224 396 c 0,9,10
 195 396 195 396 169 387.5 c 128,-1,11
 143 379 143 379 117 363 c 1,12,-1
 68 458 l 1,13,14
 110 485 110 485 156 496.5 c 128,-1,15
 202 508 202 508 244 508 c 0,16,17
 316 508 316 508 367.5 477 c 128,-1,18
 419 446 419 446 448 392 c 1,19,-1
 541 432 l 1,20,-1
 611 406 l 1,21,22
 612 350 612 350 623 330 c 128,-1,23
 634 310 634 310 657 310 c 0,24,25
 669 310 669 310 679 313 c 128,-1,26
 689 316 689 316 697 321 c 1,27,-1
 727 251 l 1,28,29
 712 241 712 241 693 233.5 c 128,-1,30
 674 226 674 226 651 226 c 0,31,32
 633 226 633 226 615 230 c 128,-1,33
 597 234 597 234 581 245 c 128,-1,34
 565 256 565 256 551.5 274.5 c 128,-1,35
 538 293 538 293 530 323 c 1,36,-1
 477 300 l 1,37,38
 479 286 479 286 480.5 270.5 c 128,-1,39
 482 255 482 255 482 239 c 0,40,41
 482 187 482 187 466 141 c 128,-1,42
 450 95 450 95 420.5 61 c 128,-1,43
 391 27 391 27 350 7.5 c 128,-1,44
 309 -12 309 -12 260 -12 c 0,0,1
255 98 m 0,45,46
 295 98 295 98 320.5 133.5 c 128,-1,47
 346 169 346 169 346 226 c 2,48,-1
 346 243 l 1,49,-1
 167 166 l 1,50,51
 175 134 175 134 198.5 116 c 128,-1,52
 222 98 222 98 255 98 c 0,45,46
EndSplineSet
Validated: 1
EndChar

StartChar: uni025B
Encoding: 603 603 458
Width: 462
GlyphClass: 2
Flags: W
AnchorPoint: "Anchor-4" 254 -22 basechar 0
AnchorPoint: "Anchor-0" 261 518 basechar 0
LayerCount: 2
Fore
SplineSet
269 -12 m 0,0,1
 227 -12 227 -12 186.5 -2 c 128,-1,2
 146 8 146 8 115 27 c 128,-1,3
 84 46 84 46 65 74.5 c 128,-1,4
 46 103 46 103 46 141 c 0,5,6
 46 192 46 192 75 220.5 c 128,-1,7
 104 249 104 249 150 260 c 1,8,-1
 150 264 l 1,9,10
 108 277 108 277 88.5 306.5 c 128,-1,11
 69 336 69 336 69 366 c 0,12,13
 69 403 69 403 85.5 430 c 128,-1,14
 102 457 102 457 130 474 c 128,-1,15
 158 491 158 491 194.5 499.5 c 128,-1,16
 231 508 231 508 271 508 c 0,17,18
 356 508 356 508 430 463 c 1,19,-1
 376 368 l 1,20,21
 351 382 351 382 328.5 389 c 128,-1,22
 306 396 306 396 279 396 c 0,23,24
 248 396 248 396 230.5 382.5 c 128,-1,25
 213 369 213 369 213 346 c 0,26,27
 213 302 213 302 282 302 c 2,28,-1
 350 302 l 1,29,-1
 350 205 l 1,30,-1
 266 205 l 2,31,32
 227 205 227 205 208.5 193.5 c 128,-1,33
 190 182 190 182 190 156 c 256,34,35
 190 130 190 130 216 115 c 128,-1,36
 242 100 242 100 283 100 c 0,37,38
 306 100 306 100 332 107 c 128,-1,39
 358 114 358 114 385 131 c 1,40,-1
 443 38 l 1,41,42
 398 9 398 9 357 -1.5 c 128,-1,43
 316 -12 316 -12 269 -12 c 0,0,1
EndSplineSet
Validated: 1
EndChar

StartChar: uni025C
Encoding: 604 604 459
Width: 476
GlyphClass: 2
Flags: W
AnchorPoint: "Anchor-4" 232 -22 basechar 0
AnchorPoint: "Anchor-0" 232 518 basechar 0
LayerCount: 2
Fore
SplineSet
216 -12 m 0,0,1
 167 -12 167 -12 124 -1.5 c 128,-1,2
 81 9 81 9 33 38 c 1,3,-1
 91 131 l 1,4,5
 118 114 118 114 144 107 c 128,-1,6
 170 100 170 100 193 100 c 0,7,8
 235 100 235 100 260.5 115 c 128,-1,9
 286 130 286 130 286 156 c 256,10,11
 286 182 286 182 267.5 193.5 c 128,-1,12
 249 205 249 205 210 205 c 2,13,-1
 127 205 l 1,14,-1
 127 302 l 1,15,-1
 194 302 l 2,16,17
 263 302 263 302 263 346 c 0,18,19
 263 369 263 369 246.5 382.5 c 128,-1,20
 230 396 230 396 198 396 c 0,21,22
 171 396 171 396 148 389 c 128,-1,23
 125 382 125 382 100 368 c 1,24,-1
 46 463 l 1,25,26
 124 508 124 508 215 508 c 0,27,28
 254 508 254 508 288.5 499.5 c 128,-1,29
 323 491 323 491 349.5 474 c 128,-1,30
 376 457 376 457 391.5 430 c 128,-1,31
 407 403 407 403 407 366 c 0,32,33
 407 336 407 336 387.5 306.5 c 128,-1,34
 368 277 368 277 326 264 c 1,35,-1
 326 260 l 1,36,37
 372 249 372 249 401 220.5 c 128,-1,38
 430 192 430 192 430 141 c 0,39,40
 430 103 430 103 412 74.5 c 128,-1,41
 394 46 394 46 364 27 c 128,-1,42
 334 8 334 8 295.5 -2 c 128,-1,43
 257 -12 257 -12 216 -12 c 0,0,1
EndSplineSet
Validated: 1
EndChar

StartChar: uni025E
Encoding: 606 606 460
Width: 566
GlyphClass: 2
Flags: W
AnchorPoint: "Anchor-4" 290 -22 basechar 0
AnchorPoint: "Anchor-0" 278 518 basechar 0
LayerCount: 2
Fore
SplineSet
270 -12 m 0,0,1
 227 -12 227 -12 186.5 -2 c 128,-1,2
 146 8 146 8 115 27 c 128,-1,3
 84 46 84 46 65 74.5 c 128,-1,4
 46 103 46 103 46 141 c 0,5,6
 46 192 46 192 75 220.5 c 128,-1,7
 104 249 104 249 150 260 c 1,8,-1
 150 264 l 1,9,10
 108 277 108 277 88.5 306.5 c 128,-1,11
 69 336 69 336 69 366 c 0,12,13
 69 403 69 403 85 430 c 128,-1,14
 101 457 101 457 129 474 c 128,-1,15
 157 491 157 491 193 499.5 c 128,-1,16
 229 508 229 508 270 508 c 0,17,18
 321 508 321 508 368.5 492 c 128,-1,19
 416 476 416 476 452.5 443.5 c 128,-1,20
 489 411 489 411 510.5 362 c 128,-1,21
 532 313 532 313 532 248 c 256,22,23
 532 183 532 183 511.5 134 c 128,-1,24
 491 85 491 85 455 52.5 c 128,-1,25
 419 20 419 20 371.5 4 c 128,-1,26
 324 -12 324 -12 270 -12 c 0,0,1
270 100 m 0,27,28
 324 100 324 100 352.5 135 c 128,-1,29
 381 170 381 170 381 248 c 256,30,31
 381 326 381 326 353.5 361 c 128,-1,32
 326 396 326 396 274 396 c 0,33,34
 248 396 248 396 230.5 382.5 c 128,-1,35
 213 369 213 369 213 346 c 0,36,37
 213 302 213 302 274 302 c 2,38,-1
 305 302 l 1,39,-1
 305 205 l 1,40,-1
 258 205 l 2,41,42
 223 205 223 205 206.5 193.5 c 128,-1,43
 190 182 190 182 190 156 c 256,44,45
 190 130 190 130 212.5 115 c 128,-1,46
 235 100 235 100 270 100 c 0,27,28
EndSplineSet
Validated: 1
EndChar

StartChar: uni025F
Encoding: 607 607 461
Width: 321
GlyphClass: 2
Flags: W
AnchorPoint: "Anchor-0" 160 518 basechar 0
LayerCount: 2
Fore
SplineSet
56 -196 m 0,0,1
 25 -196 25 -196 4.5 -192 c 128,-1,2
 -16 -188 -16 -188 -31 -182 c 1,3,-1
 -5 -74 l 1,4,5
 5 -77 5 -77 14 -79 c 128,-1,6
 23 -81 23 -81 34 -81 c 0,7,8
 63 -81 63 -81 74.5 -62 c 128,-1,9
 86 -43 86 -43 86 -1 c 2,10,-1
 86 223 l 1,11,-1
 12 223 l 1,12,-1
 12 288 l 1,13,-1
 86 294 l 1,14,-1
 86 496 l 1,15,-1
 233 496 l 1,16,-1
 233 294 l 1,17,-1
 304 294 l 1,18,-1
 304 223 l 1,19,-1
 233 223 l 1,20,-1
 233 3 l 2,21,22
 233 -38 233 -38 224.5 -74 c 128,-1,23
 216 -110 216 -110 195.5 -137 c 128,-1,24
 175 -164 175 -164 141 -180 c 128,-1,25
 107 -196 107 -196 56 -196 c 0,0,1
EndSplineSet
Validated: 1
EndChar

StartChar: uni0260
Encoding: 608 608 462
Width: 583
GlyphClass: 2
Flags: W
AnchorPoint: "Anchor-0" 300 518 basechar 0
LayerCount: 2
Fore
SplineSet
261 -194 m 0,0,1
 220 -194 220 -194 169.5 -180.5 c 128,-1,2
 119 -167 119 -167 76 -139 c 1,3,-1
 124 -42 l 1,4,5
 159 -62 159 -62 195 -70.5 c 128,-1,6
 231 -79 231 -79 261 -79 c 0,7,8
 316 -79 316 -79 339 -56.5 c 128,-1,9
 362 -34 362 -34 366 1 c 2,10,-1
 370 63 l 1,11,12
 345 40 345 40 313.5 26.5 c 128,-1,13
 282 13 282 13 247 13 c 0,14,15
 201 13 201 13 163.5 31 c 128,-1,16
 126 49 126 49 99.5 81.5 c 128,-1,17
 73 114 73 114 58.5 158.5 c 128,-1,18
 44 203 44 203 44 257 c 0,19,20
 44 314 44 314 62 360.5 c 128,-1,21
 80 407 80 407 109.5 439.5 c 128,-1,22
 139 472 139 472 176.5 490 c 128,-1,23
 214 508 214 508 253 508 c 0,24,25
 291 508 291 508 317.5 494 c 128,-1,26
 344 480 344 480 370 456 c 1,27,-1
 370 490 l 2,28,29
 370 520 370 520 379 549 c 128,-1,30
 388 578 388 578 408.5 601.5 c 128,-1,31
 429 625 429 625 462 639 c 128,-1,32
 495 653 495 653 543 653 c 0,33,34
 567 653 567 653 583 650.5 c 128,-1,35
 599 648 599 648 612 643 c 1,36,-1
 586 534 l 1,37,38
 578 538 578 538 566 538 c 0,39,40
 537 538 537 538 525 519.5 c 128,-1,41
 513 501 513 501 513 466 c 2,42,-1
 513 5 l 2,43,44
 513 -92 513 -92 447.5 -143 c 128,-1,45
 382 -194 382 -194 261 -194 c 0,0,1
285 131 m 0,46,47
 309 131 309 131 327.5 141.5 c 128,-1,48
 346 152 346 152 366 178 c 1,49,-1
 366 356 l 1,50,51
 346 374 346 374 325 381 c 128,-1,52
 304 388 304 388 284 388 c 0,53,54
 247 388 247 388 220 355 c 128,-1,55
 193 322 193 322 193 259 c 0,56,57
 193 197 193 197 217.5 164 c 128,-1,58
 242 131 242 131 285 131 c 0,46,47
EndSplineSet
Validated: 1
Substitution2: "'smcp' Lowercase to Small Capitals lookup 20 subtable" uni0193.sc
Substitution2: "'aalt' Access All Alternates lookup 0 subtable" uni0193.sc
EndChar

StartChar: uni0261
Encoding: 609 609 463
Width: 534
GlyphClass: 2
Flags: W
LayerCount: 2
Fore
SplineSet
242 -211 m 4,0,1
 198 -211 198 -211 160.5 -203.5 c 132,-1,2
 123 -196 123 -196 94.5 -181 c 132,-1,3
 66 -166 66 -166 50 -142 c 132,-1,4
 34 -118 34 -118 34 -85 c 4,5,6
 34 -25 34 -25 105 15 c 5,7,-1
 105 19 l 5,8,9
 85 32 85 32 72 52 c 132,-1,10
 59 72 59 72 59 103 c 4,11,12
 59 130 59 130 75 154.5 c 132,-1,13
 91 179 91 179 115 196 c 5,14,-1
 115 200 l 5,15,16
 89 218 89 218 68.5 251.5 c 132,-1,17
 48 285 48 285 48 329 c 4,18,19
 48 374 48 374 65 407.5 c 132,-1,20
 82 441 82 441 110.5 463.5 c 132,-1,21
 139 486 139 486 176 497 c 132,-1,22
 213 508 213 508 253 508 c 4,23,24
 297 508 297 508 330 496 c 5,25,-1
 511 496 l 5,26,-1
 511 389 l 5,27,-1
 432 389 l 5,28,29
 439 378 439 378 443.5 361 c 132,-1,30
 448 344 448 344 448 324 c 4,31,32
 448 281 448 281 433 249.5 c 132,-1,33
 418 218 418 218 391.5 197.5 c 132,-1,34
 365 177 365 177 329.5 167 c 132,-1,35
 294 157 294 157 253 157 c 4,36,37
 224 157 224 157 193 167 c 5,38,39
 183 159 183 159 179 151 c 132,-1,40
 175 143 175 143 175 130 c 4,41,42
 175 111 175 111 191.5 102 c 132,-1,43
 208 93 208 93 250 93 c 6,44,-1
 330 93 l 6,45,46
 422 93 422 93 470.5 63.5 c 132,-1,47
 519 34 519 34 519 -33 c 4,48,49
 519 -72 519 -72 499.5 -104.5 c 132,-1,50
 480 -137 480 -137 444 -160.5 c 132,-1,51
 408 -184 408 -184 357 -197.5 c 132,-1,52
 306 -211 306 -211 242 -211 c 4,0,1
253 246 m 260,53,54
 282 246 282 246 301.5 266.5 c 132,-1,55
 321 287 321 287 321 329 c 4,56,57
 321 368 321 368 301.5 388.5 c 132,-1,58
 282 409 282 409 253 409 c 260,59,60
 224 409 224 409 204.5 389 c 132,-1,61
 185 369 185 369 185 329 c 4,62,63
 185 287 185 287 204.5 266.5 c 132,-1,64
 224 246 224 246 253 246 c 260,53,54
265 -119 m 260,65,66
 315 -119 315 -119 347 -101.5 c 132,-1,67
 379 -84 379 -84 379 -58 c 4,68,69
 379 -35 379 -35 359.5 -27 c 132,-1,70
 340 -19 340 -19 303 -19 c 6,71,-1
 252 -19 l 6,72,73
 226 -19 226 -19 210 -17.5 c 132,-1,74
 194 -16 194 -16 182 -13 c 5,75,76
 155 -37 155 -37 155 -62 c 4,77,78
 155 -90 155 -90 185 -104.5 c 132,-1,79
 215 -119 215 -119 265 -119 c 260,65,66
EndSplineSet
Validated: 1
EndChar

StartChar: uni0262
Encoding: 610 610 464
Width: 517
GlyphClass: 2
Flags: W
AnchorPoint: "Anchor-4" 321 -22 basechar 0
AnchorPoint: "Anchor-1" 319 518 basechar 0
LayerCount: 2
Fore
SplineSet
288 -12 m 0,0,1
 239 -12 239 -12 193.5 3.5 c 128,-1,2
 148 19 148 19 113 51 c 128,-1,3
 78 83 78 83 57 131.5 c 128,-1,4
 36 180 36 180 36 246 c 0,5,6
 36 309 36 309 57.5 358 c 128,-1,7
 79 407 79 407 114.5 440 c 128,-1,8
 150 473 150 473 196 490.5 c 128,-1,9
 242 508 242 508 291 508 c 0,10,11
 353 508 353 508 392 490.5 c 128,-1,12
 431 473 431 473 463 448 c 1,13,-1
 397 360 l 1,14,15
 374 376 374 376 354.5 386 c 128,-1,16
 335 396 335 396 301 396 c 0,17,18
 279 396 279 396 258 387 c 128,-1,19
 237 378 237 378 221 360 c 128,-1,20
 205 342 205 342 195 313.5 c 128,-1,21
 185 285 185 285 185 246 c 0,22,23
 185 176 185 176 216.5 138 c 128,-1,24
 248 100 248 100 299 100 c 0,25,26
 330 100 330 100 350 114 c 1,27,-1
 350 199 l 1,28,-1
 266 199 l 1,29,-1
 266 297 l 1,30,-1
 475 297 l 1,31,-1
 475 53 l 1,32,33
 444 25 444 25 395 6.5 c 128,-1,34
 346 -12 346 -12 288 -12 c 0,0,1
EndSplineSet
Validated: 1
EndChar

StartChar: uni0263
Encoding: 611 611 465
Width: 523
GlyphClass: 2
Flags: W
AnchorPoint: "Anchor-4" 263 -22 basechar 0
AnchorPoint: "Anchor-0" 263 518 basechar 0
LayerCount: 2
Fore
SplineSet
265 -211 m 256,0,1
 195 -211 195 -211 153 -171.5 c 128,-1,2
 111 -132 111 -132 111 -66 c 0,3,4
 111 -47 111 -47 115 -30 c 128,-1,5
 119 -13 119 -13 126.5 5 c 128,-1,6
 134 23 134 23 144.5 43 c 128,-1,7
 155 63 155 63 169 87 c 1,8,-1
 12 496 l 1,9,-1
 160 496 l 1,10,-1
 224 288 l 2,11,12
 234 256 234 256 243.5 230 c 128,-1,13
 253 204 253 204 263 170 c 1,14,-1
 267 170 l 1,15,16
 276 204 276 204 285.5 230 c 128,-1,17
 295 256 295 256 305 288 c 2,18,-1
 370 496 l 1,19,-1
 511 496 l 1,20,-1
 360 88 l 1,21,22
 374 64 374 64 384.5 43.5 c 128,-1,23
 395 23 395 23 402.5 5 c 128,-1,24
 410 -13 410 -13 414 -30 c 128,-1,25
 418 -47 418 -47 418 -66 c 0,26,27
 418 -132 418 -132 376.5 -171.5 c 128,-1,28
 335 -211 335 -211 265 -211 c 256,0,1
265 -119 m 0,29,30
 280 -119 280 -119 289.5 -107.5 c 128,-1,31
 299 -96 299 -96 299 -76 c 0,32,33
 299 -55 299 -55 291 -31 c 128,-1,34
 283 -7 283 -7 266 25 c 1,35,-1
 261 25 l 1,36,37
 245 -7 245 -7 238 -31.5 c 128,-1,38
 231 -56 231 -56 231 -76 c 256,39,40
 231 -96 231 -96 240 -107.5 c 128,-1,41
 249 -119 249 -119 265 -119 c 0,29,30
EndSplineSet
Validated: 1
EndChar

StartChar: uni0264
Encoding: 612 612 466
Width: 569
Flags: W
LayerCount: 2
Fore
SplineSet
285 -12 m 0,0,1
 194 -12 194 -12 141 34.5 c 128,-1,2
 88 81 88 81 88 170 c 0,3,4
 88 214 88 214 114 260 c 128,-1,5
 140 306 140 306 185 348 c 1,6,7
 167 370 167 370 146 379.5 c 128,-1,8
 125 389 125 389 104 389 c 0,9,10
 75 389 75 389 58 375 c 1,11,-1
 16 482 l 1,12,13
 33 495 33 495 64 501.5 c 128,-1,14
 95 508 95 508 124 508 c 0,15,16
 165 508 165 508 207 489.5 c 128,-1,17
 249 471 249 471 285 429 c 1,18,19
 320 471 320 471 362 489.5 c 128,-1,20
 404 508 404 508 445 508 c 0,21,22
 475 508 475 508 505.5 501.5 c 128,-1,23
 536 495 536 495 553 482 c 1,24,-1
 512 375 l 1,25,26
 493 389 493 389 465 389 c 0,27,28
 444 389 444 389 423 379.5 c 128,-1,29
 402 370 402 370 384 348 c 1,30,31
 429 306 429 306 455.5 260 c 128,-1,32
 482 214 482 214 482 170 c 0,33,34
 482 81 482 81 428.5 34.5 c 128,-1,35
 375 -12 375 -12 285 -12 c 0,0,1
285 107 m 256,36,37
 314 107 314 107 329 125.5 c 128,-1,38
 344 144 344 144 344 174 c 0,39,40
 344 200 344 200 327.5 228.5 c 128,-1,41
 311 257 311 257 285 282 c 1,42,43
 258 257 258 257 241.5 228.5 c 128,-1,44
 225 200 225 200 225 174 c 0,45,46
 225 144 225 144 240.5 125.5 c 128,-1,47
 256 107 256 107 285 107 c 256,36,37
EndSplineSet
Validated: 1
EndChar

StartChar: uni0265
Encoding: 613 613 467
Width: 572
GlyphClass: 2
Flags: W
AnchorPoint: "Anchor-4" 303 -22 basechar 0
AnchorPoint: "Anchor-0" 285 518 basechar 0
LayerCount: 2
Fore
SplineSet
360 -184 m 1,0,-1
 360 -33 l 1,1,-1
 367 61 l 1,2,3
 339 31 339 31 302 9.5 c 128,-1,4
 265 -12 265 -12 214 -12 c 0,5,6
 133 -12 133 -12 96.5 41 c 128,-1,7
 60 94 60 94 60 188 c 2,8,-1
 60 496 l 1,9,-1
 207 496 l 1,10,-1
 207 207 l 2,11,12
 207 153 207 153 222 133 c 128,-1,13
 237 113 237 113 269 113 c 0,14,15
 297 113 297 113 317.5 125.5 c 128,-1,16
 338 138 338 138 360 168 c 1,17,-1
 360 496 l 1,18,-1
 507 496 l 1,19,-1
 507 -184 l 1,20,-1
 360 -184 l 1,0,-1
EndSplineSet
Validated: 1
EndChar

StartChar: uni0266
Encoding: 614 614 468
Width: 571
GlyphClass: 2
Flags: W
AnchorPoint: "Anchor-4" 293 -22 basechar 0
LayerCount: 2
Fore
SplineSet
65 0 m 1,0,-1
 65 500 l 2,1,2
 65 543 65 543 76 581.5 c 128,-1,3
 87 620 87 620 111 649.5 c 128,-1,4
 135 679 135 679 174 696 c 128,-1,5
 213 713 213 713 269 713 c 0,6,7
 300 713 300 713 325.5 707 c 128,-1,8
 351 701 351 701 368 695 c 1,9,-1
 341 587 l 1,10,11
 329 592 329 592 315.5 594.5 c 128,-1,12
 302 597 302 597 290 597 c 0,13,14
 252 597 252 597 233 575.5 c 128,-1,15
 214 554 214 554 210 504 c 2,16,-1
 205 423 l 1,17,18
 219 436 219 436 235 448 c 128,-1,19
 251 460 251 460 270 470 c 128,-1,20
 289 480 289 480 311 486 c 128,-1,21
 333 492 333 492 358 492 c 0,22,23
 439 492 439 492 475.5 439 c 128,-1,24
 512 386 512 386 512 292 c 2,25,-1
 512 0 l 1,26,-1
 365 0 l 1,27,-1
 365 273 l 2,28,29
 365 327 365 327 350.5 346.5 c 128,-1,30
 336 366 336 366 304 366 c 0,31,32
 276 366 276 366 256 353.5 c 128,-1,33
 236 341 236 341 212 318 c 1,34,-1
 212 0 l 1,35,-1
 65 0 l 1,0,-1
EndSplineSet
Validated: 1
EndChar

StartChar: uni0267
Encoding: 615 615 469
Width: 571
Flags: W
LayerCount: 2
Fore
SplineSet
335 -187 m 0,0,1
 304 -187 304 -187 283.5 -183 c 128,-1,2
 263 -179 263 -179 247 -173 c 1,3,-1
 274 -65 l 1,4,5
 293 -71 293 -71 312 -71 c 0,6,7
 342 -71 342 -71 353.5 -52 c 128,-1,8
 365 -33 365 -33 365 9 c 2,9,-1
 365 273 l 2,10,11
 365 327 365 327 350.5 346.5 c 128,-1,12
 336 366 336 366 304 366 c 0,13,14
 276 366 276 366 256 353.5 c 128,-1,15
 236 341 236 341 212 318 c 1,16,-1
 212 0 l 1,17,-1
 65 0 l 1,18,-1
 65 500 l 2,19,20
 65 543 65 543 76 581.5 c 128,-1,21
 87 620 87 620 111 649.5 c 128,-1,22
 135 679 135 679 174 696 c 128,-1,23
 213 713 213 713 269 713 c 0,24,25
 300 713 300 713 325.5 707 c 128,-1,26
 351 701 351 701 368 695 c 1,27,-1
 341 587 l 1,28,29
 329 592 329 592 315.5 594.5 c 128,-1,30
 302 597 302 597 290 597 c 0,31,32
 252 597 252 597 233 575.5 c 128,-1,33
 214 554 214 554 210 504 c 2,34,-1
 205 423 l 1,35,36
 219 436 219 436 235 448 c 128,-1,37
 251 460 251 460 270 470 c 128,-1,38
 289 480 289 480 311 486 c 128,-1,39
 333 492 333 492 358 492 c 0,40,41
 439 492 439 492 475.5 439 c 128,-1,42
 512 386 512 386 512 292 c 2,43,-1
 512 13 l 2,44,45
 512 -28 512 -28 503.5 -64.5 c 128,-1,46
 495 -101 495 -101 474.5 -128 c 128,-1,47
 454 -155 454 -155 420 -171 c 128,-1,48
 386 -187 386 -187 335 -187 c 0,0,1
EndSplineSet
Validated: 1
EndChar

StartChar: uni029C
Encoding: 668 668 470
Width: 582
Flags: W
LayerCount: 2
Fore
SplineSet
67 0 m 1,0,-1
 67 496 l 1,1,-1
 214 496 l 1,2,-1
 214 317 l 1,3,-1
 373 317 l 1,4,-1
 373 496 l 1,5,-1
 520 496 l 1,6,-1
 520 0 l 1,7,-1
 373 0 l 1,8,-1
 373 189 l 1,9,-1
 214 189 l 1,10,-1
 214 0 l 1,11,-1
 67 0 l 1,0,-1
EndSplineSet
Validated: 1
EndChar

StartChar: uni0268
Encoding: 616 616 471
Width: 321
Flags: W
LayerCount: 2
Fore
SplineSet
12 223 m 1,0,-1
 12 288 l 1,1,-1
 87 294 l 1,2,-1
 87 496 l 1,3,-1
 234 496 l 1,4,-1
 234 294 l 1,5,-1
 304 294 l 1,6,-1
 304 223 l 1,7,-1
 234 223 l 1,8,-1
 234 0 l 1,9,-1
 87 0 l 1,10,-1
 87 223 l 1,11,-1
 12 223 l 1,0,-1
160 569 m 0,12,13
 123 569 123 569 99 590.5 c 128,-1,14
 75 612 75 612 75 646 c 256,15,16
 75 680 75 680 99 701 c 128,-1,17
 123 722 123 722 160 722 c 0,18,19
 198 722 198 722 221.5 701 c 128,-1,20
 245 680 245 680 245 646 c 256,21,22
 245 612 245 612 221.5 590.5 c 128,-1,23
 198 569 198 569 160 569 c 0,12,13
EndSplineSet
Validated: 1
EndChar

StartChar: uni026A
Encoding: 618 618 472
Width: 395
GlyphClass: 2
Flags: W
AnchorPoint: "Anchor-8" 178 0 basechar 0
AnchorPoint: "Anchor-4" 198 -22 basechar 0
AnchorPoint: "Anchor-0" 198 518 basechar 0
LayerCount: 2
Fore
SplineSet
52 0 m 1,0,-1
 52 115 l 1,1,-1
 124 115 l 1,2,-1
 124 381 l 1,3,-1
 52 381 l 1,4,-1
 52 496 l 1,5,-1
 343 496 l 1,6,-1
 343 381 l 1,7,-1
 271 381 l 1,8,-1
 271 115 l 1,9,-1
 343 115 l 1,10,-1
 343 0 l 1,11,-1
 52 0 l 1,0,-1
EndSplineSet
Validated: 1
EndChar

StartChar: uni029D
Encoding: 669 669 473
Width: 360
Flags: W
LayerCount: 2
Fore
SplineSet
304 -257 m 1,0,1
 290 -223 290 -223 275 -194 c 128,-1,2
 260 -165 260 -165 243 -139 c 1,3,4
 219 -165 219 -165 184 -180.5 c 128,-1,5
 149 -196 149 -196 103 -196 c 0,6,7
 67 -196 67 -196 38.5 -184.5 c 128,-1,8
 10 -173 10 -173 -10 -153 c 128,-1,9
 -30 -133 -30 -133 -40.5 -106 c 128,-1,10
 -51 -79 -51 -79 -51 -48 c 0,11,12
 -51 12 -51 12 -11.5 48.5 c 128,-1,13
 28 85 28 85 100 85 c 0,14,15
 122 85 122 85 149 77 c 1,16,-1
 149 496 l 1,17,-1
 296 496 l 1,18,-1
 296 12 l 2,19,20
 296 4 296 4 295.5 -3.5 c 128,-1,21
 295 -11 295 -11 294 -19 c 1,22,23
 329 -54 329 -54 360 -100.5 c 128,-1,24
 391 -147 391 -147 417 -206 c 1,25,-1
 304 -257 l 1,0,1
99 -84 m 0,26,27
 121 -84 121 -84 132.5 -70 c 128,-1,28
 144 -56 144 -56 148 -32 c 1,29,30
 119 -12 119 -12 98 -12 c 0,31,32
 80 -12 80 -12 69.5 -21.5 c 128,-1,33
 59 -31 59 -31 59 -45 c 0,34,35
 59 -60 59 -60 69 -72 c 128,-1,36
 79 -84 79 -84 99 -84 c 0,26,27
222 569 m 0,37,38
 185 569 185 569 161 590.5 c 128,-1,39
 137 612 137 612 137 646 c 256,40,41
 137 680 137 680 161 701 c 128,-1,42
 185 722 185 722 222 722 c 0,43,44
 260 722 260 722 284 701 c 128,-1,45
 308 680 308 680 308 646 c 256,46,47
 308 612 308 612 284 590.5 c 128,-1,48
 260 569 260 569 222 569 c 0,37,38
EndSplineSet
Validated: 1
EndChar

StartChar: uni026C
Encoding: 620 620 474
Width: 377
Flags: W
LayerCount: 2
Fore
SplineSet
137 292 m 2,0,1
 60 292 60 292 25 322 c 128,-1,2
 -10 352 -10 352 -10 396 c 0,3,4
 -10 438 -10 438 18.5 466 c 128,-1,5
 47 494 47 494 92 494 c 0,6,7
 109 494 109 494 121.5 490 c 128,-1,8
 134 486 134 486 145 479 c 1,9,-1
 145 701 l 1,10,-1
 292 701 l 1,11,-1
 292 363 l 1,12,-1
 362 363 l 1,13,-1
 362 292 l 1,14,-1
 292 292 l 1,15,-1
 292 148 l 2,16,17
 292 125 292 125 300.5 116 c 128,-1,18
 309 107 309 107 318 107 c 0,19,20
 323 107 323 107 326.5 107 c 128,-1,21
 330 107 330 107 336 109 c 1,22,-1
 354 0 l 1,23,24
 342 -5 342 -5 323.5 -8.5 c 128,-1,25
 305 -12 305 -12 280 -12 c 0,26,27
 242 -12 242 -12 216 0 c 128,-1,28
 190 12 190 12 174.5 33.5 c 128,-1,29
 159 55 159 55 152 85.5 c 128,-1,30
 145 116 145 116 145 154 c 2,31,-1
 145 292 l 1,32,-1
 137 292 l 2,0,1
123 363 m 2,33,-1
 145 363 l 1,34,-1
 145 365 l 2,35,36
 145 373 145 373 143 383.5 c 128,-1,37
 141 394 141 394 135.5 403 c 128,-1,38
 130 412 130 412 121 418.5 c 128,-1,39
 112 425 112 425 98 425 c 0,40,41
 82 425 82 425 75 417 c 128,-1,42
 68 409 68 409 68 396 c 0,43,44
 68 382 68 382 81 372.5 c 128,-1,45
 94 363 94 363 123 363 c 2,33,-1
EndSplineSet
Validated: 1
EndChar

StartChar: uni026D
Encoding: 621 621 475
Width: 286
Flags: W
LayerCount: 2
Fore
SplineSet
232 -187 m 0,0,1
 184 -187 184 -187 152 -172 c 128,-1,2
 120 -157 120 -157 100.5 -130.5 c 128,-1,3
 81 -104 81 -104 73 -69.5 c 128,-1,4
 65 -35 65 -35 65 4 c 2,5,-1
 65 701 l 1,6,-1
 212 701 l 1,7,-1
 212 -1 l 2,8,9
 212 -38 212 -38 221.5 -54.5 c 128,-1,10
 231 -71 231 -71 255 -71 c 0,11,12
 268 -71 268 -71 283 -65 c 1,13,-1
 309 -173 l 1,14,15
 295 -179 295 -179 277 -183 c 128,-1,16
 259 -187 259 -187 232 -187 c 0,0,1
EndSplineSet
Validated: 1
EndChar

StartChar: uni026E
Encoding: 622 622 476
Width: 640
Flags: W
LayerCount: 2
Fore
SplineSet
390 -196 m 0,0,1
 319 -196 319 -196 269 -172 c 128,-1,2
 219 -148 219 -148 184 -115 c 1,3,-1
 250 -24 l 1,4,5
 275 -46 275 -46 305 -61.5 c 128,-1,6
 335 -77 335 -77 373 -77 c 0,7,8
 416 -77 416 -77 443.5 -49.5 c 128,-1,9
 471 -22 471 -22 471 29 c 0,10,11
 471 74 471 74 445 98 c 128,-1,12
 419 122 419 122 375 122 c 0,13,14
 355 122 355 122 344 119.5 c 128,-1,15
 333 117 333 117 316 110 c 1,16,-1
 268 181 l 1,17,-1
 420 381 l 1,18,-1
 212 381 l 1,19,-1
 212 0 l 1,20,-1
 65 0 l 1,21,-1
 65 701 l 1,22,-1
 212 701 l 1,23,-1
 212 496 l 1,24,-1
 595 496 l 1,25,-1
 595 418 l 1,26,-1
 446 222 l 1,27,28
 487 219 487 219 519 203.5 c 128,-1,29
 551 188 551 188 573 163 c 128,-1,30
 595 138 595 138 606.5 104.5 c 128,-1,31
 618 71 618 71 618 32 c 0,32,33
 618 -23 618 -23 599.5 -65.5 c 128,-1,34
 581 -108 581 -108 550 -137 c 128,-1,35
 519 -166 519 -166 477.5 -181 c 128,-1,36
 436 -196 436 -196 390 -196 c 0,0,1
EndSplineSet
Validated: 1
EndChar

StartChar: uni029F
Encoding: 671 671 477
Width: 432
GlyphClass: 2
Flags: W
AnchorPoint: "Anchor-4" 252 -22 basechar 0
AnchorPoint: "Anchor-1" 143 564 basechar 0
LayerCount: 2
Fore
SplineSet
65 0 m 1,0,-1
 65 496 l 1,1,-1
 212 496 l 1,2,-1
 212 115 l 1,3,-1
 406 115 l 1,4,-1
 406 0 l 1,5,-1
 65 0 l 1,0,-1
EndSplineSet
Validated: 1
EndChar

StartChar: uni026F
Encoding: 623 623 478
Width: 857
GlyphClass: 2
Flags: W
AnchorPoint: "Anchor-4" 439 -22 basechar 0
AnchorPoint: "Anchor-0" 439 518 basechar 0
LayerCount: 2
Fore
SplineSet
218 -12 m 0,0,1
 138 -12 138 -12 100.5 41.5 c 128,-1,2
 63 95 63 95 63 188 c 2,3,-1
 63 496 l 1,4,-1
 210 496 l 1,5,-1
 210 207 l 2,6,7
 210 153 210 153 225 133 c 128,-1,8
 240 113 240 113 272 113 c 0,9,10
 309 113 309 113 356 161 c 1,11,-1
 356 496 l 1,12,-1
 503 496 l 1,13,-1
 503 207 l 2,14,15
 503 153 503 153 518 133 c 128,-1,16
 533 113 533 113 564 113 c 0,17,18
 601 113 601 113 649 161 c 1,19,-1
 649 496 l 1,20,-1
 796 496 l 1,21,-1
 796 0 l 1,22,-1
 676 0 l 1,23,-1
 665 64 l 1,24,-1
 662 64 l 1,25,26
 631 33 631 33 595.5 10.5 c 128,-1,27
 560 -12 560 -12 511 -12 c 0,28,29
 458 -12 458 -12 425.5 9.5 c 128,-1,30
 393 31 393 31 374 72 c 1,31,32
 342 37 342 37 305 12.5 c 128,-1,33
 268 -12 268 -12 218 -12 c 0,0,1
EndSplineSet
Validated: 1
EndChar

StartChar: uni0270
Encoding: 624 624 479
Width: 857
GlyphClass: 2
Flags: W
AnchorPoint: "Anchor-4" 439 -22 basechar 0
AnchorPoint: "Anchor-0" 439 518 basechar 0
LayerCount: 2
Fore
SplineSet
649 -184 m 1,0,-1
 649 -33 l 1,1,-1
 656 60 l 1,2,3
 622 25 622 25 589 6.5 c 128,-1,4
 556 -12 556 -12 511 -12 c 0,5,6
 458 -12 458 -12 425.5 9.5 c 128,-1,7
 393 31 393 31 374 72 c 1,8,9
 342 37 342 37 305 12.5 c 128,-1,10
 268 -12 268 -12 218 -12 c 0,11,12
 138 -12 138 -12 100.5 41.5 c 128,-1,13
 63 95 63 95 63 188 c 2,14,-1
 63 496 l 1,15,-1
 210 496 l 1,16,-1
 210 207 l 2,17,18
 210 153 210 153 225 133 c 128,-1,19
 240 113 240 113 272 113 c 0,20,21
 309 113 309 113 356 161 c 1,22,-1
 356 496 l 1,23,-1
 503 496 l 1,24,-1
 503 207 l 2,25,26
 503 153 503 153 518 133 c 128,-1,27
 533 113 533 113 564 113 c 0,28,29
 601 113 601 113 649 161 c 1,30,-1
 649 496 l 1,31,-1
 796 496 l 1,32,-1
 796 -184 l 1,33,-1
 649 -184 l 1,0,-1
EndSplineSet
Validated: 1
EndChar

StartChar: uni0271
Encoding: 625 625 480
Width: 857
GlyphClass: 2
Flags: W
AnchorPoint: "Anchor-0" 439 518 basechar 0
LayerCount: 2
Fore
SplineSet
628 -187 m 0,0,1
 601 -187 601 -187 582 -183 c 128,-1,2
 563 -179 563 -179 549 -173 c 1,3,-1
 575 -65 l 1,4,5
 590 -71 590 -71 606 -71 c 0,6,7
 632 -71 632 -71 641 -52 c 128,-1,8
 650 -33 650 -33 650 9 c 2,9,-1
 650 289 l 2,10,11
 650 343 650 343 635.5 363 c 128,-1,12
 621 383 621 383 589 383 c 0,13,14
 552 383 552 383 504 335 c 1,15,-1
 504 0 l 1,16,-1
 357 0 l 1,17,-1
 357 289 l 2,18,19
 357 343 357 343 342.5 363 c 128,-1,20
 328 383 328 383 296 383 c 0,21,22
 258 383 258 383 212 335 c 1,23,-1
 212 0 l 1,24,-1
 65 0 l 1,25,-1
 65 496 l 1,26,-1
 185 496 l 1,27,-1
 195 432 l 1,28,-1
 199 432 l 1,29,30
 230 463 230 463 265 485.5 c 128,-1,31
 300 508 300 508 349 508 c 0,32,33
 402 508 402 508 434.5 486.5 c 128,-1,34
 467 465 467 465 486 425 c 1,35,36
 519 459 519 459 555.5 483.5 c 128,-1,37
 592 508 592 508 642 508 c 0,38,39
 722 508 722 508 759.5 454.5 c 128,-1,40
 797 401 797 401 797 308 c 2,41,-1
 797 13 l 2,42,43
 797 -28 797 -28 788.5 -64.5 c 128,-1,44
 780 -101 780 -101 760.5 -128 c 128,-1,45
 741 -155 741 -155 708.5 -171 c 128,-1,46
 676 -187 676 -187 628 -187 c 0,0,1
EndSplineSet
Validated: 1
EndChar

StartChar: uni0272
Encoding: 626 626 481
Width: 572
GlyphClass: 2
Flags: W
AnchorPoint: "Anchor-0" 308 518 basechar 0
LayerCount: 2
Fore
SplineSet
45 -187 m 0,0,1
 17 -187 17 -187 -1 -183 c 128,-1,2
 -19 -179 -19 -179 -33 -173 c 1,3,-1
 -7 -65 l 1,4,5
 8 -71 8 -71 22 -71 c 0,6,7
 46 -71 46 -71 55.5 -54.5 c 128,-1,8
 65 -38 65 -38 65 -1 c 2,9,-1
 65 496 l 1,10,-1
 185 496 l 1,11,-1
 195 433 l 1,12,-1
 199 433 l 1,13,14
 231 463 231 463 269 485.5 c 128,-1,15
 307 508 307 508 358 508 c 0,16,17
 439 508 439 508 475.5 455 c 128,-1,18
 512 402 512 402 512 308 c 2,19,-1
 512 0 l 1,20,-1
 365 0 l 1,21,-1
 365 289 l 2,22,23
 365 343 365 343 350.5 363 c 128,-1,24
 336 383 336 383 304 383 c 0,25,26
 276 383 276 383 256 370.5 c 128,-1,27
 236 358 236 358 212 335 c 1,28,-1
 212 4 l 2,29,30
 212 -35 212 -35 204 -69.5 c 128,-1,31
 196 -104 196 -104 176.5 -130.5 c 128,-1,32
 157 -157 157 -157 125 -172 c 128,-1,33
 93 -187 93 -187 45 -187 c 0,0,1
EndSplineSet
Validated: 1
EndChar

StartChar: uni0273
Encoding: 627 627 482
Width: 572
GlyphClass: 2
Flags: W
AnchorPoint: "Anchor-0" 308 518 basechar 0
LayerCount: 2
Fore
SplineSet
532 -187 m 0,0,1
 484 -187 484 -187 452 -172 c 128,-1,2
 420 -157 420 -157 400.5 -130.5 c 128,-1,3
 381 -104 381 -104 373 -69.5 c 128,-1,4
 365 -35 365 -35 365 4 c 2,5,-1
 365 289 l 2,6,7
 365 343 365 343 350.5 363 c 128,-1,8
 336 383 336 383 304 383 c 0,9,10
 276 383 276 383 256 370.5 c 128,-1,11
 236 358 236 358 212 335 c 1,12,-1
 212 0 l 1,13,-1
 65 0 l 1,14,-1
 65 496 l 1,15,-1
 185 496 l 1,16,-1
 195 433 l 1,17,-1
 199 433 l 1,18,19
 231 463 231 463 269 485.5 c 128,-1,20
 307 508 307 508 358 508 c 0,21,22
 439 508 439 508 475.5 455 c 128,-1,23
 512 402 512 402 512 308 c 2,24,-1
 512 -1 l 2,25,26
 512 -38 512 -38 521.5 -54.5 c 128,-1,27
 531 -71 531 -71 555 -71 c 0,28,29
 569 -71 569 -71 584 -65 c 1,30,-1
 610 -173 l 1,31,32
 596 -179 596 -179 578 -183 c 128,-1,33
 560 -187 560 -187 532 -187 c 0,0,1
EndSplineSet
Validated: 1
EndChar

StartChar: uni0274
Encoding: 628 628 483
Width: 561
GlyphClass: 2
Flags: W
AnchorPoint: "Anchor-0" 286 518 basechar 0
LayerCount: 2
Fore
SplineSet
65 0 m 1,0,-1
 65 496 l 1,1,-1
 200 496 l 1,2,-1
 318 287 l 2,3,4
 329 265 329 265 343 235 c 128,-1,5
 357 205 357 205 368 183 c 1,6,-1
 371 183 l 1,7,8
 367 228 367 228 363 274.5 c 128,-1,9
 359 321 359 321 359 358 c 2,10,-1
 359 496 l 1,11,-1
 496 496 l 1,12,-1
 496 0 l 1,13,-1
 361 0 l 1,14,-1
 242 209 l 2,15,16
 231 231 231 231 217.5 260.5 c 128,-1,17
 204 290 204 290 193 313 c 1,18,-1
 189 313 l 1,19,20
 194 267 194 267 198 221.5 c 128,-1,21
 202 176 202 176 202 138 c 2,22,-1
 202 0 l 1,23,-1
 65 0 l 1,0,-1
EndSplineSet
Validated: 1
EndChar

StartChar: uni0275
Encoding: 629 629 484
Width: 555
GlyphClass: 2
Flags: W
AnchorPoint: "Anchor-0" 278 518 basechar 0
LayerCount: 2
Fore
SplineSet
278 -12 m 256,0,1
 230 -12 230 -12 186 4.5 c 128,-1,2
 142 21 142 21 109 54 c 128,-1,3
 76 87 76 87 56 135.5 c 128,-1,4
 36 184 36 184 36 248 c 256,5,6
 36 312 36 312 56 360.5 c 128,-1,7
 76 409 76 409 109 442 c 128,-1,8
 142 475 142 475 186 491.5 c 128,-1,9
 230 508 230 508 278 508 c 256,10,11
 326 508 326 508 369.5 491.5 c 128,-1,12
 413 475 413 475 446 442 c 128,-1,13
 479 409 479 409 499 360.5 c 128,-1,14
 519 312 519 312 519 248 c 256,15,16
 519 184 519 184 499 135.5 c 128,-1,17
 479 87 479 87 446 54 c 128,-1,18
 413 21 413 21 369.5 4.5 c 128,-1,19
 326 -12 326 -12 278 -12 c 256,0,1
278 399 m 0,20,21
 196 399 196 399 178 302 c 1,22,-1
 377 302 l 1,23,24
 359 399 359 399 278 399 c 0,20,21
278 98 m 256,25,26
 320 98 320 98 345.5 125 c 128,-1,27
 371 152 371 152 379 205 c 1,28,-1
 176 205 l 1,29,30
 184 152 184 152 210 125 c 128,-1,31
 236 98 236 98 278 98 c 256,25,26
EndSplineSet
Validated: 1
EndChar

StartChar: uni0276
Encoding: 630 630 485
Width: 726
GlyphClass: 2
Flags: W
AnchorPoint: "Anchor-4" 436 -22 basechar 0
AnchorPoint: "Anchor-0" 421 518 basechar 0
LayerCount: 2
Fore
SplineSet
291 -12 m 0,0,1
 243 -12 243 -12 197 3.5 c 128,-1,2
 151 19 151 19 115 51 c 128,-1,3
 79 83 79 83 57.5 132 c 128,-1,4
 36 181 36 181 36 247 c 0,5,6
 36 312 36 312 57.5 361 c 128,-1,7
 79 410 79 410 115 442.5 c 128,-1,8
 151 475 151 475 197 491.5 c 128,-1,9
 243 508 243 508 291 508 c 0,10,11
 320 508 320 508 344.5 505.5 c 128,-1,12
 369 503 369 503 406 496 c 1,13,-1
 690 496 l 1,14,-1
 690 389 l 1,15,-1
 485 389 l 1,16,-1
 485 302 l 1,17,-1
 659 302 l 1,18,-1
 659 205 l 1,19,-1
 485 205 l 1,20,-1
 485 105 l 1,21,-1
 700 105 l 1,22,-1
 700 0 l 1,23,-1
 406 0 l 1,24,25
 371 -8 371 -8 345.5 -10 c 128,-1,26
 320 -12 320 -12 291 -12 c 0,0,1
298 104 m 0,27,28
 318 104 318 104 341 110 c 1,29,-1
 341 384 l 1,30,31
 318 390 318 390 298 390 c 0,32,33
 277 390 277 390 257 382 c 128,-1,34
 237 374 237 374 221.5 357 c 128,-1,35
 206 340 206 340 196.5 313 c 128,-1,36
 187 286 187 286 187 247 c 0,37,38
 187 206 187 206 196.5 178.5 c 128,-1,39
 206 151 206 151 221.5 134.5 c 128,-1,40
 237 118 237 118 257 111 c 128,-1,41
 277 104 277 104 298 104 c 0,27,28
EndSplineSet
Validated: 1
EndChar

StartChar: uni0278
Encoding: 632 632 486
Width: 738
Flags: W
LayerCount: 2
Fore
SplineSet
187 248 m 256,0,1
 187 179 187 179 218 142 c 128,-1,2
 249 105 249 105 302 102 c 1,3,-1
 302 394 l 1,4,5
 249 391 249 391 218 354 c 128,-1,6
 187 317 187 317 187 248 c 256,0,1
551 248 m 256,7,8
 551 317 551 317 520.5 354 c 128,-1,9
 490 391 490 391 436 394 c 1,10,-1
 436 102 l 1,11,12
 489 105 489 105 520 142 c 128,-1,13
 551 179 551 179 551 248 c 256,7,8
302 -184 m 1,14,-1
 302 -8 l 1,15,16
 250 -5 250 -5 202 12.5 c 128,-1,17
 154 30 154 30 117 62.5 c 128,-1,18
 80 95 80 95 58 141.5 c 128,-1,19
 36 188 36 188 36 248 c 256,20,21
 36 308 36 308 58 354.5 c 128,-1,22
 80 401 80 401 117 433.5 c 128,-1,23
 154 466 154 466 202 483.5 c 128,-1,24
 250 501 250 501 302 504 c 1,25,-1
 302 701 l 1,26,-1
 436 701 l 1,27,-1
 436 504 l 1,28,29
 488 501 488 501 536 483.5 c 128,-1,30
 584 466 584 466 621 433.5 c 128,-1,31
 658 401 658 401 680 354.5 c 128,-1,32
 702 308 702 308 702 248 c 256,33,34
 702 188 702 188 680 141.5 c 128,-1,35
 658 95 658 95 621 62.5 c 128,-1,36
 584 30 584 30 536 12.5 c 128,-1,37
 488 -5 488 -5 436 -8 c 1,38,-1
 436 -184 l 1,39,-1
 302 -184 l 1,14,-1
EndSplineSet
Validated: 1
EndChar

StartChar: uni0279
Encoding: 633 633 487
Width: 398
GlyphClass: 2
Flags: W
AnchorPoint: "Anchor-4" 73 -22 basechar 0
AnchorPoint: "Anchor-0" 199 518 basechar 0
LayerCount: 2
Fore
SplineSet
58 -12 m 0,0,1
 37 -12 37 -12 23.5 -9.5 c 128,-1,2
 10 -7 10 -7 -1 -2 c 1,3,-1
 24 125 l 1,4,5
 37 122 37 122 49 119.5 c 128,-1,6
 61 117 61 117 77 117 c 0,7,8
 106 117 106 117 136.5 137.5 c 128,-1,9
 167 158 167 158 187 209 c 1,10,-1
 187 496 l 1,11,-1
 334 496 l 1,12,-1
 334 0 l 1,13,-1
 214 0 l 1,14,-1
 203 87 l 1,15,-1
 199 87 l 1,16,17
 172 36 172 36 134 12 c 128,-1,18
 96 -12 96 -12 58 -12 c 0,0,1
EndSplineSet
Validated: 1
EndChar

StartChar: uni027A
Encoding: 634 634 488
Width: 398
GlyphClass: 2
Flags: W
AnchorPoint: "Anchor-4" 73 -22 basechar 0
AnchorPoint: "Anchor-0" 181 518 basechar 0
LayerCount: 2
Fore
SplineSet
58 -12 m 0,0,1
 37 -12 37 -12 23.5 -9.5 c 128,-1,2
 10 -7 10 -7 -1 -2 c 1,3,-1
 24 125 l 1,4,5
 37 122 37 122 49 119.5 c 128,-1,6
 61 117 61 117 77 117 c 0,7,8
 106 117 106 117 136.5 137.5 c 128,-1,9
 167 158 167 158 187 209 c 1,10,-1
 187 701 l 1,11,-1
 334 701 l 1,12,-1
 334 0 l 1,13,-1
 214 0 l 1,14,-1
 203 87 l 1,15,-1
 199 87 l 1,16,17
 172 36 172 36 134 12 c 128,-1,18
 96 -12 96 -12 58 -12 c 0,0,1
EndSplineSet
Validated: 1
EndChar

StartChar: uni027B
Encoding: 635 635 489
Width: 398
GlyphClass: 2
Flags: W
AnchorPoint: "Anchor-4" 73 -22 basechar 0
AnchorPoint: "Anchor-0" 199 518 basechar 0
LayerCount: 2
Fore
SplineSet
354 -187 m 0,0,1
 311 -187 311 -187 282 -173.5 c 128,-1,2
 253 -160 253 -160 235.5 -136.5 c 128,-1,3
 218 -113 218 -113 210.5 -82.5 c 128,-1,4
 203 -52 203 -52 203 -18 c 2,5,-1
 203 87 l 1,6,-1
 199 87 l 1,7,8
 172 36 172 36 134 12 c 128,-1,9
 96 -12 96 -12 58 -12 c 0,10,11
 37 -12 37 -12 23.5 -9.5 c 128,-1,12
 10 -7 10 -7 -1 -2 c 1,13,-1
 24 125 l 1,14,15
 37 122 37 122 49 119.5 c 128,-1,16
 61 117 61 117 77 117 c 0,17,18
 106 117 106 117 136.5 137.5 c 128,-1,19
 167 158 167 158 187 209 c 1,20,-1
 187 496 l 1,21,-1
 334 496 l 1,22,-1
 334 -1 l 2,23,24
 334 -38 334 -38 343.5 -54.5 c 128,-1,25
 353 -71 353 -71 376 -71 c 0,26,27
 390 -71 390 -71 405 -65 c 1,28,-1
 431 -173 l 1,29,30
 417 -179 417 -179 399 -183 c 128,-1,31
 381 -187 381 -187 354 -187 c 0,0,1
EndSplineSet
Validated: 1
EndChar

StartChar: uni027D
Encoding: 637 637 490
Width: 398
GlyphClass: 2
Flags: W
AnchorPoint: "Anchor-4" 138 -22 basechar 0
AnchorPoint: "Anchor-0" 246 518 basechar 0
LayerCount: 2
Fore
SplineSet
232 -187 m 0,0,1
 184 -187 184 -187 152 -172 c 128,-1,2
 120 -157 120 -157 100.5 -130.5 c 128,-1,3
 81 -104 81 -104 73 -69.5 c 128,-1,4
 65 -35 65 -35 65 4 c 2,5,-1
 65 496 l 1,6,-1
 185 496 l 1,7,-1
 195 409 l 1,8,-1
 199 409 l 1,9,10
 226 460 226 460 264 484 c 128,-1,11
 302 508 302 508 340 508 c 0,12,13
 361 508 361 508 374.5 505.5 c 128,-1,14
 388 503 388 503 399 498 c 1,15,-1
 375 371 l 1,16,17
 361 375 361 375 349 377 c 128,-1,18
 337 379 337 379 321 379 c 0,19,20
 293 379 293 379 262.5 359 c 128,-1,21
 232 339 232 339 212 288 c 1,22,-1
 212 -1 l 2,23,24
 212 -38 212 -38 221.5 -54.5 c 128,-1,25
 231 -71 231 -71 255 -71 c 0,26,27
 268 -71 268 -71 283 -65 c 1,28,-1
 309 -173 l 1,29,30
 295 -179 295 -179 277 -183 c 128,-1,31
 259 -187 259 -187 232 -187 c 0,0,1
EndSplineSet
Validated: 1
EndChar

StartChar: uni027E
Encoding: 638 638 491
Width: 380
Flags: W
LayerCount: 2
Fore
SplineSet
65 0 m 1,0,-1
 65 304 l 2,1,2
 65 346 65 346 76.5 383 c 128,-1,3
 88 420 88 420 113 448 c 128,-1,4
 138 476 138 476 176.5 492 c 128,-1,5
 215 508 215 508 269 508 c 0,6,7
 306 508 306 508 334 504 c 128,-1,8
 362 500 362 500 381 494 c 1,9,-1
 358 371 l 1,10,11
 337 377 337 377 324.5 379 c 128,-1,12
 312 381 312 381 290 381 c 0,13,14
 277 381 277 381 263.5 375.5 c 128,-1,15
 250 370 250 370 238.5 357 c 128,-1,16
 227 344 227 344 219.5 323 c 128,-1,17
 212 302 212 302 212 272 c 2,18,-1
 212 0 l 1,19,-1
 65 0 l 1,0,-1
EndSplineSet
Validated: 1
EndChar

StartChar: uni0280
Encoding: 640 640 492
Width: 532
GlyphClass: 2
Flags: W
AnchorPoint: "Anchor-4" 288 -22 basechar 0
AnchorPoint: "Anchor-1" 268 518 basechar 0
LayerCount: 2
Fore
SplineSet
65 0 m 1,0,-1
 65 496 l 1,1,-1
 269 496 l 2,2,3
 312 496 312 496 349 488 c 128,-1,4
 386 480 386 480 414 460.5 c 128,-1,5
 442 441 442 441 458 409.5 c 128,-1,6
 474 378 474 378 474 332 c 0,7,8
 474 281 474 281 451.5 247 c 128,-1,9
 429 213 429 213 394 193 c 1,10,-1
 517 0 l 1,11,-1
 354 0 l 1,12,-1
 265 162 l 1,13,-1
 212 162 l 1,14,-1
 212 0 l 1,15,-1
 65 0 l 1,0,-1
212 261 m 1,16,-1
 251 261 l 2,17,18
 290 261 290 261 309.5 279.5 c 128,-1,19
 329 298 329 298 329 328 c 0,20,21
 329 388 329 388 251 388 c 2,22,-1
 212 388 l 1,23,-1
 212 261 l 1,16,-1
EndSplineSet
Validated: 1
EndChar

StartChar: uni0281
Encoding: 641 641 493
Width: 532
Flags: W
LayerCount: 2
Fore
SplineSet
263 0 m 2,0,1
 220 0 220 0 182.5 8.5 c 128,-1,2
 145 17 145 17 117.5 36 c 128,-1,3
 90 55 90 55 74 86.5 c 128,-1,4
 58 118 58 118 58 165 c 0,5,6
 58 216 58 216 80.5 250 c 128,-1,7
 103 284 103 284 138 304 c 1,8,-1
 15 496 l 1,9,-1
 178 496 l 1,10,-1
 267 335 l 1,11,-1
 320 335 l 1,12,-1
 320 496 l 1,13,-1
 467 496 l 1,14,-1
 467 0 l 1,15,-1
 263 0 l 2,0,1
281 108 m 2,16,-1
 320 108 l 1,17,-1
 320 236 l 1,18,-1
 281 236 l 2,19,20
 242 236 242 236 222.5 217 c 128,-1,21
 203 198 203 198 203 169 c 0,22,23
 203 108 203 108 281 108 c 2,16,-1
EndSplineSet
Validated: 1
EndChar

StartChar: uni0282
Encoding: 642 642 494
Width: 443
GlyphClass: 2
Flags: W
AnchorPoint: "Anchor-0" 236 518 basechar 0
LayerCount: 2
Fore
SplineSet
211 -12 m 0,0,1
 181 -12 181 -12 150 -6 c 1,2,3
 154 -75 154 -75 204 -75 c 0,4,5
 215 -75 215 -75 223.5 -73 c 128,-1,6
 232 -71 232 -71 243 -68 c 1,7,-1
 269 -173 l 1,8,9
 254 -179 254 -179 233.5 -183 c 128,-1,10
 213 -187 213 -187 181 -187 c 0,11,12
 135 -187 135 -187 104.5 -171 c 128,-1,13
 74 -155 74 -155 55.5 -128 c 128,-1,14
 37 -101 37 -101 29 -64.5 c 128,-1,15
 21 -28 21 -28 21 13 c 2,16,-1
 21 52 l 1,17,-1
 87 144 l 1,18,19
 121 119 121 119 152 108 c 128,-1,20
 183 97 183 97 215 97 c 0,21,22
 248 97 248 97 263 108 c 128,-1,23
 278 119 278 119 278 139 c 0,24,25
 278 151 278 151 269.5 160.5 c 128,-1,26
 261 170 261 170 246.5 178 c 128,-1,27
 232 186 232 186 214 192.5 c 128,-1,28
 196 199 196 199 177 207 c 0,29,30
 154 216 154 216 131 228 c 128,-1,31
 108 240 108 240 89 257.5 c 128,-1,32
 70 275 70 275 58 298.5 c 128,-1,33
 46 322 46 322 46 353 c 0,34,35
 46 387 46 387 59.5 416 c 128,-1,36
 73 445 73 445 98 465 c 128,-1,37
 123 485 123 485 158 496.5 c 128,-1,38
 193 508 193 508 236 508 c 0,39,40
 293 508 293 508 336 488.5 c 128,-1,41
 379 469 379 469 411 445 c 1,42,-1
 345 357 l 1,43,44
 318 377 318 377 292 388 c 128,-1,45
 266 399 266 399 240 399 c 0,46,47
 184 399 184 399 184 360 c 0,48,49
 184 348 184 348 192 339.5 c 128,-1,50
 200 331 200 331 213.5 324 c 128,-1,51
 227 317 227 317 244.5 310.5 c 128,-1,52
 262 304 262 304 281 297 c 0,53,54
 305 288 305 288 328.5 276.5 c 128,-1,55
 352 265 352 265 371.5 248 c 128,-1,56
 391 231 391 231 403 206.5 c 128,-1,57
 415 182 415 182 415 148 c 256,58,59
 415 114 415 114 402 85 c 128,-1,60
 389 56 389 56 363 34.5 c 128,-1,61
 337 13 337 13 299 0.5 c 128,-1,62
 261 -12 261 -12 211 -12 c 0,0,1
EndSplineSet
Validated: 1
EndChar

StartChar: uni0283
Encoding: 643 643 495
Width: 278
Flags: W
LayerCount: 2
Fore
SplineSet
36 -196 m 0,0,1
 5 -196 5 -196 -15.5 -192 c 128,-1,2
 -36 -188 -36 -188 -51 -182 c 1,3,-1
 -25 -74 l 1,4,5
 -15 -77 -15 -77 -6 -79 c 128,-1,6
 3 -81 3 -81 14 -81 c 0,7,8
 43 -81 43 -81 54.5 -62 c 128,-1,9
 66 -43 66 -43 66 -1 c 2,10,-1
 66 513 l 2,11,12
 66 554 66 554 75 590.5 c 128,-1,13
 84 627 84 627 106 654 c 128,-1,14
 128 681 128 681 163.5 697 c 128,-1,15
 199 713 199 713 253 713 c 0,16,17
 281 713 281 713 299 709 c 128,-1,18
 317 705 317 705 331 699 c 1,19,-1
 305 591 l 1,20,21
 297 594 297 594 290.5 596 c 128,-1,22
 284 598 284 598 276 598 c 0,23,24
 241 598 241 598 227 579 c 128,-1,25
 213 560 213 560 213 518 c 2,26,-1
 213 3 l 2,27,28
 213 -38 213 -38 204.5 -74 c 128,-1,29
 196 -110 196 -110 175.5 -137 c 128,-1,30
 155 -164 155 -164 121 -180 c 128,-1,31
 87 -196 87 -196 36 -196 c 0,0,1
EndSplineSet
Validated: 1
EndChar

StartChar: uni0284
Encoding: 644 644 496
Width: 321
Flags: W
LayerCount: 2
Fore
SplineSet
56 -196 m 0,0,1
 25 -196 25 -196 4.5 -192 c 128,-1,2
 -16 -188 -16 -188 -31 -182 c 1,3,-1
 -5 -74 l 1,4,5
 5 -77 5 -77 14 -79 c 128,-1,6
 23 -81 23 -81 34 -81 c 0,7,8
 63 -81 63 -81 74.5 -62 c 128,-1,9
 86 -43 86 -43 86 -1 c 2,10,-1
 86 223 l 1,11,-1
 12 223 l 1,12,-1
 12 288 l 1,13,-1
 86 294 l 1,14,-1
 86 513 l 2,15,16
 86 554 86 554 95 590.5 c 128,-1,17
 104 627 104 627 126 654 c 128,-1,18
 148 681 148 681 183.5 697 c 128,-1,19
 219 713 219 713 273 713 c 0,20,21
 301 713 301 713 319 709 c 128,-1,22
 337 705 337 705 351 699 c 1,23,-1
 325 591 l 1,24,25
 317 594 317 594 310.5 596 c 128,-1,26
 304 598 304 598 296 598 c 0,27,28
 261 598 261 598 247 579 c 128,-1,29
 233 560 233 560 233 518 c 2,30,-1
 233 294 l 1,31,-1
 304 294 l 1,32,-1
 304 223 l 1,33,-1
 233 223 l 1,34,-1
 233 3 l 2,35,36
 233 -38 233 -38 224.5 -74 c 128,-1,37
 216 -110 216 -110 195.5 -137 c 128,-1,38
 175 -164 175 -164 141 -180 c 128,-1,39
 107 -196 107 -196 56 -196 c 0,0,1
EndSplineSet
Validated: 1
EndChar

StartChar: uni0288
Encoding: 648 648 497
Width: 383
GlyphClass: 2
Flags: W
AnchorPoint: "Anchor-0" 167 658 basechar 0
LayerCount: 2
Fore
SplineSet
256 -187 m 0,0,1
 210 -187 210 -187 177.5 -173 c 128,-1,2
 145 -159 145 -159 124.5 -134 c 128,-1,3
 104 -109 104 -109 94.5 -73.5 c 128,-1,4
 85 -38 85 -38 85 5 c 2,5,-1
 85 381 l 1,6,-1
 17 381 l 1,7,-1
 17 490 l 1,8,-1
 93 496 l 1,9,-1
 110 628 l 1,10,-1
 232 628 l 1,11,-1
 232 496 l 1,12,-1
 351 496 l 1,13,-1
 351 381 l 1,14,-1
 232 381 l 1,15,-1
 232 7 l 2,16,17
 232 -35 232 -35 249.5 -53.5 c 128,-1,18
 267 -72 267 -72 296 -72 c 0,19,20
 308 -72 308 -72 320.5 -69 c 128,-1,21
 333 -66 333 -66 343 -62 c 1,22,-1
 366 -169 l 1,23,24
 346 -175 346 -175 319 -181 c 128,-1,25
 292 -187 292 -187 256 -187 c 0,0,1
EndSplineSet
Validated: 1
EndChar

StartChar: uni0289
Encoding: 649 649 498
Width: 617
GlyphClass: 2
Flags: W
AnchorPoint: "Anchor-0" 312 518 basechar 0
LayerCount: 2
Fore
SplineSet
12 268 m 1,0,-1
 12 333 l 1,1,-1
 87 339 l 1,2,-1
 87 496 l 1,3,-1
 234 496 l 1,4,-1
 234 339 l 1,5,-1
 384 339 l 1,6,-1
 384 496 l 1,7,-1
 531 496 l 1,8,-1
 531 339 l 1,9,-1
 601 339 l 1,10,-1
 601 268 l 1,11,-1
 531 268 l 1,12,-1
 531 0 l 1,13,-1
 411 0 l 1,14,-1
 400 69 l 1,15,-1
 397 69 l 1,16,17
 365 31 365 31 328.5 9.5 c 128,-1,18
 292 -12 292 -12 241 -12 c 0,19,20
 160 -12 160 -12 123.5 41 c 128,-1,21
 87 94 87 94 87 188 c 2,22,-1
 87 268 l 1,23,-1
 12 268 l 1,0,-1
296 113 m 0,24,25
 324 113 324 113 343 126 c 128,-1,26
 362 139 362 139 384 168 c 1,27,-1
 384 268 l 1,28,-1
 234 268 l 1,29,-1
 234 207 l 2,30,31
 234 153 234 153 249 133 c 128,-1,32
 264 113 264 113 296 113 c 0,24,25
EndSplineSet
Validated: 1
EndChar

StartChar: uni028A
Encoding: 650 650 499
Width: 558
GlyphClass: 2
Flags: W
AnchorPoint: "Anchor-4" 279 -22 basechar 0
AnchorPoint: "Anchor-0" 279 518 basechar 0
LayerCount: 2
Fore
SplineSet
279 -12 m 256,0,1
 222 -12 222 -12 177.5 6.5 c 128,-1,2
 133 25 133 25 102.5 55 c 128,-1,3
 72 85 72 85 56 123 c 128,-1,4
 40 161 40 161 40 201 c 0,5,6
 40 261 40 261 62 306 c 128,-1,7
 84 351 84 351 111 378 c 1,8,-1
 111 381 l 1,9,-1
 29 381 l 1,10,-1
 29 496 l 1,11,-1
 243 496 l 1,12,-1
 243 401 l 1,13,14
 215 366 215 366 201 328 c 128,-1,15
 187 290 187 290 187 233 c 0,16,17
 187 206 187 206 192.5 183 c 128,-1,18
 198 160 198 160 209.5 143 c 128,-1,19
 221 126 221 126 238 116.5 c 128,-1,20
 255 107 255 107 279 107 c 256,21,22
 303 107 303 107 320 116.5 c 128,-1,23
 337 126 337 126 348.5 143 c 128,-1,24
 360 160 360 160 365.5 183 c 128,-1,25
 371 206 371 206 371 233 c 0,26,27
 371 290 371 290 357 328 c 128,-1,28
 343 366 343 366 315 401 c 1,29,-1
 315 496 l 1,30,-1
 528 496 l 1,31,-1
 528 381 l 1,32,-1
 447 381 l 1,33,-1
 447 378 l 1,34,35
 474 351 474 351 496 306 c 128,-1,36
 518 261 518 261 518 201 c 0,37,38
 518 161 518 161 502 123 c 128,-1,39
 486 85 486 85 455.5 55 c 128,-1,40
 425 25 425 25 380.5 6.5 c 128,-1,41
 336 -12 336 -12 279 -12 c 256,0,1
EndSplineSet
Validated: 1
EndChar

StartChar: uni028B
Encoding: 651 651 500
Width: 552
GlyphClass: 2
Flags: W
AnchorPoint: "Anchor-4" 286 -22 basechar 0
AnchorPoint: "Anchor-0" 283 518 basechar 0
LayerCount: 2
Fore
SplineSet
273 -12 m 0,0,1
 175 -12 175 -12 117.5 45.5 c 128,-1,2
 60 103 60 103 60 217 c 2,3,-1
 60 496 l 1,4,-1
 207 496 l 1,5,-1
 207 219 l 2,6,7
 207 160 207 160 226 133.5 c 128,-1,8
 245 107 245 107 280 107 c 0,9,10
 321 107 321 107 342.5 152.5 c 128,-1,11
 364 198 364 198 364 277 c 0,12,13
 364 337 364 337 351.5 365.5 c 128,-1,14
 339 394 339 394 312 394 c 0,15,16
 302 394 302 394 292 391 c 1,17,-1
 276 500 l 1,18,19
 290 505 290 505 305.5 506.5 c 128,-1,20
 321 508 321 508 344 508 c 0,21,22
 380 508 380 508 411.5 496 c 128,-1,23
 443 484 443 484 466 458.5 c 128,-1,24
 489 433 489 433 502 393.5 c 128,-1,25
 515 354 515 354 515 299 c 0,26,27
 515 229 515 229 499.5 172 c 128,-1,28
 484 115 484 115 454 74 c 128,-1,29
 424 33 424 33 378.5 10.5 c 128,-1,30
 333 -12 333 -12 273 -12 c 0,0,1
EndSplineSet
Validated: 1
EndChar

StartChar: uni028C
Encoding: 652 652 501
Width: 523
GlyphClass: 2
Flags: W
AnchorPoint: "Anchor-4" 263 -22 basechar 0
AnchorPoint: "Anchor-0" 263 518 basechar 0
LayerCount: 2
Fore
SplineSet
12 0 m 1,0,-1
 174 496 l 1,1,-1
 343 496 l 1,2,-1
 511 0 l 1,3,-1
 363 0 l 1,4,-1
 298 234 l 2,5,6
 289 271 289 271 279 309.5 c 128,-1,7
 269 348 269 348 260 387 c 1,8,-1
 256 387 l 1,9,10
 246 348 246 348 236.5 309.5 c 128,-1,11
 227 271 227 271 217 234 c 2,12,-1
 153 0 l 1,13,-1
 12 0 l 1,0,-1
EndSplineSet
Validated: 1
EndChar

StartChar: uni028D
Encoding: 653 653 502
Width: 776
GlyphClass: 2
Flags: W
AnchorPoint: "Anchor-4" 389 -22 basechar 0
AnchorPoint: "Anchor-0" 389 518 basechar 0
LayerCount: 2
Fore
SplineSet
24 0 m 1,0,-1
 143 496 l 1,1,-1
 315 496 l 1,2,-1
 360 298 l 2,3,4
 367 263 367 263 373.5 228 c 128,-1,5
 380 193 380 193 387 153 c 1,6,-1
 391 153 l 1,7,8
 397 193 397 193 402.5 228 c 128,-1,9
 408 263 408 263 416 298 c 2,10,-1
 459 496 l 1,11,-1
 628 496 l 1,12,-1
 752 0 l 1,13,-1
 606 0 l 1,14,-1
 558 230 l 2,15,16
 552 267 552 267 547 303 c 128,-1,17
 542 339 542 339 536 377 c 1,18,-1
 532 377 l 1,19,20
 525 339 525 339 518 302 c 128,-1,21
 511 265 511 265 502 230 c 2,22,-1
 448 0 l 1,23,-1
 321 0 l 1,24,-1
 265 230 l 2,25,26
 256 267 256 267 249 303 c 128,-1,27
 242 339 242 339 234 377 c 1,28,-1
 230 377 l 1,29,30
 223 339 223 339 218.5 303 c 128,-1,31
 214 267 214 267 207 230 c 2,32,-1
 160 0 l 1,33,-1
 24 0 l 1,0,-1
EndSplineSet
Validated: 1
EndChar

StartChar: uni028E
Encoding: 654 654 503
Width: 521
GlyphClass: 2
Flags: W
AnchorPoint: "Anchor-4" 263 -22 basechar 0
AnchorPoint: "Anchor-0" 267 518 basechar 0
LayerCount: 2
Fore
SplineSet
12 0 m 1,0,-1
 193 524 l 2,1,2
 211 570 211 570 230.5 605.5 c 128,-1,3
 250 641 250 641 275.5 665 c 128,-1,4
 301 689 301 689 333.5 701 c 128,-1,5
 366 713 366 713 410 713 c 0,6,7
 433 713 433 713 449 710.5 c 128,-1,8
 465 708 465 708 480 703 c 1,9,-1
 454 591 l 1,10,11
 447 593 447 593 438 595 c 128,-1,12
 429 597 429 597 421 597 c 0,13,14
 384 597 384 597 364 579 c 128,-1,15
 344 561 344 561 334 532 c 2,16,-1
 318 483 l 1,17,-1
 509 0 l 1,18,-1
 362 0 l 1,19,-1
 291 213 l 2,20,21
 280 247 280 247 270.5 282 c 128,-1,22
 261 317 261 317 251 354 c 1,23,-1
 247 354 l 1,24,25
 239 319 239 319 230.5 283.5 c 128,-1,26
 222 248 222 248 213 213 c 2,27,-1
 153 0 l 1,28,-1
 12 0 l 1,0,-1
EndSplineSet
Validated: 1
EndChar

StartChar: uni028F
Encoding: 655 655 504
Width: 466
GlyphClass: 2
Flags: W
AnchorPoint: "Anchor-4" 232 -22 basechar 0
AnchorPoint: "Anchor-0" 231 518 basechar 0
LayerCount: 2
Fore
SplineSet
160 0 m 1,0,-1
 160 150 l 1,1,-1
 -8 496 l 1,2,-1
 147 496 l 1,3,-1
 190 389 l 2,4,5
 200 358 200 358 210.5 330.5 c 128,-1,6
 221 303 221 303 232 271 c 1,7,-1
 236 271 l 1,8,9
 247 303 247 303 258 330.5 c 128,-1,10
 269 358 269 358 280 389 c 2,11,-1
 321 496 l 1,12,-1
 474 496 l 1,13,-1
 307 150 l 1,14,-1
 307 0 l 1,15,-1
 160 0 l 1,0,-1
EndSplineSet
Validated: 1
EndChar

StartChar: uni0290
Encoding: 656 656 505
Width: 460
GlyphClass: 2
Flags: W
AnchorPoint: "Anchor-0" 246 518 basechar 0
LayerCount: 2
Fore
SplineSet
446 -187 m 0,0,1
 399 -187 399 -187 367.5 -172 c 128,-1,2
 336 -157 336 -157 316 -132.5 c 128,-1,3
 296 -108 296 -108 287.5 -77 c 128,-1,4
 279 -46 279 -46 279 -13 c 2,5,-1
 279 0 l 1,6,-1
 38 0 l 1,7,-1
 38 79 l 1,8,-1
 246 381 l 1,9,-1
 61 381 l 1,10,-1
 61 496 l 1,11,-1
 429 496 l 1,12,-1
 429 418 l 1,13,-1
 221 115 l 1,14,-1
 426 115 l 1,15,-1
 426 -1 l 2,16,17
 426 -38 426 -38 435.5 -54.5 c 128,-1,18
 445 -71 445 -71 469 -71 c 0,19,20
 483 -71 483 -71 498 -65 c 1,21,-1
 524 -173 l 1,22,23
 510 -179 510 -179 492 -183 c 128,-1,24
 474 -187 474 -187 446 -187 c 0,0,1
EndSplineSet
Validated: 1
EndChar

StartChar: uni0291
Encoding: 657 657 506
Width: 503
GlyphClass: 2
Flags: W
AnchorPoint: "Anchor-0" 246 518 basechar 0
LayerCount: 2
Fore
SplineSet
287 -82 m 1,0,-1
 217 -67 l 1,1,2
 221 -50 221 -50 224.5 -33 c 128,-1,3
 228 -16 228 -16 233 0 c 1,4,-1
 38 0 l 1,5,-1
 38 79 l 1,6,-1
 246 381 l 1,7,-1
 61 381 l 1,8,-1
 61 496 l 1,9,-1
 419 496 l 1,10,-1
 419 418 l 1,11,-1
 211 115 l 1,12,13
 226 113 226 113 240.5 112.5 c 128,-1,14
 255 112 255 112 269 111 c 1,15,16
 297 177 297 177 332.5 215.5 c 128,-1,17
 368 254 368 254 413 254 c 0,18,19
 461 254 461 254 489 226.5 c 128,-1,20
 517 199 517 199 517 144 c 0,21,22
 517 115 517 115 507 88.5 c 128,-1,23
 497 62 497 62 475.5 42.5 c 128,-1,24
 454 23 454 23 420.5 11.5 c 128,-1,25
 387 0 387 0 341 0 c 2,26,-1
 306 0 l 1,27,28
 301 -18 301 -18 296.5 -38.5 c 128,-1,29
 292 -59 292 -59 287 -82 c 1,0,-1
379 107 m 2,30,31
 410 107 410 107 424.5 119.5 c 128,-1,32
 439 132 439 132 439 149 c 0,33,34
 439 176 439 176 409 176 c 0,35,36
 394 176 394 176 377 159.5 c 128,-1,37
 360 143 360 143 343 107 c 1,38,-1
 379 107 l 2,30,31
EndSplineSet
Validated: 1
EndChar

StartChar: uni0292
Encoding: 658 658 507
Width: 460
GlyphClass: 2
Flags: W
AnchorPoint: "Anchor-0" 204 525 basechar 0
LayerCount: 2
Fore
SplineSet
211 -196 m 0,0,1
 140 -196 140 -196 90 -172 c 128,-1,2
 40 -148 40 -148 5 -115 c 1,3,-1
 71 -24 l 1,4,5
 96 -46 96 -46 126 -61.5 c 128,-1,6
 156 -77 156 -77 194 -77 c 0,7,8
 237 -77 237 -77 264.5 -49.5 c 128,-1,9
 292 -22 292 -22 292 29 c 0,10,11
 292 74 292 74 266 98 c 128,-1,12
 240 122 240 122 196 122 c 0,13,14
 176 122 176 122 165 119.5 c 128,-1,15
 154 117 154 117 137 110 c 1,16,-1
 89 181 l 1,17,-1
 241 381 l 1,18,-1
 38 381 l 1,19,-1
 38 496 l 1,20,-1
 416 496 l 1,21,-1
 416 418 l 1,22,-1
 267 222 l 1,23,24
 308 219 308 219 340 203.5 c 128,-1,25
 372 188 372 188 394 163 c 128,-1,26
 416 138 416 138 427.5 104.5 c 128,-1,27
 439 71 439 71 439 32 c 0,28,29
 439 -23 439 -23 420.5 -65.5 c 128,-1,30
 402 -108 402 -108 371 -137 c 128,-1,31
 340 -166 340 -166 298.5 -181 c 128,-1,32
 257 -196 257 -196 211 -196 c 0,0,1
EndSplineSet
Validated: 1
EndChar

StartChar: uni0294
Encoding: 660 660 508
Width: 448
Flags: W
LayerCount: 2
Fore
SplineSet
129 0 m 1,0,-1
 129 317 l 1,1,2
 172 344 172 344 201.5 367 c 128,-1,3
 231 390 231 390 249.5 412 c 128,-1,4
 268 434 268 434 276 455.5 c 128,-1,5
 284 477 284 477 284 501 c 0,6,7
 284 546 284 546 259 570 c 128,-1,8
 234 594 234 594 191 594 c 0,9,10
 153 594 153 594 122 575 c 128,-1,11
 91 556 91 556 66 530 c 1,12,-1
 -6 623 l 1,13,14
 29 661 29 661 81 687 c 128,-1,15
 133 713 133 713 207 713 c 0,16,17
 252 713 252 713 293 700 c 128,-1,18
 334 687 334 687 364.5 661.5 c 128,-1,19
 395 636 395 636 413 597.5 c 128,-1,20
 431 559 431 559 431 508 c 0,21,22
 431 467 431 467 419.5 433.5 c 128,-1,23
 408 400 408 400 387.5 370.5 c 128,-1,24
 367 341 367 341 338.5 315 c 128,-1,25
 310 289 310 289 276 262 c 1,26,-1
 276 0 l 1,27,-1
 129 0 l 1,0,-1
EndSplineSet
Validated: 1
EndChar

StartChar: uni0295
Encoding: 661 661 509
Width: 506
Flags: W
LayerCount: 2
Fore
SplineSet
197 0 m 1,0,-1
 197 262 l 1,1,2
 163 289 163 289 134.5 315 c 128,-1,3
 106 341 106 341 85.5 370.5 c 128,-1,4
 65 400 65 400 53.5 433.5 c 128,-1,5
 42 467 42 467 42 508 c 0,6,7
 42 559 42 559 61 597.5 c 128,-1,8
 80 636 80 636 112 661.5 c 128,-1,9
 144 687 144 687 186.5 700 c 128,-1,10
 229 713 229 713 276 713 c 0,11,12
 345 713 345 713 394.5 687 c 128,-1,13
 444 661 444 661 479 623 c 1,14,-1
 406 530 l 1,15,16
 384 556 384 556 355.5 575 c 128,-1,17
 327 594 327 594 292 594 c 0,18,19
 244 594 244 594 216.5 570 c 128,-1,20
 189 546 189 546 189 501 c 0,21,22
 189 477 189 477 197 455.5 c 128,-1,23
 205 434 205 434 223.5 412 c 128,-1,24
 242 390 242 390 271.5 367 c 128,-1,25
 301 344 301 344 344 317 c 1,26,-1
 344 0 l 1,27,-1
 197 0 l 1,0,-1
EndSplineSet
Validated: 1
EndChar

StartChar: uni02A1
Encoding: 673 673 510
Width: 476
Flags: W
LayerCount: 2
Fore
SplineSet
144 0 m 1,0,-1
 144 201 l 1,1,-1
 11 201 l 1,2,-1
 11 311 l 1,3,-1
 87 317 l 1,4,-1
 162 317 l 1,5,6
 238 372 238 372 268.5 415.5 c 128,-1,7
 299 459 299 459 299 501 c 0,8,9
 299 546 299 546 274 570 c 128,-1,10
 249 594 249 594 207 594 c 0,11,12
 169 594 169 594 137.5 575 c 128,-1,13
 106 556 106 556 82 530 c 1,14,-1
 9 623 l 1,15,16
 45 661 45 661 97 687 c 128,-1,17
 149 713 149 713 223 713 c 0,18,19
 268 713 268 713 309 700 c 128,-1,20
 350 687 350 687 380.5 661.5 c 128,-1,21
 411 636 411 636 429 597.5 c 128,-1,22
 447 559 447 559 447 508 c 0,23,24
 447 480 447 480 438 455 c 128,-1,25
 429 430 429 430 413 406.5 c 128,-1,26
 397 383 397 383 375.5 360.5 c 128,-1,27
 354 338 354 338 330 317 c 1,28,-1
 460 317 l 1,29,-1
 460 201 l 1,30,-1
 291 201 l 1,31,-1
 291 0 l 1,32,-1
 144 0 l 1,0,-1
EndSplineSet
Validated: 1
EndChar

StartChar: uni02A2
Encoding: 674 674 511
Width: 476
Flags: W
LayerCount: 2
Fore
SplineSet
186 0 m 1,0,-1
 186 201 l 1,1,-1
 17 201 l 1,2,-1
 17 317 l 1,3,-1
 146 317 l 1,4,5
 98 360 98 360 64 406 c 128,-1,6
 30 452 30 452 30 508 c 0,7,8
 30 559 30 559 49 597.5 c 128,-1,9
 68 636 68 636 100 661.5 c 128,-1,10
 132 687 132 687 174.5 700 c 128,-1,11
 217 713 217 713 264 713 c 0,12,13
 333 713 333 713 382.5 687 c 128,-1,14
 432 661 432 661 467 623 c 1,15,-1
 394 530 l 1,16,17
 372 556 372 556 343.5 575 c 128,-1,18
 315 594 315 594 280 594 c 0,19,20
 232 594 232 594 204.5 570 c 128,-1,21
 177 546 177 546 177 501 c 0,22,23
 177 459 177 459 207.5 415.5 c 128,-1,24
 238 372 238 372 314 317 c 1,25,-1
 390 317 l 1,26,-1
 466 311 l 1,27,-1
 466 201 l 1,28,-1
 333 201 l 1,29,-1
 333 0 l 1,30,-1
 186 0 l 1,0,-1
EndSplineSet
Validated: 1
EndChar

StartChar: uni01C2
Encoding: 450 450 512
Width: 330
Flags: W
LayerCount: 2
Fore
SplineSet
6 330 m 1,0,-1
 6 396 l 1,1,-1
 82 401 l 1,2,-1
 120 401 l 1,3,-1
 120 750 l 1,4,-1
 216 750 l 1,5,-1
 216 401 l 1,6,-1
 322 401 l 1,7,-1
 322 330 l 1,8,-1
 216 330 l 1,9,-1
 216 205 l 1,10,-1
 322 205 l 1,11,-1
 322 134 l 1,12,-1
 216 134 l 1,13,-1
 216 -250 l 1,14,-1
 120 -250 l 1,15,-1
 120 134 l 1,16,-1
 6 134 l 1,17,-1
 6 199 l 1,18,-1
 82 205 l 1,19,-1
 120 205 l 1,20,-1
 120 330 l 1,21,-1
 6 330 l 1,0,-1
EndSplineSet
Validated: 1
EndChar

StartChar: uni0298
Encoding: 664 664 513
Width: 556
Flags: W
LayerCount: 2
Fore
SplineSet
278 -12 m 256,0,1
 227 -12 227 -12 184.5 10.5 c 128,-1,2
 142 33 142 33 112 78.5 c 128,-1,3
 82 124 82 124 65 192 c 128,-1,4
 48 260 48 260 48 352 c 0,5,6
 48 443 48 443 65 511 c 128,-1,7
 82 579 82 579 112 624 c 128,-1,8
 142 669 142 669 184.5 691 c 128,-1,9
 227 713 227 713 278 713 c 256,10,11
 329 713 329 713 371.5 691 c 128,-1,12
 414 669 414 669 444 624 c 128,-1,13
 474 579 474 579 491 511 c 128,-1,14
 508 443 508 443 508 352 c 0,15,16
 508 260 508 260 491 192 c 128,-1,17
 474 124 474 124 444 78.5 c 128,-1,18
 414 33 414 33 371.5 10.5 c 128,-1,19
 329 -12 329 -12 278 -12 c 256,0,1
278 107 m 256,20,21
 296 107 296 107 313 118.5 c 128,-1,22
 330 130 330 130 343.5 158.5 c 128,-1,23
 357 187 357 187 365.5 234 c 128,-1,24
 374 281 374 281 374 352 c 0,25,26
 374 421 374 421 365.5 467 c 128,-1,27
 357 513 357 513 343.5 541.5 c 128,-1,28
 330 570 330 570 313 582 c 128,-1,29
 296 594 296 594 278 594 c 256,30,31
 260 594 260 594 242.5 582 c 128,-1,32
 225 570 225 570 211.5 541.5 c 128,-1,33
 198 513 198 513 190 467 c 128,-1,34
 182 421 182 421 182 352 c 0,35,36
 182 281 182 281 190 234 c 128,-1,37
 198 187 198 187 211.5 158.5 c 128,-1,38
 225 130 225 130 242.5 118.5 c 128,-1,39
 260 107 260 107 278 107 c 256,20,21
278 290 m 256,40,41
 252 290 252 290 233 308.5 c 128,-1,42
 214 327 214 327 214 353 c 256,43,44
 214 379 214 379 233 397.5 c 128,-1,45
 252 416 252 416 278 416 c 256,46,47
 304 416 304 416 323 397.5 c 128,-1,48
 342 379 342 379 342 353 c 256,49,50
 342 327 342 327 323 308.5 c 128,-1,51
 304 290 304 290 278 290 c 256,40,41
EndSplineSet
Validated: 1
EndChar

StartChar: f_f
Encoding: 64256 64256 514
Width: 657
GlyphClass: 3
Flags: W
LayerCount: 2
Fore
SplineSet
406 0 m 1,0,-1
 406 381 l 1,1,-1
 237 381 l 1,2,-1
 237 0 l 1,3,-1
 90 0 l 1,4,-1
 90 381 l 1,5,-1
 24 381 l 1,6,-1
 24 490 l 1,7,-1
 90 495 l 1,8,-1
 90 518 l 2,9,10
 90 556 90 556 100.5 590 c 128,-1,11
 111 624 111 624 133.5 649 c 128,-1,12
 156 674 156 674 191.5 688.5 c 128,-1,13
 227 703 227 703 278 703 c 0,14,15
 310 703 310 703 337 697.5 c 128,-1,16
 364 692 364 692 381 685 c 1,17,-1
 354 576 l 1,18,19
 342 581 342 581 329 584 c 128,-1,20
 316 587 316 587 296 587 c 0,21,22
 270 587 270 587 253.5 570.5 c 128,-1,23
 237 554 237 554 237 519 c 2,24,-1
 237 496 l 1,25,-1
 406 496 l 1,26,-1
 406 522 l 2,27,28
 406 561 406 561 415.5 596 c 128,-1,29
 425 631 425 631 447 657 c 128,-1,30
 469 683 469 683 504 698 c 128,-1,31
 539 713 539 713 589 713 c 0,32,33
 620 713 620 713 645.5 707 c 128,-1,34
 671 701 671 701 688 695 c 1,35,-1
 661 587 l 1,36,37
 633 597 633 597 610 597 c 0,38,39
 583 597 583 597 568 580.5 c 128,-1,40
 553 564 553 564 553 526 c 2,41,-1
 553 496 l 1,42,-1
 642 496 l 1,43,-1
 642 381 l 1,44,-1
 553 381 l 1,45,-1
 553 0 l 1,46,-1
 406 0 l 1,0,-1
EndSplineSet
Validated: 1
Ligature2: "'liga' Standard Ligatures lookup 47 subtable" f f
EndChar

StartChar: f_t
Encoding: 1114116 -1 517
Width: 688
GlyphClass: 3
Flags: W
LayerCount: 2
Fore
SplineSet
90 0 m 1,0,-1
 90 381 l 1,1,-1
 24 381 l 1,2,-1
 24 490 l 1,3,-1
 90 495 l 1,4,-1
 90 522 l 2,5,6
 90 561 90 561 99.5 596 c 128,-1,7
 109 631 109 631 131 657 c 128,-1,8
 153 683 153 683 188 698 c 128,-1,9
 223 713 223 713 273 713 c 0,10,11
 304 713 304 713 329.5 707 c 128,-1,12
 355 701 355 701 372 695 c 1,13,-1
 345 587 l 1,14,15
 317 597 317 597 294 597 c 0,16,17
 267 597 267 597 252 580.5 c 128,-1,18
 237 564 237 564 237 526 c 2,19,-1
 237 496 l 1,20,-1
 398 496 l 1,21,-1
 415 628 l 1,22,-1
 537 628 l 1,23,-1
 537 496 l 1,24,-1
 656 496 l 1,25,-1
 656 381 l 1,26,-1
 537 381 l 1,27,-1
 537 182 l 2,28,29
 537 140 537 140 554.5 121.5 c 128,-1,30
 572 103 572 103 601 103 c 0,31,32
 613 103 613 103 625.5 106 c 128,-1,33
 638 109 638 109 648 113 c 1,34,-1
 671 6 l 1,35,36
 651 0 651 0 624 -6 c 128,-1,37
 597 -12 597 -12 561 -12 c 0,38,39
 515 -12 515 -12 482.5 2 c 128,-1,40
 450 16 450 16 429.5 41 c 128,-1,41
 409 66 409 66 399.5 101.5 c 128,-1,42
 390 137 390 137 390 180 c 2,43,-1
 390 381 l 1,44,-1
 237 381 l 1,45,-1
 237 0 l 1,46,-1
 90 0 l 1,0,-1
EndSplineSet
Validated: 1
Ligature2: "'liga' Standard Ligatures lookup 47 subtable" f t
EndChar

StartChar: f_f_t
Encoding: 1114117 -1 518
Width: 1004
GlyphClass: 3
Flags: W
LayerCount: 2
Fore
SplineSet
90 0 m 1,0,-1
 90 381 l 1,1,-1
 24 381 l 1,2,-1
 24 490 l 1,3,-1
 90 495 l 1,4,-1
 90 518 l 2,5,6
 90 556 90 556 100.5 590 c 128,-1,7
 111 624 111 624 133.5 649 c 128,-1,8
 156 674 156 674 191.5 688.5 c 128,-1,9
 227 703 227 703 278 703 c 0,10,11
 310 703 310 703 337 697.5 c 128,-1,12
 364 692 364 692 381 685 c 1,13,-1
 354 576 l 1,14,15
 342 581 342 581 329 584 c 128,-1,16
 316 587 316 587 296 587 c 0,17,18
 270 587 270 587 253.5 570.5 c 128,-1,19
 237 554 237 554 237 519 c 2,20,-1
 237 496 l 1,21,-1
 406 496 l 1,22,-1
 406 522 l 2,23,24
 406 561 406 561 415.5 596 c 128,-1,25
 425 631 425 631 447 657 c 128,-1,26
 469 683 469 683 504 698 c 128,-1,27
 539 713 539 713 589 713 c 0,28,29
 620 713 620 713 645.5 707 c 128,-1,30
 671 701 671 701 688 695 c 1,31,-1
 661 587 l 1,32,33
 633 597 633 597 610 597 c 0,34,35
 583 597 583 597 568 580.5 c 128,-1,36
 553 564 553 564 553 526 c 2,37,-1
 553 496 l 1,38,-1
 714 496 l 1,39,-1
 731 628 l 1,40,-1
 853 628 l 1,41,-1
 853 496 l 1,42,-1
 972 496 l 1,43,-1
 972 381 l 1,44,-1
 853 381 l 1,45,-1
 853 182 l 2,46,47
 853 140 853 140 870.5 121.5 c 128,-1,48
 888 103 888 103 917 103 c 0,49,50
 929 103 929 103 941.5 106 c 128,-1,51
 954 109 954 109 964 113 c 1,52,-1
 987 6 l 1,53,54
 967 0 967 0 940 -6 c 128,-1,55
 913 -12 913 -12 877 -12 c 0,56,57
 831 -12 831 -12 798.5 2 c 128,-1,58
 766 16 766 16 745.5 41 c 128,-1,59
 725 66 725 66 715.5 101.5 c 128,-1,60
 706 137 706 137 706 180 c 2,61,-1
 706 381 l 1,62,-1
 553 381 l 1,63,-1
 553 0 l 1,64,-1
 406 0 l 1,65,-1
 406 381 l 1,66,-1
 237 381 l 1,67,-1
 237 0 l 1,68,-1
 90 0 l 1,0,-1
EndSplineSet
Validated: 1
Ligature2: "'liga' Standard Ligatures lookup 47 subtable" f f t
EndChar

StartChar: I.a
Encoding: 1114118 -1 519
Width: 301
GlyphClass: 2
Flags: W
AnchorPoint: "Anchor-1" 198 674 basechar 0
AnchorPoint: "Anchor-4" 198 -22 basechar 0
AnchorPoint: "Anchor-8" 178 0 basechar 0
LayerCount: 2
Fore
SplineSet
77 0 m 5,0,-1
 77 652 l 5,1,-1
 224 652 l 5,2,-1
 224 0 l 5,3,-1
 77 0 l 5,0,-1
EndSplineSet
Validated: 1
EndChar

StartChar: Iogonek.a
Encoding: 1114129 -1 530
Width: 301
GlyphClass: 2
Flags: W
AnchorPoint: "Anchor-1" 198 674 basechar 0
LayerCount: 2
Fore
SplineSet
157 -223 m 4,0,1
 109 -223 109 -223 75.5 -198.5 c 132,-1,2
 42 -174 42 -174 42 -129 c 4,3,4
 42 -105 42 -105 49.5 -85 c 132,-1,5
 57 -65 57 -65 68 -48.5 c 132,-1,6
 79 -32 79 -32 92 -20 c 132,-1,7
 105 -8 105 -8 116 0 c 5,8,-1
 77 0 l 5,9,-1
 77 652 l 5,10,-1
 224 652 l 5,11,-1
 224 0 l 5,12,13
 184 -17 184 -17 167 -40.5 c 132,-1,14
 150 -64 150 -64 150 -90 c 4,15,16
 150 -110 150 -110 163 -119 c 132,-1,17
 176 -128 176 -128 191 -128 c 4,18,19
 202 -128 202 -128 211.5 -123.5 c 132,-1,20
 221 -119 221 -119 228 -114 c 5,21,-1
 261 -188 l 5,22,23
 242 -203 242 -203 212.5 -213 c 132,-1,24
 183 -223 183 -223 157 -223 c 4,0,1
EndSplineSet
Validated: 1
EndChar

StartChar: uni014A.a
Encoding: 1114131 -1 532
Width: 665
Flags: W
LayerCount: 2
Fore
SplineSet
414 -182 m 0,0,1
 383 -182 383 -182 362.5 -178 c 128,-1,2
 342 -174 342 -174 327 -168 c 1,3,-1
 353 -59 l 1,4,5
 363 -62 363 -62 372 -64 c 128,-1,6
 381 -66 381 -66 392 -66 c 0,7,8
 421 -66 421 -66 432.5 -46.5 c 128,-1,9
 444 -27 444 -27 444 0 c 1,10,-1
 437 0 l 1,11,-1
 267 325 l 1,12,-1
 203 467 l 1,13,-1
 199 467 l 1,14,15
 204 413 204 413 210.5 351 c 128,-1,16
 217 289 217 289 217 231 c 2,17,-1
 217 0 l 1,18,-1
 77 0 l 1,19,-1
 77 652 l 1,20,-1
 228 652 l 1,21,-1
 398 328 l 1,22,-1
 462 184 l 1,23,-1
 466 184 l 1,24,25
 461 236 461 236 454.5 300 c 128,-1,26
 448 364 448 364 448 422 c 2,27,-1
 448 652 l 1,28,-1
 588 652 l 1,29,-1
 588 18 l 2,30,31
 588 -23 588 -23 579 -59.5 c 128,-1,32
 570 -96 570 -96 549.5 -123 c 128,-1,33
 529 -150 529 -150 495.5 -166 c 128,-1,34
 462 -182 462 -182 414 -182 c 0,0,1
EndSplineSet
Validated: 1
EndChar

StartChar: aogonek.a
Encoding: 1114154 -1 555
Width: 573
GlyphClass: 2
Flags: W
AnchorPoint: "Anchor-0" 299 518 basechar 0
LayerCount: 2
Fore
SplineSet
427 -210 m 0,0,1
 383 -210 383 -210 352 -187 c 128,-1,2
 321 -164 321 -164 321 -119 c 0,3,4
 321 -97 321 -97 328 -78.5 c 128,-1,5
 335 -60 335 -60 345.5 -45 c 128,-1,6
 356 -30 356 -30 368 -19.5 c 128,-1,7
 380 -9 380 -9 390 -2 c 1,8,-1
 378 49 l 1,9,-1
 374 49 l 1,10,11
 348 23 348 23 313 5.5 c 128,-1,12
 278 -12 278 -12 242 -12 c 0,13,14
 196 -12 196 -12 158.5 6 c 128,-1,15
 121 24 121 24 94.5 57.5 c 128,-1,16
 68 91 68 91 53.5 139 c 128,-1,17
 39 187 39 187 39 248 c 256,18,19
 39 309 39 309 57 357 c 128,-1,20
 75 405 75 405 104.5 438.5 c 128,-1,21
 134 472 134 472 171.5 490 c 128,-1,22
 209 508 209 508 248 508 c 0,23,24
 286 508 286 508 317 493.5 c 128,-1,25
 348 479 348 479 377 447 c 1,26,-1
 381 447 l 1,27,-1
 393 496 l 1,28,-1
 508 496 l 1,29,-1
 508 0 l 1,30,31
 459 -15 459 -15 440 -38.5 c 128,-1,32
 421 -62 421 -62 421 -85 c 0,33,34
 421 -105 421 -105 433.5 -114 c 128,-1,35
 446 -123 446 -123 462 -123 c 0,36,37
 472 -123 472 -123 481.5 -119.5 c 128,-1,38
 491 -116 491 -116 498 -111 c 1,39,-1
 529 -177 l 1,40,41
 509 -192 509 -192 480 -201 c 128,-1,42
 451 -210 451 -210 427 -210 c 0,0,1
280 108 m 0,43,44
 304 108 304 108 323.5 118 c 128,-1,45
 343 128 343 128 361 153 c 1,46,-1
 361 356 l 1,47,48
 341 374 341 374 320 381 c 128,-1,49
 299 388 299 388 279 388 c 0,50,51
 244 388 244 388 217 354.5 c 128,-1,52
 190 321 190 321 190 250 c 0,53,54
 190 176 190 176 213.5 142 c 128,-1,55
 237 108 237 108 280 108 c 0,43,44
EndSplineSet
Validated: 1
EndChar

StartChar: l.a
Encoding: 1114164 -1 565
Width: 276
GlyphClass: 2
Flags: W
AnchorPoint: "Anchor-4" 138 -22 basechar 0
AnchorPoint: "Anchor-0" 138 730 basechar 0
LayerCount: 2
Fore
SplineSet
65 0 m 1,0,-1
 65 701 l 1,1,-1
 212 701 l 1,2,-1
 212 0 l 1,3,-1
 65 0 l 1,0,-1
EndSplineSet
Validated: 1
EndChar

StartChar: lslash.a
Encoding: 1114172 -1 573
Width: 299
Flags: W
LayerCount: 2
Fore
SplineSet
30 250 m 1,0,-1
 -21 341 l 1,1,-1
 75 395 l 1,2,-1
 75 701 l 1,3,-1
 222 701 l 1,4,-1
 222 467 l 1,5,-1
 270 494 l 1,6,-1
 320 403 l 1,7,-1
 222 348 l 1,8,-1
 222 0 l 1,9,-1
 75 0 l 1,10,-1
 75 276 l 1,11,-1
 30 250 l 1,0,-1
EndSplineSet
Validated: 1
EndChar

StartChar: Gamma
Encoding: 915 915 577
Width: 521
Flags: W
LayerCount: 2
Fore
SplineSet
77 0 m 1,0,-1
 77 652 l 1,1,-1
 488 652 l 1,2,-1
 488 528 l 1,3,-1
 224 528 l 1,4,-1
 224 0 l 1,5,-1
 77 0 l 1,0,-1
EndSplineSet
Validated: 1
Substitution2: "'c2sc' Capitals to Small Capitals lookup 17 subtable" Gamma.sc
Substitution2: "'aalt' Access All Alternates lookup 0 subtable" Gamma.sc
EndChar

StartChar: uni0394
Encoding: 916 916 578
Width: 640
Flags: W
LayerCount: 2
Fore
SplineSet
34 0 m 1,0,-1
 34 89 l 1,1,-1
 232 652 l 1,2,-1
 408 652 l 1,3,-1
 606 89 l 1,4,-1
 606 0 l 1,5,-1
 34 0 l 1,0,-1
192 124 m 1,6,-1
 444 124 l 1,7,-1
 375 344 l 1,8,-1
 319 539 l 1,9,-1
 315 539 l 1,10,-1
 260 344 l 1,11,-1
 192 124 l 1,6,-1
EndSplineSet
Validated: 1
Substitution2: "'c2sc' Capitals to Small Capitals lookup 17 subtable" uni0394.sc
Substitution2: "'aalt' Access All Alternates lookup 0 subtable" uni0394.sc
EndChar

StartChar: Theta
Encoding: 920 920 582
Width: 684
Flags: W
LayerCount: 2
Fore
SplineSet
244 272 m 1,0,-1
 244 401 l 1,1,-1
 440 401 l 1,2,-1
 440 272 l 1,3,-1
 244 272 l 1,0,-1
342 -12 m 256,4,5
 276 -12 276 -12 221.5 11.5 c 128,-1,6
 167 35 167 35 128 79 c 128,-1,7
 89 123 89 123 67.5 186 c 128,-1,8
 46 249 46 249 46 329 c 256,9,10
 46 409 46 409 67.5 471.5 c 128,-1,11
 89 534 89 534 128 576.5 c 128,-1,12
 167 619 167 619 221.5 641.5 c 128,-1,13
 276 664 276 664 342 664 c 256,14,15
 408 664 408 664 462.5 641.5 c 128,-1,16
 517 619 517 619 556 576 c 128,-1,17
 595 533 595 533 616.5 470.5 c 128,-1,18
 638 408 638 408 638 329 c 0,19,20
 638 249 638 249 616.5 186 c 128,-1,21
 595 123 595 123 556 79 c 128,-1,22
 517 35 517 35 462.5 11.5 c 128,-1,23
 408 -12 408 -12 342 -12 c 256,4,5
342 115 m 256,24,25
 409 115 409 115 448 172.5 c 128,-1,26
 487 230 487 230 487 329 c 0,27,28
 487 427 487 427 448 482 c 128,-1,29
 409 537 409 537 342 537 c 256,30,31
 275 537 275 537 236 482 c 128,-1,32
 197 427 197 427 197 329 c 0,33,34
 197 230 197 230 236 172.5 c 128,-1,35
 275 115 275 115 342 115 c 256,24,25
EndSplineSet
Validated: 1
Substitution2: "'c2sc' Capitals to Small Capitals lookup 17 subtable" Theta.sc
Substitution2: "'aalt' Access All Alternates lookup 0 subtable" Theta.sc
EndChar

StartChar: Lambda
Encoding: 923 923 585
Width: 556
Flags: W
LayerCount: 2
Fore
SplineSet
-7 0 m 1,0,-1
 189 652 l 1,1,-1
 366 652 l 1,2,-1
 563 0 l 1,3,-1
 407 0 l 1,4,-1
 329 304 l 2,5,6
 314 358 314 358 302.5 408.5 c 128,-1,7
 291 459 291 459 277 513 c 1,8,-1
 273 513 l 1,9,10
 258 459 258 459 246 408.5 c 128,-1,11
 234 358 234 358 220 304 c 2,12,-1
 143 0 l 1,13,-1
 -7 0 l 1,0,-1
EndSplineSet
Validated: 1
Substitution2: "'c2sc' Capitals to Small Capitals lookup 17 subtable" Lambda.sc
Substitution2: "'aalt' Access All Alternates lookup 0 subtable" Lambda.sc
EndChar

StartChar: Xi
Encoding: 926 926 588
Width: 571
Flags: W
LayerCount: 2
Fore
SplineSet
53 0 m 1,0,-1
 53 124 l 1,1,-1
 519 124 l 1,2,-1
 519 0 l 1,3,-1
 53 0 l 1,0,-1
121 274 m 1,4,-1
 121 397 l 1,5,-1
 450 397 l 1,6,-1
 450 274 l 1,7,-1
 121 274 l 1,4,-1
63 528 m 1,8,-1
 63 652 l 1,9,-1
 509 652 l 1,10,-1
 509 528 l 1,11,-1
 63 528 l 1,8,-1
EndSplineSet
Validated: 1
Substitution2: "'c2sc' Capitals to Small Capitals lookup 17 subtable" Xi.sc
Substitution2: "'aalt' Access All Alternates lookup 0 subtable" Xi.sc
EndChar

